<svg width="43" height="25" viewBox="0 0 43 25" fill="none" xmlns="http://www.w3.org/2000/svg">
<path d="M37.631 14.5671V15.3694C37.631 15.6432 37.4087 15.8659 37.1345 15.8659C36.8606 15.8659 36.638 15.6436 36.638 15.3694V14.5671C36.638 14.2933 36.8603 14.0707 37.1345 14.0707C37.4087 14.0707 37.631 14.2933 37.631 14.5671ZM32.2343 14.0707C31.9604 14.0707 31.7378 14.2929 31.7378 14.5671V15.3694C31.7378 15.6432 31.9601 15.8659 32.2343 15.8659C32.5082 15.8659 32.7308 15.6436 32.7308 15.3694V14.5671C32.7308 14.2933 32.5085 14.0707 32.2343 14.0707ZM27.3362 14.0707C27.0623 14.0707 26.8397 14.2929 26.8397 14.5671V15.3694C26.8397 15.6432 27.062 15.8659 27.3362 15.8659C27.61 15.8659 27.8327 15.6436 27.8327 15.3694V14.5671C27.8327 14.2933 27.6114 14.0707 27.3362 14.0707ZM24.0255 12.6185C24.0255 19.0941 18.7579 24.3635 12.2832 24.3635C5.8076 24.3635 0.539062 19.095 0.539062 12.6185C0.539062 6.14405 5.8076 0.876221 12.2832 0.876221C18.7577 0.876221 24.0255 6.14343 24.0255 12.6185ZM1.55659 12.1221H4.41267C4.67061 8.00231 8.09756 4.72628 12.2848 4.72628C16.4701 4.72628 19.8949 8.00125 20.1532 12.1221H23.0072C22.7451 6.42692 18.0426 1.86879 12.2824 1.86879C6.52182 1.86879 1.81726 6.42656 1.55579 12.1221H1.55659ZM19.1851 12.6185C19.1851 8.81452 16.0898 5.71993 12.2848 5.71993C8.47763 5.71993 5.38029 8.81417 5.38029 12.6185C5.38029 16.4236 8.47763 19.5199 12.2848 19.5199C16.0888 19.5189 19.1851 16.4235 19.1851 12.6185ZM11.7856 23.3451V20.487C7.82847 20.2388 4.65978 17.0711 4.4116 13.1151H1.55623C1.81037 18.6468 6.25387 23.0909 11.7856 23.3453V23.3451ZM23.0058 13.1149H20.1519C19.9036 17.072 16.736 20.2396 12.7779 20.4868V23.3449C18.3093 23.0908 22.752 18.6466 23.0055 13.1147L23.0058 13.1149ZM23.5124 3.3252C23.2385 3.3252 23.0159 3.54748 23.0159 3.82169C23.0159 4.09556 23.2381 4.31819 23.5124 4.31819C33.4855 4.31819 41.5992 10.0482 41.5992 17.0922C41.5992 17.3661 41.8214 17.5887 42.0957 17.5887C42.3695 17.5887 42.5922 17.3664 42.5922 17.0922C42.5915 9.50084 34.0334 3.3246 23.5127 3.3246L23.5124 3.3252ZM15.4584 12.6185C15.4584 14.3698 14.033 15.7931 12.2828 15.7931C10.5326 15.7931 9.10719 14.3684 9.10719 12.6185C9.10719 10.8684 10.5326 9.44401 12.2828 9.44401C14.0326 9.44366 15.4584 10.8684 15.4584 12.6185ZM14.4654 12.6185C14.4654 11.4154 13.4866 10.4366 12.2824 10.4366C11.0782 10.4366 10.0995 11.4154 10.0995 12.6185C10.0995 13.8217 11.0782 14.8005 12.2824 14.8005C13.4866 14.8005 14.4654 13.8217 14.4654 12.6185ZM34.3781 9.96092H26.322C26.0481 9.96092 25.8255 10.1832 25.8255 10.4574C25.8255 10.7313 26.0478 10.9539 26.322 10.9539H34.3781C34.652 10.9539 34.8746 10.7316 34.8746 10.4574C34.8742 10.1832 34.653 9.96092 34.3781 9.96092Z" fill="white"/>
</svg>
