<svg width="43" height="31" viewBox="0 0 43 31" fill="none" xmlns="http://www.w3.org/2000/svg">
<path d="M14.2205 16.2238C14.6255 16.2238 14.9906 16.4676 15.1458 16.8417C15.3007 17.2158 15.2149 17.6466 14.9286 17.9329C14.6423 18.2192 14.2115 18.305 13.8373 18.1502C13.4632 17.9949 13.2195 17.6299 13.2195 17.2249C13.2195 16.6721 13.6677 16.2238 14.2205 16.2238ZM19.2271 17.2249C19.2271 17.6299 19.4708 17.9949 19.8449 18.1501C20.2191 18.305 20.6499 18.2192 20.9362 17.9329C21.2225 17.6466 21.3083 17.2158 21.1534 16.8417C20.9982 16.4675 20.6331 16.2238 20.2282 16.2238C19.6753 16.2238 19.2271 16.6721 19.2271 17.2249ZM25.2347 17.2249C25.2347 17.6299 25.4784 17.9949 25.8525 18.1501C26.2267 18.305 26.6575 18.2192 26.9438 17.9329C27.2301 17.6466 27.3159 17.2158 27.161 16.8417C27.0058 16.4675 26.6407 16.2238 26.2357 16.2238C25.6829 16.2238 25.2347 16.6721 25.2347 17.2249ZM41.2552 10.2159C40.9897 10.2156 40.7346 10.3215 40.5468 10.5093C40.3591 10.697 40.2535 10.9518 40.2538 11.2173V27.2378C40.2538 27.7906 40.702 28.2392 41.2548 28.2392C41.808 28.2392 42.2562 27.7906 42.2562 27.2378V11.2173C42.2562 10.9518 42.151 10.697 41.9632 10.5093C41.7755 10.3215 41.521 10.2156 41.2552 10.2159ZM1.20433 22.2311C1.46985 22.2311 1.72463 22.1261 1.91237 21.9381C2.10011 21.7503 2.20571 21.4956 2.20538 21.23V18.2262H6.21055V21.23C6.21189 22.5573 6.7399 23.8299 7.67829 24.7685C8.61701 25.7072 9.88959 26.2349 11.2168 26.2362H12.8048L15.3433 28.7747C16.2799 29.7168 17.5546 30.2448 18.8828 30.2414H27.0963C28.7705 30.2434 30.3347 29.4063 31.2617 28.012L33.7804 24.2338H37.2499V22.2314H33.2447C32.9098 22.2314 32.5973 22.3987 32.4116 22.6773L29.5956 26.9011C29.0394 27.7378 28.1011 28.2401 27.0963 28.239H18.8829C18.0867 28.2363 17.3236 27.9202 16.7591 27.359L13.9273 24.5272C13.7396 24.3395 13.4851 24.2339 13.2196 24.2339H11.2168C10.4206 24.2329 9.65692 23.9164 9.09409 23.3531C8.53088 22.7899 8.21407 22.0266 8.21304 21.2301V13.2201C8.21404 12.4235 8.53085 11.6602 9.09409 11.097C9.65697 10.5338 10.4207 10.217 11.2168 10.2163H29.2396C30.0361 10.2169 30.7995 10.5337 31.3627 11.097C31.9258 11.6602 32.2427 12.4235 32.2434 13.2201V15.2225C32.2434 15.488 32.3486 15.7428 32.5367 15.9305C32.7245 16.1186 32.9792 16.2239 33.2448 16.2239H37.2499V14.2214L34.2461 14.2211V13.2201C34.2448 11.8925 33.7168 10.6199 32.7781 9.68161C31.8398 8.74288 30.5672 8.2149 29.2397 8.21361H21.2297V2.20603H26.2359C26.789 2.20603 27.2373 1.7578 27.2373 1.20499C27.2373 0.651839 26.789 0.203613 26.2359 0.203613H14.2207C13.6679 0.203613 13.2197 0.651839 13.2197 1.20499C13.2197 1.75781 13.6679 2.20603 14.2207 2.20603H19.2273V8.21361H11.2169C9.88967 8.21495 8.61709 8.74297 7.67845 9.68161C6.74006 10.62 6.21208 11.8926 6.21071 13.2201V16.2239H2.20554V13.2201C2.20554 12.6669 1.75731 12.2187 1.2045 12.2187C0.651351 12.2187 0.203125 12.6669 0.203125 13.2201V21.2301C0.203125 21.4956 0.308395 21.7504 0.496132 21.9381C0.683869 22.1262 0.938479 22.2311 1.20433 22.2311Z" fill="white"/>
</svg>
