<svg width="43" height="39" viewBox="0 0 43 39" fill="none" xmlns="http://www.w3.org/2000/svg">
<path d="M22.344 0.699233H22.3422C19.832 0.699233 17.4225 1.13262 15.183 1.92744L16.7786 9.69373C18.1189 9.31997 19.5274 9.12421 20.9801 9.12421L21.038 9.12511C21.7999 9.12421 22.5496 9.18143 23.2838 9.29016L26.0719 1.02117C24.8642 0.808246 23.6216 0.699219 22.3536 0.699219L22.344 0.699233ZM13.6848 2.52435H13.6845C10.8913 3.76034 8.40924 5.57581 6.38885 7.81927L10.2975 13.3027C11.7429 11.9808 13.4186 10.9238 15.2535 10.203L13.6848 2.52435ZM24.8549 9.60668H24.8552C26.9383 10.1364 28.8631 11.0861 30.5411 12.3639L30.5414 12.3642C31.0064 12.7184 31.4527 13.0979 31.8778 13.5005L39.8917 9.79187C39.5793 9.34614 39.2481 8.91424 38.9016 8.49566L38.901 8.49536C36.0355 5.03549 32.1162 2.49088 27.6387 1.3552L24.8549 9.60668ZM5.33705 9.08294L5.33675 9.08324C3.7339 11.1577 2.49916 13.5358 1.73123 16.1162L6.31403 18.8406C7.03466 17.22 7.99899 15.7404 9.15791 14.4513L5.33705 9.08294ZM22.3225 20.9263H22.3228C23.0629 20.9263 23.6628 21.5289 23.6628 22.2725C23.6628 23.0164 23.0627 23.6202 22.3222 23.6202H22.3216C21.5812 23.6196 20.9811 23.0167 20.9811 22.2728C20.9811 21.5288 21.5812 20.9262 22.3216 20.9262L22.3225 20.9263ZM1.31975 17.7282L1.31945 17.7291C1.0002 19.2052 0.832031 20.7432 0.832031 22.3205C0.832031 22.8758 0.853015 23.4264 0.893783 23.9712L4.88875 24.5732C4.99248 23.1032 5.27995 21.6867 5.72782 20.3484L1.31975 17.7282ZM42.0875 9.90329H42.0863C41.9496 9.90329 41.8249 9.94966 41.6879 10.0129L23.6243 18.3721C23.2151 18.2345 22.7774 18.1598 22.3221 18.1598H22.3182C20.0589 18.1592 18.2291 20.0026 18.2291 22.2723C18.2291 24.5434 20.0613 26.3839 22.3215 26.3854H22.3224C24.3104 26.3842 25.9657 24.9606 26.3362 23.0728C26.3362 23.0725 26.3368 23.0722 26.3368 23.0722C26.4822 22.9671 42.4843 11.3985 42.4843 11.3985C42.8143 11.1597 42.9912 10.7477 42.8167 10.3673C42.7226 10.1619 42.5524 10.0158 42.3551 9.94715L42.3527 9.94655C42.2685 9.91643 42.1791 9.90348 42.0901 9.90348L42.0875 9.90329ZM1.07955 25.6171V25.6177C1.33105 27.2654 1.76871 28.8576 2.37092 30.3659L5.27743 29.669C5.02143 28.5435 4.87454 27.3801 4.84907 26.1848L1.07955 25.6171ZM3.02804 31.848L3.02834 31.8486C3.60868 33.034 4.29423 34.1589 5.07275 35.2105L6.75626 33.6998C6.34439 32.9002 5.99277 32.0687 5.70739 31.2049L3.02804 31.848ZM6.06792 36.4577V36.4583C6.50437 36.9643 6.96124 37.4507 7.44201 37.9148L7.44231 37.9154C7.60538 38.0934 7.8395 38.206 8.09969 38.206H8.09999C8.5925 38.2054 8.99178 37.8043 8.99178 37.3094V37.3088C8.99178 37.0908 8.91414 36.8911 8.78554 36.736L8.77805 36.7273C8.34729 36.2084 7.94527 35.6687 7.57723 35.1022L6.06792 36.4577Z" fill="white"/>
</svg>
