<svg width="30" height="43" viewBox="0 0 30 43" fill="none" xmlns="http://www.w3.org/2000/svg">
<path d="M8.14423 31.3684C8.22155 31.399 8.30161 31.4137 8.38015 31.4137C8.63563 31.4137 8.87736 31.2599 8.97698 31.0078L10.1257 28.1034C10.6306 26.827 10.8659 25.4839 10.8253 24.1118L10.4964 13.0567C10.4861 12.7025 10.193 12.4226 9.83574 12.4342C9.48156 12.4446 9.20285 12.7404 9.21324 13.0949L9.54206 24.15C9.57751 25.3467 9.37246 26.5181 8.93209 27.6313L7.78332 30.5357C7.65313 30.8651 7.8148 31.238 8.14423 31.3685V31.3684Z" fill="white"/>
<path d="M28.8352 31.8541L27.654 31.0213C27.2711 30.7512 26.8137 30.635 26.3653 30.6729V27.6921C26.3653 26.8031 26.1887 25.9376 25.8403 25.1196L24.8789 22.8624C24.5987 22.2044 24.4566 21.5083 24.4566 20.7929V14.4352C24.4566 13.1184 23.9979 11.8316 23.1648 10.8121L23.1034 10.7369C22.395 9.86997 21.3465 9.37248 20.2267 9.37248H18.7849V7.88059H18.8855C19.6057 7.88059 20.2845 7.56429 20.7478 7.01298C21.2111 6.46168 21.4054 5.73865 21.2811 5.02908L20.8642 2.64939C20.6491 1.42184 19.5886 0.531006 18.3425 0.531006H12.2614C11.0152 0.531006 9.9545 1.42184 9.73967 2.64939L9.32284 5.02908C9.19847 5.73837 9.39313 6.46144 9.85611 7.01298C10.1941 7.41545 10.647 7.69172 11.1469 7.81213V9.37248H9.70512C8.58545 9.37248 7.5369 9.86969 6.8285 10.7369L6.76738 10.8118C5.93436 11.8316 5.4756 13.1184 5.4756 14.4352V20.7929C5.4756 21.5083 5.3335 22.2045 5.05327 22.8624L4.09218 25.1193C3.7438 25.937 3.56716 26.8028 3.56716 27.6918L3.56686 30.6728C3.11855 30.635 2.66108 30.7514 2.27813 31.0215L1.09666 31.8543C0.557894 32.2342 0.24893 32.8545 0.2706 33.5134L0.353722 36.0456C0.39895 37.4244 1.05599 38.6926 2.15644 39.5254L4.88942 41.5931C5.7341 42.2321 6.78289 42.5841 7.84209 42.5841H22.0898C23.149 42.5841 24.1978 42.2321 25.0425 41.5931L27.7755 39.5254C28.8759 38.6929 29.533 37.4247 29.5782 36.0456L29.6613 33.5134C29.6827 32.8542 29.3738 32.2339 28.835 31.854L28.8352 31.8541ZM10.8385 6.18747C10.6197 5.92711 10.528 5.58575 10.5867 5.25048L11.0035 2.8708C11.1108 2.25869 11.6398 1.81434 12.2611 1.81434H18.3421C18.9637 1.81434 19.4923 2.25868 19.5996 2.8708L20.0164 5.25048C20.0751 5.58541 19.9834 5.92676 19.7646 6.18747C19.5458 6.44784 19.2252 6.59728 18.8851 6.59728H11.718C11.3779 6.59728 11.0573 6.44784 10.8385 6.18747H10.8385ZM12.4301 7.88082H17.5011V9.37272H12.4301V7.88082ZM5.27242 25.6232L6.23351 23.3664C6.58189 22.5486 6.75852 21.6828 6.75852 20.7938V14.4362C6.75852 13.4145 7.11455 12.4162 7.76084 11.6247L7.82196 11.5498C8.28555 10.9823 8.97159 10.6568 9.7044 10.6568H20.2259C20.9587 10.6568 21.6448 10.9823 22.1084 11.5495L22.1698 11.6246C22.8161 12.4158 23.1721 13.4142 23.1721 14.4362V20.7938C23.1721 21.6828 23.3487 22.5486 23.6971 23.3664L24.6582 25.6235C24.9384 26.2818 25.0805 26.9779 25.0805 27.693V31.2135L21.8238 33.1935H8.10645L4.8497 31.2135V27.6927C4.8497 26.9773 4.9918 26.2812 5.27203 25.6232L5.27242 25.6232ZM28.2948 36.0039C28.2624 36.9941 27.7905 37.9045 27.0006 38.5022L24.2676 40.5699C23.6445 41.0415 22.8707 41.3009 22.0893 41.3009H7.84151C7.0601 41.3009 6.28663 41.0412 5.66319 40.5699L2.93021 38.5022C2.14022 37.9045 1.66839 36.9938 1.63601 36.0039L1.55288 33.4718C1.54555 33.2463 1.65128 33.0339 1.83556 32.9037L3.01672 32.0709C3.13193 31.9896 3.2667 31.949 3.40177 31.949C3.52156 31.949 3.64197 31.9814 3.74863 32.0461L7.28498 34.196V37.7577C7.28498 38.1122 7.57225 38.3994 7.92673 38.3994C8.28122 38.3994 8.56849 38.1122 8.56849 37.7577V34.4768H20.9058V37.7577C20.9058 38.1122 21.1931 38.3994 21.5475 38.3994C21.902 38.3994 22.1893 38.1122 22.1893 37.7577V34.4484C22.2406 34.4328 22.2905 34.4114 22.3369 34.3833L26.1817 32.0461C26.4087 31.9076 26.696 31.9177 26.9136 32.0708L28.0947 32.9036C28.2793 33.0338 28.385 33.2462 28.3774 33.4717L28.2948 36.0039Z" fill="white"/>
<path d="M20.9547 31.0075C21.0543 31.2597 21.2961 31.4134 21.5515 31.4134C21.6301 31.4134 21.7098 31.3987 21.7875 31.3682C22.1172 31.2377 22.2785 30.8648 22.1481 30.5354L20.9993 27.631C20.5589 26.5177 20.3536 25.3463 20.3893 24.1496L20.7178 13.0938C20.7282 12.7396 20.4498 12.4437 20.0953 12.4331C19.7439 12.4245 19.4453 12.7011 19.4349 13.0556L19.1061 24.1106C19.0652 25.4828 19.3005 26.8259 19.8056 28.1023L20.9547 31.0075Z" fill="white"/>
</svg>
