<svg width="24" height="33" viewBox="0 0 24 33" fill="none" xmlns="http://www.w3.org/2000/svg">
<path d="M11.5977 0.476568C11.1634 1.09776 0.953125 15.751 0.953125 21.708C0.953125 27.8857 5.97892 32.9115 12.1565 32.9115C18.3342 32.9115 23.3599 27.8857 23.3599 21.708C23.3599 15.7506 13.15 1.09748 12.7154 0.476568C12.4597 0.112466 11.8536 0.112466 11.5979 0.476568H11.5977ZM12.1564 31.5484C6.73091 31.5484 2.31682 27.1341 2.31682 21.7088C2.31682 16.9324 9.99638 5.26269 12.1564 2.07413C14.3165 5.26203 21.996 16.9322 21.996 21.7088C21.996 27.1343 17.582 31.5484 12.1564 31.5484Z" fill="white"/>
<path d="M5.03915 21.7082C5.03915 21.3315 4.73383 21.0265 4.35747 21.0265C3.98082 21.0265 3.67578 21.3318 3.67578 21.7082C3.67578 26.3821 7.47831 30.1847 12.1516 30.1847C12.5282 30.1847 12.8333 29.8794 12.8333 29.503C12.8333 29.1264 12.5279 28.8213 12.1516 28.8213C8.22976 28.821 5.03908 25.6303 5.03908 21.7082L5.03915 21.7082Z" fill="white"/>
</svg>
