<svg width="43" height="19" viewBox="0 0 43 19" fill="none" xmlns="http://www.w3.org/2000/svg">
<path d="M25.1689 0.222133C22.2959 0.105134 19.4796 1.04648 17.2546 2.8678C14.6579 4.99521 11.4236 6.19103 8.06755 6.26475C6.27064 6.30363 4.5345 6.92416 3.11983 8.03308C1.70517 9.14239 0.688024 10.6801 0.221075 12.4159C0.0829559 12.9265 0.218393 13.4719 0.579109 13.8591L1.40614 14.7421V14.7418C1.69511 15.0518 2.09974 15.2285 2.52377 15.2289H2.95221H2.95187C3.2804 16.3915 4.10109 17.3519 5.19796 17.8574C6.29483 18.363 7.55837 18.363 8.65524 17.8574C9.75211 17.3519 10.5732 16.3915 10.9013 15.2289H31.1266C31.4562 16.3897 32.2768 17.3482 33.3727 17.8531C34.4689 18.3576 35.7308 18.3576 36.827 17.8531C37.9229 17.3482 38.7435 16.3897 39.0731 15.2289H40.2642H40.2638C40.5542 15.2289 40.8384 15.1467 41.0835 14.9912C41.3286 14.836 41.5247 14.614 41.6484 14.3519C42.4787 12.5926 42.4023 10.5399 41.4439 8.84693C40.4858 7.15429 38.7647 6.03262 36.8291 5.83918C35.5236 5.70878 34.3141 5.09429 33.4381 4.11745C31.3214 1.75507 28.3385 0.350107 25.1692 0.221977L25.1689 0.222133ZM24.8343 1.71524C25.1843 1.71959 25.534 1.74239 25.8816 1.78262C25.3492 2.94926 24.9819 4.18422 24.7904 5.45213C23.6885 5.51884 22.5832 5.40184 21.5199 5.10583C20.2134 4.74243 18.8628 4.56275 17.5071 4.57247C17.7454 4.39781 17.9794 4.21679 18.2081 4.02972C20.0753 2.50169 22.422 1.68211 24.8343 1.71523V1.71524ZM27.4039 2.07897C29.1096 2.54662 30.6647 3.44806 31.9185 4.69546C30.1994 4.52583 28.4638 4.67099 26.7967 5.12356C26.6489 5.16312 26.5004 5.19899 26.3508 5.23184C26.5573 4.13797 26.9117 3.07697 27.4039 2.07863L27.4039 2.07897ZM17.2342 6.077C18.5443 6.03912 19.8524 6.19836 21.1149 6.54935C23.1002 7.10248 25.1977 7.11053 27.187 6.57214C29.7583 5.87552 32.4834 6.00392 34.9779 6.93889C35.5243 7.14371 36.0953 7.2768 36.6762 7.3348H36.6792C38.1294 7.47962 39.4188 8.32002 40.1368 9.58793C40.8549 10.8561 40.9119 12.3938 40.29 13.712H40.287C40.2873 13.713 40.2873 13.714 40.287 13.715C40.2863 13.7161 40.2853 13.7171 40.284 13.7181C40.2843 13.7191 40.2843 13.7201 40.284 13.7211H40.281C40.2803 13.7221 40.2793 13.7231 40.278 13.7241H40.2753C40.2743 13.7251 40.2733 13.7261 40.2723 13.7271H40.2692H40.2662H40.2632H40.2602H39.2099C39.0822 12.348 38.2715 11.1247 37.0514 10.4693C35.8311 9.8139 34.3638 9.8139 33.1435 10.4693C31.9232 11.1247 31.1127 12.348 30.985 13.7271H11.0352C10.9074 12.348 10.0971 11.1247 8.87695 10.4693C7.65667 9.8139 6.18905 9.8139 4.96877 10.4693C3.74849 11.1247 2.93826 12.348 2.81022 13.7271H2.5199H2.51689H2.51387H2.51085C2.50985 13.7261 2.50884 13.7251 2.50784 13.7241H2.50482C2.50381 13.7231 2.50281 13.7221 2.5018 13.7211C2.5008 13.7201 2.49979 13.7191 2.49912 13.7181L1.67176 12.8324V12.8321V12.829C1.67075 12.8284 1.66975 12.8274 1.66874 12.826V12.823C1.66774 12.8223 1.66673 12.8213 1.66572 12.82V12.817V12.8143V12.8113V12.8083V12.8052V12.8022C2.04856 11.3798 2.88197 10.12 4.04123 9.2115C5.2005 8.30266 6.62288 7.79443 8.09556 7.76259C9.85153 7.72471 11.5904 7.40691 13.2465 6.82123C14.4812 6.38408 15.7745 6.13467 17.0833 6.0817C17.1332 6.07969 17.1828 6.07768 17.2328 6.07634L17.2342 6.077ZM35.0282 11.4712V11.4716C35.7382 11.4515 36.4261 11.72 36.935 12.2158C37.4442 12.7116 37.7309 13.3921 37.7295 14.1025C37.7295 15.0414 37.2287 15.9091 36.4154 16.3787C35.6025 16.848 34.6005 16.848 33.7872 16.3787C32.9742 15.909 32.4731 15.0414 32.4731 14.1025C32.4721 13.4176 32.7386 12.7592 33.216 12.2677C33.693 11.7763 34.3434 11.4906 35.0283 11.4715L35.0282 11.4712ZM6.85075 11.4769C7.56044 11.4565 8.24834 11.724 8.7576 12.2185C9.26716 12.713 9.55479 13.3925 9.55546 14.1025C9.55144 15.0388 9.04959 15.9024 8.23795 16.3694C7.42634 16.8363 6.42765 16.8363 5.61605 16.3694C4.80444 15.9024 4.30257 15.0388 4.29887 14.1025C4.29921 13.419 4.56606 12.7626 5.04243 12.2725C5.5188 11.7823 6.16745 11.4971 6.85067 11.4769L6.85075 11.4769Z" fill="white"/>
</svg>
