<svg width="16" height="32" viewBox="0 0 16 32" fill="none" xmlns="http://www.w3.org/2000/svg">
<path d="M7.8049 14.0488C9.95684 14.0488 11.7073 12.1235 11.7073 9.75568C11.7073 8.72853 11.3717 7.73318 10.7595 6.94628C10.0114 6.00374 8.9346 5.46344 7.8049 5.46344C5.65297 5.46344 3.90247 7.38876 3.90247 9.7556C3.90247 9.78453 3.90504 9.82259 3.90961 9.86253C3.95565 12.1744 5.69643 14.0487 7.80495 14.0487L7.8049 14.0488ZM7.8049 6.87237C8.56465 6.87237 9.28947 7.23718 9.79045 7.86836C10.2011 8.39451 10.4264 9.06531 10.4264 9.7556C10.4264 11.3457 9.25035 12.6398 7.80494 12.6398C6.38237 12.6398 5.20978 11.3696 5.18973 9.80777C5.18973 9.77884 5.18715 9.74928 5.18401 9.72097C5.20059 8.14756 6.36948 6.87228 7.80493 6.87228L7.8049 6.87237Z" fill="white"/>
<path d="M15.5656 15.3038C15.5682 15.2974 15.574 15.2901 15.576 15.2843C15.5968 15.221 15.6063 15.1549 15.6077 15.0884C15.6077 15.0846 15.6098 15.0811 15.6098 15.0773V15.0753L15.6095 5.54392V0.653087C15.6095 0.292725 15.3198 0 14.9632 0H0.646301C0.289683 0 0 0.292725 0 0.653087V15.0673C0 15.0757 0.00317376 15.0842 0.00375086 15.0926C0.00375086 15.1011 0 15.109 0 15.1174C0 15.3166 0.0923285 15.4883 0.231398 15.6078C1.21703 17.053 2.61754 18.2012 4.2073 18.8779L7.65463 28.2584C7.75417 30.3332 9.46804 32 11.5414 32C13.6923 32 15.4425 30.2314 15.4425 28.0579C15.4425 27.1763 15.1387 26.3252 14.6003 25.6272C14.592 25.6097 14.5868 25.5893 14.577 25.5724L12.0824 18.5596C13.4537 17.8354 14.6197 16.7805 15.4755 15.4802L15.4749 15.4796C15.4859 15.4633 15.4905 15.4469 15.5 15.4306C15.5243 15.3901 15.5494 15.3501 15.5655 15.3038L15.5656 15.3038ZM14.1501 28.0588C14.1501 29.512 12.9795 30.6947 11.5416 30.6947C10.1269 30.6947 8.95953 29.5334 8.93958 28.1066C8.93958 28.0798 8.93699 28.0529 8.93381 28.0261C8.95113 26.5881 10.1144 25.4237 11.5415 25.4237C11.9637 25.4237 12.3693 25.5368 12.7366 25.7287C13.0263 25.8809 13.2944 26.0794 13.5168 26.3339C13.9253 26.8153 14.1501 27.4282 14.1501 28.0588ZM12.7542 24.3114C12.7277 24.3024 12.6994 24.2998 12.6729 24.2913C12.5364 24.2496 12.3988 24.2155 12.258 24.1887C12.1922 24.1762 12.1261 24.1651 12.0589 24.156C11.925 24.1377 11.7906 24.1272 11.6549 24.1234C11.6163 24.1222 11.5779 24.1143 11.5392 24.1143C11.4688 24.1143 11.401 24.1248 11.3318 24.128C11.2574 24.1318 11.1826 24.1345 11.1093 24.1432C11.0248 24.1531 10.942 24.1668 10.8592 24.1817C10.7951 24.1934 10.7311 24.2059 10.6685 24.2208C10.5857 24.2397 10.5037 24.2598 10.4229 24.2849C10.3635 24.3033 10.3052 24.3248 10.2472 24.3455C10.1038 24.3966 9.96476 24.4561 9.82973 24.5231C9.77664 24.5493 9.7224 24.5741 9.67075 24.6021C9.59833 24.6426 9.52908 24.687 9.45955 24.7322C9.40588 24.7669 9.35279 24.8013 9.30115 24.838C9.23536 24.8849 9.17131 24.9327 9.10841 24.9838C9.05532 25.0269 9.00512 25.0718 8.95463 25.1176C8.89779 25.1686 8.84037 25.2182 8.78671 25.2724C8.69496 25.3645 8.6084 25.4619 8.52617 25.5631C8.48232 25.6173 8.44279 25.6748 8.4021 25.731C8.35565 25.7943 8.31035 25.859 8.26765 25.9249C8.2489 25.9544 8.22639 25.9812 8.20821 26.0103L5.77938 19.4028C5.8466 19.418 5.91498 19.4276 5.98221 19.4413C6.06098 19.4576 6.14004 19.4728 6.21938 19.4865C6.40952 19.5197 6.60139 19.5466 6.79384 19.5675C6.86164 19.5748 6.92886 19.585 6.99667 19.5912C7.24538 19.6127 7.49553 19.6244 7.74571 19.6259C7.76649 19.6259 7.7864 19.6285 7.80659 19.6285C7.86026 19.6285 7.91248 19.6212 7.96615 19.62C8.17505 19.6162 8.38365 19.6057 8.59168 19.5874C8.69238 19.5789 8.79394 19.5705 8.89406 19.5585C9.15143 19.5279 9.40793 19.4885 9.66187 19.4358C9.73429 19.4206 9.80469 19.4005 9.87653 19.3836C10.0903 19.334 10.3012 19.2766 10.5104 19.2113C10.586 19.1876 10.6616 19.1643 10.7366 19.1387C10.7889 19.1212 10.8425 19.1066 10.8945 19.0876L12.7542 24.3114ZM14.3169 5.54359V14.8809C13.4923 16.0844 12.3535 17.034 11.0135 17.6344C9.59741 18.2743 7.99842 18.4624 6.49398 18.209C5.96453 18.1195 5.4449 17.9778 4.94803 17.7787C3.47047 17.2084 2.17011 16.1695 1.29269 14.8745V1.30596H14.317L14.3169 5.54359Z" fill="white"/>
</svg>
