<svg width="43" height="43" viewBox="0 0 43 43" fill="none" xmlns="http://www.w3.org/2000/svg">
<path d="M39.6973 11.212C39.6878 11.1958 39.6719 11.187 39.6617 11.1719C37.8239 8.019 35.1913 5.38669 32.0379 3.54917C32.0238 3.53967 32.0157 3.52489 32.0006 3.51608C31.9855 3.50728 31.9682 3.50764 31.9524 3.49989C28.8681 1.72195 25.2959 0.698975 21.4875 0.698975C17.679 0.698975 14.107 1.72195 11.0225 3.49989C11.0067 3.50764 10.9895 3.50728 10.974 3.51608C10.9588 3.52489 10.9507 3.53967 10.9363 3.54917C7.78232 5.38705 5.14892 8.02035 3.31114 11.1743C3.30163 11.1888 3.28685 11.1969 3.27805 11.212C3.26925 11.2271 3.2696 11.2444 3.26186 11.2599C1.48391 14.3445 0.460938 17.9167 0.460938 21.7257C0.460938 25.5347 1.48391 29.1066 3.26186 32.1906C3.2696 32.2065 3.26925 32.2234 3.27805 32.2388C3.29072 32.2607 3.30902 32.2769 3.32311 32.2973C6.97272 38.5432 13.7457 42.7523 21.4874 42.7523C29.2277 42.7523 35.9993 38.5454 39.6498 32.3009C39.6649 32.2794 39.6843 32.2622 39.6977 32.2389C39.7072 32.2224 39.7068 32.2041 39.7149 32.1875C41.4919 29.1036 42.514 25.5328 42.514 21.7253C42.514 17.9178 41.4918 14.3472 39.7149 11.264C39.7068 11.2471 39.7072 11.2288 39.6977 11.2123L39.6973 11.212ZM38.7289 22.5664H40.8104C40.6851 25.4746 39.9138 28.2164 38.6384 30.6562L36.84 29.6178C36.4384 29.3855 35.9234 29.5234 35.6911 29.9258C35.4588 30.3281 35.5967 30.8424 35.9991 31.0747L37.7947 32.1114C34.3556 37.4922 28.3337 41.07 21.4877 41.07C14.6418 41.07 8.61945 37.4926 5.18071 32.1121L6.97704 31.0751C7.37938 30.8428 7.51737 30.3285 7.28505 29.9262C7.05167 29.5227 6.53598 29.3858 6.1361 29.6181L4.33697 30.6569C3.06132 28.2168 2.28968 25.4746 2.16478 22.5664H4.24623C4.71123 22.5664 5.08717 22.1901 5.08717 21.7254C5.08717 21.2604 4.71087 20.8845 4.24623 20.8845H2.16478C2.29009 17.9762 3.06134 15.2341 4.3367 12.7947L6.13583 13.8334C6.26818 13.9095 6.41285 13.9457 6.55577 13.9457C6.84654 13.9457 7.12919 13.7947 7.28514 13.5251C7.51746 13.1227 7.37948 12.6084 6.97713 12.3761L5.1808 11.3391C6.70039 8.96163 8.72371 6.93794 11.1015 5.41835L12.1386 7.21468C12.2945 7.48502 12.5772 7.63533 12.8679 7.63533C13.0109 7.63533 13.1555 7.59908 13.2875 7.52269C13.6899 7.29037 13.8279 6.77608 13.5955 6.37374L12.5568 4.57462C14.9965 3.29897 17.7387 2.52732 20.6469 2.40242V4.48387C20.6469 4.94888 21.0232 5.32481 21.4879 5.32481C21.9529 5.32481 22.3288 4.94852 22.3288 4.48387V2.40242C25.2371 2.52738 27.9792 3.29898 30.4186 4.57435L29.3799 6.37347C29.1476 6.77581 29.2855 7.29011 29.6879 7.52242C29.8202 7.59881 29.9646 7.63506 30.1075 7.63506C30.3982 7.63506 30.6809 7.48405 30.8368 7.21441L31.8739 5.41808C34.2513 6.93767 36.275 8.96136 37.7946 11.3392L35.999 12.3759C35.5967 12.6082 35.4587 13.1225 35.691 13.5248C35.8469 13.7952 36.1296 13.9455 36.4204 13.9455C36.5633 13.9455 36.708 13.9092 36.84 13.8328L38.6384 12.7944C39.9144 15.2345 40.686 17.9763 40.8109 20.8846H38.7295C38.2645 20.8846 37.8885 21.2609 37.8885 21.7255C37.8885 22.1905 38.2648 22.5665 38.7295 22.5665L38.7289 22.5664Z" fill="white"/>
<path d="M29.9021 12.1467C28.9066 12.7842 20.1491 18.4029 19.1542 19.3966C17.8705 20.6822 17.8705 22.7716 19.1542 24.0554C19.7966 24.6978 20.6404 25.0188 21.4838 25.0188C22.3273 25.0188 23.1717 24.6978 23.8131 24.0554C24.8068 23.0624 30.4259 14.3033 31.063 13.3075C31.2767 12.9749 31.2288 12.5388 30.9497 12.2596C30.6698 11.9798 30.2337 11.9336 29.9018 12.1463L29.9021 12.1467ZM22.6243 22.8666C21.996 23.4932 20.9742 23.495 20.3444 22.8666C19.716 22.2383 19.716 21.2157 20.3444 20.5867C20.8241 20.1079 24.2654 17.8103 27.5246 15.6864C25.4003 18.9452 23.1031 22.3868 22.6243 22.8666Z" fill="white"/>
</svg>
