<svg width="13" height="13" viewBox="0 0 13 13" fill="none" xmlns="http://www.w3.org/2000/svg">
<path d="M11.943 1.83426H9.45098V0.884905C9.45098 0.819637 9.39758 0.766235 9.33231 0.766235H8.50163C8.43636 0.766235 8.38296 0.819637 8.38296 0.884905V1.83426H4.58554V0.884905C4.58554 0.819637 4.53214 0.766235 4.46687 0.766235H3.63618C3.57092 0.766235 3.51752 0.819637 3.51752 0.884905V1.83426H1.02546C0.762903 1.83426 0.550781 2.04638 0.550781 2.30894V12.1585C0.550781 12.4211 0.762903 12.6332 1.02546 12.6332H11.943C12.2056 12.6332 12.4177 12.4211 12.4177 12.1585V2.30894C12.4177 2.04638 12.2056 1.83426 11.943 1.83426ZM11.3497 11.5651H1.61881V5.92835H11.3497V11.5651ZM1.61881 4.91966V2.90228H3.51752V3.6143C3.51752 3.67957 3.57092 3.73297 3.63618 3.73297H4.46687C4.53214 3.73297 4.58554 3.67957 4.58554 3.6143V2.90228H8.38296V3.6143C8.38296 3.67957 8.43636 3.73297 8.50163 3.73297H9.33231C9.39758 3.73297 9.45098 3.67957 9.45098 3.6143V2.90228H11.3497V4.91966H1.61881Z" fill="white"/>
</svg>
