<svg width="122" height="122" viewBox="0 0 122 122" fill="none" xmlns="http://www.w3.org/2000/svg">
<g filter="url(#filter0_b_1413_20545)">
<circle cx="61" cy="61" r="61" fill="#7B7B7B" fill-opacity="0.4"/>
</g>
<path d="M42.0046 35.944H44.2446C45.1086 35.944 45.8552 35.816 46.4846 35.56C47.1246 35.2933 47.6526 34.9467 48.0686 34.52C48.4952 34.0827 48.8099 33.592 49.0126 33.048C49.2152 32.4933 49.3166 31.9227 49.3166 31.336C49.3166 30.7493 49.2152 30.184 49.0126 29.64C48.8099 29.0853 48.4952 28.5947 48.0686 28.168C47.6526 27.7307 47.1246 27.384 46.4846 27.128C45.8552 26.8613 45.1086 26.728 44.2446 26.728H42.0046V35.944ZM40.8526 25.672H44.6126C45.3166 25.672 46.0206 25.7893 46.7246 26.024C47.4392 26.2587 48.0792 26.616 48.6446 27.096C49.2206 27.5653 49.6846 28.1573 50.0366 28.872C50.3886 29.576 50.5646 30.3973 50.5646 31.336C50.5646 32.2853 50.3886 33.112 50.0366 33.816C49.6846 34.52 49.2206 35.112 48.6446 35.592C48.0792 36.0613 47.4392 36.4133 46.7246 36.648C46.0206 36.8827 45.3166 37 44.6126 37H40.8526V25.672ZM54.0239 30.68H56.0719C56.5839 30.68 57.0159 30.6267 57.3679 30.52C57.7306 30.4133 58.0186 30.2747 58.2319 30.104C58.4453 29.9227 58.5999 29.7147 58.6959 29.48C58.7919 29.2347 58.8399 28.9733 58.8399 28.696C58.8399 28.4293 58.7919 28.1787 58.6959 27.944C58.5999 27.6987 58.4453 27.4853 58.2319 27.304C58.0186 27.1227 57.7306 26.984 57.3679 26.888C57.0159 26.7813 56.5839 26.728 56.0719 26.728H54.0239V30.68ZM54.0239 37H52.8719V25.672H56.3599C57.5119 25.672 58.4186 25.9227 59.0799 26.424C59.7519 26.9253 60.0879 27.6827 60.0879 28.696C60.0879 29.4853 59.8373 30.152 59.3359 30.696C58.8453 31.2293 58.1306 31.5387 57.1919 31.624L60.4559 37H59.0479L55.9439 31.736H54.0239V37ZM63.8443 32.968H68.7563L66.3083 27.016L63.8443 32.968ZM62.1643 37H60.8203L65.7483 25.672H66.8683L71.7963 37H70.4523L69.2043 34.024H63.4123L62.1643 37ZM81.6931 27.752C81.3091 27.3467 80.8504 27.0267 80.3171 26.792C79.7837 26.5573 79.1651 26.44 78.4611 26.44C77.7357 26.44 77.0851 26.5733 76.5091 26.84C75.9331 27.1067 75.4424 27.464 75.0371 27.912C74.6424 28.36 74.3384 28.8827 74.1251 29.48C73.9117 30.0667 73.8051 30.6853 73.8051 31.336C73.8051 31.9867 73.9117 32.6107 74.1251 33.208C74.3384 33.7947 74.6424 34.312 75.0371 34.76C75.4424 35.208 75.9331 35.5653 76.5091 35.832C77.0851 36.0987 77.7357 36.232 78.4611 36.232C79.0477 36.232 79.6077 36.1627 80.1411 36.024C80.6851 35.8747 81.1704 35.6773 81.5971 35.432V31.64H78.8931V30.584H82.7491V36.136C82.1091 36.5093 81.4051 36.7973 80.6371 37C79.8797 37.192 79.1544 37.288 78.4611 37.288C77.6184 37.288 76.8344 37.1387 76.1091 36.84C75.3944 36.5413 74.7704 36.1307 74.2371 35.608C73.7144 35.0747 73.3037 34.4453 73.0051 33.72C72.7064 32.9947 72.5571 32.2 72.5571 31.336C72.5571 30.472 72.7064 29.6773 73.0051 28.952C73.3037 28.2267 73.7144 27.6027 74.2371 27.08C74.7704 26.5467 75.3944 26.1307 76.1091 25.832C76.8344 25.5333 77.6184 25.384 78.4611 25.384C79.3677 25.384 80.1464 25.512 80.7971 25.768C81.4584 26.0133 82.0451 26.392 82.5571 26.904L81.6931 27.752Z" fill="white"/>
<path d="M22.8008 95.5928H21.6488V85.3208H17.8568V84.2648H26.5928V85.3208H22.8008V95.5928ZM38.1483 89.9288C38.1483 89.2781 38.0416 88.6595 37.8283 88.0728C37.615 87.4755 37.3056 86.9528 36.9003 86.5048C36.5056 86.0568 36.0203 85.6995 35.4443 85.4328C34.8683 85.1661 34.2176 85.0328 33.4923 85.0328C32.767 85.0328 32.1163 85.1661 31.5403 85.4328C30.9643 85.6995 30.4736 86.0568 30.0683 86.5048C29.6736 86.9528 29.3696 87.4755 29.1563 88.0728C28.943 88.6595 28.8363 89.2781 28.8363 89.9288C28.8363 90.5795 28.943 91.2035 29.1563 91.8008C29.3696 92.3875 29.6736 92.9048 30.0683 93.3528C30.4736 93.8008 30.9643 94.1581 31.5403 94.4248C32.1163 94.6915 32.767 94.8248 33.4923 94.8248C34.2176 94.8248 34.8683 94.6915 35.4443 94.4248C36.0203 94.1581 36.5056 93.8008 36.9003 93.3528C37.3056 92.9048 37.615 92.3875 37.8283 91.8008C38.0416 91.2035 38.1483 90.5795 38.1483 89.9288ZM39.3963 89.9288C39.3963 90.7928 39.247 91.5875 38.9483 92.3128C38.6496 93.0381 38.2336 93.6675 37.7003 94.2008C37.1776 94.7235 36.5536 95.1341 35.8283 95.4328C35.1136 95.7315 34.335 95.8808 33.4923 95.8808C32.6496 95.8808 31.8656 95.7315 31.1403 95.4328C30.4256 95.1341 29.8016 94.7235 29.2683 94.2008C28.7456 93.6675 28.335 93.0381 28.0363 92.3128C27.7376 91.5875 27.5883 90.7928 27.5883 89.9288C27.5883 89.0648 27.7376 88.2701 28.0363 87.5448C28.335 86.8195 28.7456 86.1955 29.2683 85.6728C29.8016 85.1395 30.4256 84.7235 31.1403 84.4248C31.8656 84.1261 32.6496 83.9768 33.4923 83.9768C34.335 83.9768 35.1136 84.1261 35.8283 84.4248C36.5536 84.7235 37.1776 85.1395 37.7003 85.6728C38.2336 86.1955 38.6496 86.8195 38.9483 87.5448C39.247 88.2701 39.3963 89.0648 39.3963 89.9288ZM47.3052 89.2728H49.3532C49.8652 89.2728 50.2972 89.2195 50.6492 89.1128C51.0119 89.0061 51.2999 88.8675 51.5132 88.6968C51.7265 88.5155 51.8812 88.3075 51.9772 88.0728C52.0732 87.8275 52.1212 87.5661 52.1212 87.2888C52.1212 87.0221 52.0732 86.7715 51.9772 86.5368C51.8812 86.2915 51.7265 86.0781 51.5132 85.8968C51.2999 85.7155 51.0119 85.5768 50.6492 85.4808C50.2972 85.3741 49.8652 85.3208 49.3532 85.3208H47.3052V89.2728ZM47.3052 95.5928H46.1532V84.2648H49.6412C50.7932 84.2648 51.6999 84.5155 52.3612 85.0168C53.0332 85.5181 53.3692 86.2755 53.3692 87.2888C53.3692 88.0781 53.1185 88.7448 52.6172 89.2888C52.1265 89.8221 51.4119 90.1315 50.4732 90.2168L53.7372 95.5928H52.3292L49.2252 90.3288H47.3052V95.5928ZM65.4296 89.9288C65.4296 89.2781 65.3229 88.6595 65.1096 88.0728C64.8962 87.4755 64.5869 86.9528 64.1816 86.5048C63.7869 86.0568 63.3016 85.6995 62.7256 85.4328C62.1496 85.1661 61.4989 85.0328 60.7736 85.0328C60.0482 85.0328 59.3976 85.1661 58.8216 85.4328C58.2456 85.6995 57.7549 86.0568 57.3496 86.5048C56.9549 86.9528 56.6509 87.4755 56.4376 88.0728C56.2242 88.6595 56.1176 89.2781 56.1176 89.9288C56.1176 90.5795 56.2242 91.2035 56.4376 91.8008C56.6509 92.3875 56.9549 92.9048 57.3496 93.3528C57.7549 93.8008 58.2456 94.1581 58.8216 94.4248C59.3976 94.6915 60.0482 94.8248 60.7736 94.8248C61.4989 94.8248 62.1496 94.6915 62.7256 94.4248C63.3016 94.1581 63.7869 93.8008 64.1816 93.3528C64.5869 92.9048 64.8962 92.3875 65.1096 91.8008C65.3229 91.2035 65.4296 90.5795 65.4296 89.9288ZM66.6776 89.9288C66.6776 90.7928 66.5282 91.5875 66.2296 92.3128C65.9309 93.0381 65.5149 93.6675 64.9816 94.2008C64.4589 94.7235 63.8349 95.1341 63.1096 95.4328C62.3949 95.7315 61.6162 95.8808 60.7736 95.8808C59.9309 95.8808 59.1469 95.7315 58.4216 95.4328C57.7069 95.1341 57.0829 94.7235 56.5496 94.2008C56.0269 93.6675 55.6162 93.0381 55.3176 92.3128C55.0189 91.5875 54.8696 90.7928 54.8696 89.9288C54.8696 89.0648 55.0189 88.2701 55.3176 87.5448C55.6162 86.8195 56.0269 86.1955 56.5496 85.6728C57.0829 85.1395 57.7069 84.7235 58.4216 84.4248C59.1469 84.1261 59.9309 83.9768 60.7736 83.9768C61.6162 83.9768 62.3949 84.1261 63.1096 84.4248C63.8349 84.7235 64.4589 85.1395 64.9816 85.6728C65.5149 86.1955 65.9309 86.8195 66.2296 87.5448C66.5282 88.2701 66.6776 89.0648 66.6776 89.9288ZM72.6133 95.5928H71.4613V85.3208H67.6693V84.2648H76.4053V85.3208H72.6133V95.5928ZM78.5631 91.5608H83.4751L81.0271 85.6088L78.5631 91.5608ZM76.8831 95.5928H75.5391L80.4671 84.2648H81.5871L86.5151 95.5928H85.1711L83.9231 92.6168H78.1311L76.8831 95.5928ZM90.5821 95.5928H89.4301V85.3208H85.6381V84.2648H94.3741V85.3208H90.5821V95.5928ZM97.2896 94.5368H103.354V95.5928H96.1376V84.2648H103.162V85.3208H97.2896V89.1768H102.778V90.2328H97.2896V94.5368Z" fill="white"/>
<path d="M99.9883 53.1983L107.67 60.9119L99.9883 68.6256" stroke="white" stroke-width="1.22" stroke-miterlimit="10" stroke-linecap="round" stroke-linejoin="round"/>
<path d="M80.293 60.912L107.719 60.912" stroke="white" stroke-width="1.22" stroke-miterlimit="10" stroke-linecap="round" stroke-linejoin="round"/>
<path d="M22.7305 53.1983L15.0485 60.9119L22.7305 68.6256" stroke="white" stroke-width="1.22" stroke-miterlimit="10" stroke-linecap="round" stroke-linejoin="round"/>
<path d="M42.4258 60.912L14.9994 60.912" stroke="white" stroke-width="1.22" stroke-miterlimit="10" stroke-linecap="round" stroke-linejoin="round"/>
<circle cx="61.3602" cy="60.9119" r="7.10367" stroke="white" stroke-width="1.22"/>
<defs>
<filter id="filter0_b_1413_20545" x="-11.0909" y="-11.0909" width="144.182" height="144.182" filterUnits="userSpaceOnUse" color-interpolation-filters="sRGB">
<feFlood flood-opacity="0" result="BackgroundImageFix"/>
<feGaussianBlur in="BackgroundImageFix" stdDeviation="5.54545"/>
<feComposite in2="SourceAlpha" operator="in" result="effect1_backgroundBlur_1413_20545"/>
<feBlend mode="normal" in="SourceGraphic" in2="effect1_backgroundBlur_1413_20545" result="shape"/>
</filter>
</defs>
</svg>
