<svg width="61" height="60" viewBox="0 0 61 60" fill="none" xmlns="http://www.w3.org/2000/svg">
<rect x="0.171875" y="0.655273" width="60.7779" height="58.6394" fill="#323232"/>
<path fill-rule="evenodd" clip-rule="evenodd" d="M45.3561 26.6236H46.041C47.1739 26.6236 48.0958 27.4534 48.0958 28.4729V30.9387C48.0958 31.9582 47.1739 32.788 46.041 32.788H45.3561V35.562C45.3561 36.9217 44.1267 38.0277 42.6164 38.0277C42.0882 38.0277 41.5943 37.8926 41.1759 37.6586C40.8958 38.752 39.8047 39.5688 38.5068 39.5688C36.9959 39.5688 35.7663 38.4628 35.7663 37.103V32.788H25.3569V37.103C25.3569 38.4628 24.1272 39.5688 22.6172 39.5688H22.6164C21.3185 39.5688 20.2274 38.752 19.9473 37.6586C19.5288 37.8926 19.0349 38.0277 18.5068 38.0277C16.9965 38.0277 15.7671 36.9217 15.7671 35.562V32.788H15.0821C13.9493 32.788 13.0273 31.9582 13.0273 30.9387V28.4729C13.0273 27.4534 13.9493 26.6236 15.0821 26.6236H15.7671V23.8496C15.7671 22.4898 16.9965 21.3839 18.5068 21.3839C19.0349 21.3839 19.5288 21.519 19.9473 21.753C20.2274 20.6596 21.3185 19.8428 22.6164 19.8428C24.1272 19.8428 25.3569 20.9488 25.3569 22.3085V26.6236H35.7663V22.3085C35.7663 20.9488 36.9959 19.8428 38.506 19.8428H38.5068C39.8047 19.8428 40.8958 20.6596 41.1759 21.753C41.5943 21.519 42.0882 21.3839 42.6164 21.3839C44.1267 21.3839 45.3561 22.4898 45.3561 23.8496V26.6236ZM15.0822 31.5554H15.7671V27.8564H15.0822C14.7047 27.8564 14.3973 28.1331 14.3973 28.4729V30.9389C14.3973 31.2787 14.7047 31.5554 15.0822 31.5554ZM19.8767 35.5619C19.8767 35.9021 19.7234 36.2103 19.4754 36.4336C19.2274 36.6568 18.8849 36.7948 18.5068 36.7948C17.7513 36.7948 17.137 36.2419 17.137 35.5619V23.8495C17.137 23.1695 17.7513 22.6167 18.5068 22.6167C19.2624 22.6167 19.8767 23.1695 19.8767 23.8495V35.5619ZM22.6172 38.3358C23.372 38.3358 23.9871 37.783 23.9871 37.103V22.3085C23.9871 21.6284 23.372 21.0756 22.6172 21.0756C21.8617 21.0756 21.2466 21.6284 21.2466 22.3085V37.103C21.2466 37.783 21.8617 38.3358 22.6164 38.3358H22.6172ZM35.7639 29.0894H30.9742C30.5962 29.0894 30.2893 29.3656 30.2893 29.7059C30.2893 30.0462 30.5962 30.3224 30.9742 30.3224H35.7639V31.5554H25.3551V27.8564H35.7639V29.0894ZM38.5077 38.3358C39.2632 38.3358 39.8783 37.783 39.8783 37.103V22.3085C39.8783 21.6284 39.2632 21.0756 38.5085 21.0756H38.5077C37.7529 21.0756 37.1378 21.6284 37.1378 22.3085V29.6742C37.1373 29.6607 37.1359 29.6472 37.1338 29.6342V29.7772C37.1359 29.7642 37.1373 29.7507 37.1378 29.7373V37.103C37.1378 37.783 37.7529 38.3358 38.5077 38.3358ZM43.9863 35.5619C43.9863 36.2419 43.372 36.7948 42.6164 36.7948C41.8609 36.7948 41.2466 36.2419 41.2466 35.5619V23.8495C41.2466 23.1695 41.8609 22.6167 42.6164 22.6167C43.372 22.6167 43.9863 23.1695 43.9863 23.8495V35.5619ZM46.0411 31.5554C46.4186 31.5554 46.726 31.2787 46.726 30.9389V28.4729C46.726 28.1331 46.4186 27.8564 46.0411 27.8564H45.3562V31.5554H46.0411Z" fill="white"/>
<path d="M28.2545 30.5281C27.9997 30.5281 27.793 30.3441 27.793 30.1171C27.793 29.89 27.9993 29.7061 28.2541 29.7061H28.2545C28.5093 29.7061 28.7158 29.89 28.7158 30.1171C28.7158 30.3441 28.5093 30.5281 28.2545 30.5281Z" fill="white"/>
</svg>
