<svg width="32" height="32" viewBox="0 0 32 32" fill="none" xmlns="http://www.w3.org/2000/svg">
<path d="M31.6654 12.8577H16.6296V18.9104H25.2191C24.8487 20.8669 23.7251 22.5217 22.0314 23.6303C20.5998 24.5678 18.7729 25.1221 16.6255 25.1221C12.4681 25.1221 8.95154 22.3709 7.69475 18.674C7.37847 17.7366 7.19536 16.7339 7.19536 15.7027C7.19536 14.6715 7.37847 13.6688 7.69475 12.7314C8.9557 9.03861 12.4722 6.28738 16.6296 6.28738C18.9726 6.28738 21.0742 7.0781 22.7305 8.62695L27.3082 4.13938C24.5408 1.61232 20.9327 0.0634766 16.6296 0.0634766C10.3914 0.0634766 4.99389 3.56875 2.36794 8.67993C1.28593 10.7912 0.670013 13.1797 0.670013 15.7068C0.670013 18.2338 1.28593 20.6182 2.36794 22.7296C4.99389 27.8407 10.3914 31.346 16.6296 31.346C20.941 31.346 24.5533 29.9439 27.1917 27.5554C30.2089 24.8327 31.9526 20.822 31.9526 16.0573C31.9526 14.9487 31.8527 13.8849 31.6654 12.8577Z" fill="white"/>
</svg>
