<svg width="78" height="78" viewBox="0 0 78 78" fill="none" xmlns="http://www.w3.org/2000/svg">
<circle cx="39" cy="39" r="39" fill="white"/>
<path d="M54.9682 38.0517C54.9552 36.8957 54.9508 35.7312 54.9465 34.5709H51.4278C51.4147 35.7269 51.406 36.8872 51.3973 38.0517C50.2128 38.056 49.037 38.0646 47.8612 38.0774V41.5412C49.037 41.554 50.2215 41.5626 51.3973 41.5754C51.4104 42.7314 51.4104 43.8917 51.4191 45.0477H54.9421C54.9465 43.8917 54.9552 42.7314 54.9639 41.5668C56.1484 41.554 57.3242 41.5497 58.5 41.5369V38.0731C57.3286 38.0646 56.144 38.0646 54.9682 38.0517ZM31.8877 38.0689C31.8834 39.4518 31.8877 40.839 31.8921 42.2219C34.2524 42.299 36.617 42.2647 38.9774 42.299C37.9366 47.4496 30.8164 49.1194 27.0495 45.7542C23.1737 42.8042 23.3566 36.3348 27.3848 33.5947C30.2024 31.3854 34.2045 31.9292 37.022 33.843C38.1282 32.8369 39.1646 31.7579 40.1619 30.6447C37.819 28.808 34.9448 27.4978 31.8877 27.6348C25.5036 27.425 19.6376 32.9225 19.5331 39.2035C19.1237 44.337 22.5553 49.3677 27.3979 51.1831C32.223 53.0113 38.4112 51.7654 41.4944 47.501C43.5281 44.8079 43.968 41.3399 43.7285 38.0817C39.7786 38.0517 35.8332 38.056 31.8877 38.0689Z" fill="#222222"/>
</svg>
