<svg width="22" height="22" viewBox="0 0 22 22" fill="none" xmlns="http://www.w3.org/2000/svg">
<path d="M19.6 6.55417H17.6058C18.1309 6.13827 18.4599 5.50061 18.4599 4.81609V3.01795C18.4599 1.76319 17.4249 0.81993 16.2599 0.81993H15.4C14.1445 0.81993 13.2 1.85359 13.2 3.01795V4.81609C13.2 5.54566 13.5303 6.15291 14.0514 6.55417H13.2599C12.8456 6.55417 12.3872 6.68868 11.9875 6.8775C11.7816 6.81387 11.5815 6.81391 11.4123 6.81395L11.4 6.81395H10.54C10.425 6.81395 10.3125 6.83082 10.2164 6.84522L10.2104 6.84612C10.126 6.85876 10.0535 6.86938 9.98445 6.87276C9.58658 6.67835 9.16913 6.53424 8.73993 6.53424H7.95989C8.47571 6.13281 8.79986 5.5182 8.79986 4.79616V2.99802C8.79986 1.74326 7.76488 0.8 6.59986 0.8H5.73993C4.48442 0.8 3.53993 1.83366 3.53993 2.99802V4.79616C3.53993 5.47487 3.87653 6.11338 4.40973 6.53424H2.39996C1.55534 6.53424 0.8 7.21751 0.8 8.13281V13.7273C0.8 14.6426 1.55534 15.3258 2.39996 15.3258H5.59993V19.002C5.59993 20.2567 6.6349 21.2 7.79993 21.2H14.1999C15.4554 21.2 16.3999 20.1663 16.3999 19.002L16.4001 15.3458H19.6C20.5158 15.3458 21.2 14.5915 21.2 13.7472V8.15279C21.2 7.23733 20.4446 6.55417 19.6 6.55417ZM14.4 4.81609V3.01795C14.4 2.46924 14.8503 2.01907 15.4001 2.01907H16.26C16.8097 2.01907 17.2601 2.46921 17.2601 3.01795V4.81609C17.2601 5.3648 16.8098 5.81497 16.26 5.81497H15.3999C14.8502 5.81497 14.4 5.36485 14.4 4.81609ZM9.54 8.95198C9.54 8.40328 9.99031 7.9531 10.5401 7.9531H11.4C11.9497 7.9531 12.4001 8.40325 12.4001 8.95198V10.7501C12.4001 11.2988 11.9498 11.749 11.4 11.749H10.5401C9.99034 11.749 9.54 11.2989 9.54 10.7501V8.95198ZM4.74 4.81609V3.01795C4.74 2.46924 5.19031 2.01907 5.74007 2.01907H6.6C7.14974 2.01907 7.60007 2.46921 7.60007 3.01795V4.81609C7.60007 5.36479 7.14976 5.81497 6.6 5.81497H5.74007C5.17242 5.81497 4.74 5.36702 4.74 4.81609ZM5.64378 14.1466H2.39993C2.17021 14.1466 1.99989 13.9762 1.99989 13.7472V8.15274C1.99989 7.92374 2.17021 7.7533 2.39993 7.7533H8.7084C8.47056 8.10944 8.33988 8.55686 8.33988 9.01181V10.81C8.33988 11.5608 8.71769 12.2046 9.27467 12.608L7.75427 12.6081C6.74331 12.4663 5.91101 13.2134 5.64378 14.1466ZM15.1999 19.002C15.1999 19.5507 14.7496 20.0009 14.1998 20.0009H7.79982C7.25009 20.0009 6.79975 19.5507 6.79975 19.002L6.79989 14.6663C6.79989 14.1176 7.2502 13.6674 7.79996 13.6674H14.2C14.7497 13.6674 15.2 14.1176 15.2 14.6663L15.1999 19.002ZM19.9999 13.7472C19.9999 13.9762 19.8296 14.1467 19.5999 14.1467H16.356C16.0855 13.2009 15.2447 12.4883 14.1999 12.4883H12.7106C13.2514 12.0802 13.5998 11.4171 13.5998 10.6903V8.89215C13.5998 8.41909 13.4591 8.00315 13.2172 7.63636C13.2319 7.63458 13.2458 7.63364 13.2597 7.63364H19.5997C19.8294 7.63364 19.9998 7.80408 19.9998 8.03309L19.9999 13.7472Z" fill="white" stroke="white" stroke-width="0.4"/>
</svg>
