<svg width="17" height="32" viewBox="0 0 17 32" fill="none" xmlns="http://www.w3.org/2000/svg">
<path d="M16.6189 2.22114L3.07004 16.0014L16.6189 29.7817C16.8614 30.0279 16.9972 30.3584 16.9972 30.7026C16.9972 31.0467 16.8614 31.3773 16.6189 31.6235C16.501 31.7427 16.3604 31.8374 16.2052 31.902C16.05 31.9667 15.8834 32 15.7151 32C15.5467 32 15.3801 31.9667 15.2249 31.902C15.0697 31.8374 14.9291 31.7427 14.8112 31.6235L0.394761 16.9637C0.141656 16.7062 6.83606e-07 16.3609 6.99321e-07 16.0014C7.15035e-07 15.6419 0.141656 15.2966 0.394761 15.0392L14.8085 0.379356C14.9264 0.2593 15.0673 0.163879 15.223 0.0987224C15.3787 0.0335674 15.546 1.84379e-06 15.7151 1.85118e-06C15.8841 1.85857e-06 16.0514 0.0335674 16.2071 0.0987224C16.3628 0.163879 16.5037 0.2593 16.6216 0.379356C16.8642 0.625565 17 0.956081 17 1.30025C17 1.64442 16.8642 1.97493 16.6216 2.22114L16.6189 2.22114Z" fill="white"/>
</svg>
