<svg width="11" height="14" viewBox="0 0 11 14" fill="none" xmlns="http://www.w3.org/2000/svg">
<path d="M4.16735 5.97877L5.30748 4.93321C5.61949 4.64697 5.83888 4.27406 5.93751 3.86229C6.03615 3.45052 6.00953 3.01868 5.86107 2.62214L5.37389 1.32157C5.19207 0.836302 4.83205 0.438635 4.3672 0.209613C3.90234 -0.0194078 3.36765 -0.0625434 2.87209 0.088998C1.04874 0.646842 -0.352776 2.34162 0.0786232 4.35464C0.362327 5.67859 0.904763 7.34044 1.93385 9.10907C2.79616 10.5986 3.88097 11.9477 5.15075 13.1096C6.67553 14.4973 8.85377 14.1504 10.2553 12.844C10.631 12.4937 10.8589 12.0133 10.8927 11.5008C10.9265 10.9882 10.7635 10.4821 10.437 10.0856L9.54391 9.00069C9.27474 8.67354 8.91394 8.4343 8.50782 8.3137C8.10171 8.19309 7.66881 8.19662 7.26472 8.32384L5.78988 8.78871C5.73304 8.73027 5.66769 8.66067 5.59544 8.58044C5.29222 8.24499 5.02396 7.87954 4.7948 7.48973C4.57185 7.09629 4.38957 6.68117 4.25076 6.25078C4.22109 6.16069 4.19329 6.07 4.16735 5.97877Z" fill="white"/>
</svg>
