<svg width="10" height="10" viewBox="0 0 10 10" fill="none" xmlns="http://www.w3.org/2000/svg">
<path d="M-0.000976562 4.75C-0.000976562 4.59253 0.0615792 4.4415 0.172929 4.33015C0.284279 4.21881 0.435301 4.15625 0.592773 4.15625H4.15527V0.59375C4.15527 0.436278 4.21783 0.285255 4.32918 0.173905C4.44053 0.0625557 4.59155 0 4.74902 0C4.9065 0 5.05752 0.0625557 5.16887 0.173905C5.28022 0.285255 5.34277 0.436278 5.34277 0.59375V4.15625H8.90527C9.06275 4.15625 9.21377 4.21881 9.32512 4.33015C9.43647 4.4415 9.49902 4.59253 9.49902 4.75C9.49902 4.90747 9.43647 5.0585 9.32512 5.16985C9.21377 5.28119 9.06275 5.34375 8.90527 5.34375H5.34277V8.90625C5.34277 9.06372 5.28022 9.21475 5.16887 9.3261C5.05752 9.43745 4.9065 9.5 4.74902 9.5C4.59155 9.5 4.44053 9.43745 4.32918 9.3261C4.21783 9.21475 4.15527 9.06372 4.15527 8.90625V5.34375H0.592773C0.435301 5.34375 0.284279 5.28119 0.172929 5.16985C0.0615792 5.0585 -0.000976562 4.90747 -0.000976562 4.75Z" fill="white"/>
</svg>
