<svg width="21" height="21" viewBox="0 0 21 21" fill="none" xmlns="http://www.w3.org/2000/svg">
<path d="M19.8124 7.53119L13.7691 6.65291L11.0676 1.17612C10.9939 1.02617 10.8725 0.904782 10.7225 0.830996C10.3464 0.645342 9.88945 0.800054 9.70142 1.17612L6.99992 6.65291L0.956648 7.53119C0.790036 7.555 0.637704 7.63354 0.521076 7.75255C0.380078 7.89747 0.302382 8.09244 0.30506 8.29462C0.307737 8.49679 0.39057 8.68964 0.535357 8.83077L4.90774 13.0937L3.87474 19.1131C3.85052 19.2532 3.86602 19.3972 3.91947 19.5288C3.97293 19.6605 4.06221 19.7746 4.17719 19.8581C4.29217 19.9416 4.42825 19.9912 4.56999 20.0013C4.71174 20.0114 4.85348 19.9816 4.97915 19.9153L10.3845 17.0733L15.7899 19.9153C15.9375 19.9938 16.1089 20.02 16.2731 19.9914C16.6872 19.92 16.9657 19.5273 16.8943 19.1131L15.8613 13.0937L20.2337 8.83077C20.3527 8.71414 20.4313 8.56181 20.4551 8.3952C20.5193 7.97867 20.2289 7.59308 19.8124 7.53119Z" fill="white"/>
</svg>
