<svg width="17" height="32" viewBox="0 0 17 32" fill="none" xmlns="http://www.w3.org/2000/svg">
<path d="M0.381137 2.22114L13.93 16.0014L0.381138 29.7817C0.138577 30.0279 0.00278068 30.3584 0.0027807 30.7026C0.00278071 31.0467 0.138577 31.3773 0.381138 31.6235C0.498952 31.7427 0.639572 31.8374 0.794767 31.902C0.949962 31.9667 1.11661 32 1.28495 32C1.45329 32 1.61994 31.9667 1.77513 31.902C1.93032 31.8374 2.07095 31.7427 2.18876 31.6235L16.6052 16.9637C16.8583 16.7062 17 16.3609 17 16.0014C17 15.6419 16.8583 15.2966 16.6052 15.0392L2.19154 0.379356C2.07364 0.2593 1.93267 0.163879 1.77696 0.0987224C1.62125 0.0335674 1.45396 1.84379e-06 1.28495 1.85118e-06C1.11594 1.85857e-06 0.948641 0.0335674 0.792932 0.0987224C0.637222 0.163879 0.496257 0.2593 0.378355 0.379356C0.135793 0.625565 -1.35697e-06 0.956081 -1.34193e-06 1.30025C-1.32688e-06 1.64442 0.135793 1.97493 0.378355 2.22114L0.381137 2.22114Z" fill="white"/>
</svg>
