<svg width="62" height="60" viewBox="0 0 62 60" fill="none" xmlns="http://www.w3.org/2000/svg">
<rect x="0.734375" y="0.655273" width="60.7779" height="58.6394" fill="#323232"/>
<path fill-rule="evenodd" clip-rule="evenodd" d="M43.5973 38.9121L34.3836 29.706L34.8013 29.2886C35.2169 28.8734 35.7513 28.6264 36.3061 28.5933C37.2476 28.5371 38.1335 28.139 38.8008 27.4723L44.2549 22.0228L43.1641 20.9329L38.9826 25.1108L37.8917 24.0209L42.0732 19.8429L40.9824 18.753L36.801 22.931L35.7101 21.8411L39.8916 17.6631L38.8008 16.5732L33.3467 22.0228C32.6794 22.6895 32.281 23.5747 32.2247 24.5154C32.1915 25.0698 31.9445 25.6037 31.5289 26.0189L31.1112 26.4363L21.2214 16.5547H20.2792L20.0868 17.0432C19.579 18.3324 19.3621 19.6511 19.4595 20.8564C19.5705 22.2304 20.0929 23.4199 20.9703 24.2965L27.1115 30.4327L18.6493 38.8878C17.7471 39.7893 17.7471 41.2561 18.6493 42.1575C19.5963 43.1038 21.0726 43.006 21.9217 42.1575L31.1112 32.9757L40.3249 42.1818C41.3191 43.1751 42.8046 42.9739 43.5973 42.1818C44.4996 41.2804 44.4996 39.8136 43.5973 38.9121ZM32.6208 27.1088C33.3035 26.4267 33.7101 25.5384 33.7658 24.6074C33.7995 24.0433 34.0385 23.5125 34.4387 23.1126L34.6205 22.931L37.893 26.2007L37.7111 26.3824C37.311 26.7822 36.7797 27.0209 36.2152 27.0547C35.2834 27.1103 34.3943 27.5166 33.7117 28.1987L33.294 28.6161L33.2791 28.6012L32.2031 27.5262L32.6208 27.1088ZM19.7403 41.0676C20.0411 41.3681 20.5304 41.3681 20.8311 41.0676L29.2934 32.6123L28.2026 31.5224L19.7403 39.9777C19.4396 40.2781 19.4396 40.767 19.7403 41.0676ZM30.3698 31.5077L22.0617 23.2065C20.8926 22.0383 20.8086 20.2592 21.1814 18.6939L32.1878 29.6911L30.3698 31.5077ZM41.4169 41.0919C41.7177 41.3924 42.2069 41.3924 42.5077 41.0919C42.6534 40.9463 42.7337 40.7528 42.7337 40.5469C42.7337 40.341 42.6534 40.1475 42.5077 40.0019L33.2939 30.7959L32.2031 31.8858L41.4169 41.0919Z" fill="white"/>
</svg>
