<svg width="359" height="33" viewBox="0 0 359 33" fill="none" xmlns="http://www.w3.org/2000/svg">
<path d="M158.176 10.008C157.84 9.464 157.392 9.072 156.832 8.832C156.272 8.576 155.688 8.448 155.08 8.448C154.632 8.448 154.192 8.504 153.76 8.616C153.328 8.728 152.936 8.896 152.584 9.12C152.248 9.344 151.976 9.64 151.768 10.008C151.56 10.376 151.456 10.808 151.456 11.304C151.456 11.688 151.512 12.032 151.624 12.336C151.752 12.624 151.952 12.888 152.224 13.128C152.496 13.368 152.864 13.592 153.328 13.8C153.792 14.008 154.36 14.216 155.032 14.424C155.688 14.632 156.32 14.856 156.928 15.096C157.552 15.336 158.096 15.64 158.56 16.008C159.04 16.376 159.416 16.84 159.688 17.4C159.976 17.944 160.12 18.632 160.12 19.464C160.12 20.312 159.952 21.048 159.616 21.672C159.28 22.296 158.832 22.816 158.272 23.232C157.728 23.632 157.096 23.928 156.376 24.12C155.656 24.328 154.912 24.432 154.144 24.432C153.648 24.432 153.152 24.384 152.656 24.288C152.16 24.208 151.68 24.08 151.216 23.904C150.768 23.712 150.344 23.472 149.944 23.184C149.544 22.88 149.2 22.512 148.912 22.08L150.64 20.664C151.008 21.288 151.52 21.76 152.176 22.08C152.832 22.4 153.528 22.56 154.264 22.56C154.696 22.56 155.128 22.496 155.56 22.368C156.008 22.24 156.408 22.056 156.76 21.816C157.112 21.56 157.4 21.248 157.624 20.88C157.848 20.512 157.96 20.088 157.96 19.608C157.96 19.08 157.872 18.656 157.696 18.336C157.52 18 157.248 17.712 156.88 17.472C156.512 17.232 156.048 17.016 155.488 16.824C154.928 16.632 154.272 16.408 153.52 16.152C152.912 15.96 152.352 15.744 151.84 15.504C151.328 15.248 150.88 14.944 150.496 14.592C150.128 14.224 149.832 13.792 149.608 13.296C149.4 12.784 149.296 12.176 149.296 11.472C149.296 10.656 149.456 9.944 149.776 9.336C150.096 8.728 150.528 8.224 151.072 7.824C151.616 7.408 152.232 7.096 152.92 6.888C153.608 6.68 154.328 6.576 155.08 6.576C156.04 6.576 156.912 6.728 157.696 7.032C158.496 7.32 159.208 7.832 159.832 8.568L158.176 10.008ZM175.16 24H173.312L170.12 15.36H170.072L167.24 24H165.32L161.672 12.768H163.736L166.304 21.408H166.352L169.256 12.768H171.224L174.176 21.408H174.224L176.768 12.768H178.784L175.16 24ZM181.069 12.768H182.941V24H181.069V12.768ZM180.637 8.376C180.637 8.008 180.765 7.688 181.021 7.416C181.293 7.144 181.621 7.008 182.005 7.008C182.389 7.008 182.709 7.144 182.965 7.416C183.237 7.688 183.373 8.008 183.373 8.376C183.373 8.776 183.245 9.104 182.989 9.36C182.733 9.616 182.405 9.744 182.005 9.744C181.605 9.744 181.277 9.616 181.021 9.36C180.765 9.104 180.637 8.776 180.637 8.376ZM186.571 12.768H188.443V14.4H188.491C189.003 13.792 189.595 13.32 190.267 12.984C190.955 12.648 191.707 12.48 192.523 12.48C193.403 12.48 194.203 12.632 194.923 12.936C195.659 13.224 196.283 13.632 196.795 14.16C197.307 14.688 197.707 15.312 197.995 16.032C198.283 16.752 198.427 17.536 198.427 18.384C198.427 19.232 198.283 20.016 197.995 20.736C197.707 21.456 197.307 22.08 196.795 22.608C196.299 23.136 195.707 23.552 195.019 23.856C194.331 24.144 193.595 24.288 192.811 24.288C191.803 24.288 190.915 24.072 190.147 23.64C189.395 23.192 188.843 22.648 188.491 22.008H188.443V29.472H186.571V12.768ZM188.443 18.384C188.443 18.976 188.531 19.528 188.707 20.04C188.899 20.536 189.171 20.976 189.523 21.36C189.875 21.728 190.291 22.024 190.771 22.248C191.267 22.456 191.819 22.56 192.427 22.56C193.035 22.56 193.579 22.456 194.059 22.248C194.555 22.024 194.979 21.728 195.331 21.36C195.683 20.976 195.947 20.536 196.123 20.04C196.315 19.528 196.411 18.976 196.411 18.384C196.411 17.792 196.315 17.248 196.123 16.752C195.947 16.24 195.683 15.8 195.331 15.432C194.979 15.048 194.555 14.752 194.059 14.544C193.579 14.32 193.035 14.208 192.427 14.208C191.819 14.208 191.267 14.32 190.771 14.544C190.291 14.752 189.875 15.048 189.523 15.432C189.171 15.8 188.899 16.24 188.707 16.752C188.531 17.248 188.443 17.792 188.443 18.384ZM211.371 21.96C210.699 22.824 209.963 23.432 209.163 23.784C208.363 24.12 207.435 24.288 206.379 24.288C205.499 24.288 204.707 24.136 204.003 23.832C203.299 23.512 202.699 23.088 202.203 22.56C201.723 22.032 201.347 21.408 201.075 20.688C200.819 19.968 200.691 19.2 200.691 18.384C200.691 17.52 200.835 16.728 201.123 16.008C201.411 15.272 201.811 14.648 202.323 14.136C202.835 13.608 203.443 13.2 204.147 12.912C204.851 12.624 205.619 12.48 206.451 12.48C207.235 12.48 207.955 12.616 208.611 12.888C209.267 13.144 209.827 13.528 210.291 14.04C210.771 14.536 211.139 15.152 211.395 15.888C211.651 16.608 211.779 17.432 211.779 18.36V18.96H202.707C202.739 19.44 202.851 19.904 203.043 20.352C203.251 20.784 203.515 21.168 203.835 21.504C204.155 21.824 204.531 22.08 204.963 22.272C205.395 22.464 205.867 22.56 206.379 22.56C207.195 22.56 207.883 22.416 208.443 22.128C209.003 21.84 209.507 21.416 209.955 20.856L211.371 21.96ZM209.763 17.376C209.731 16.416 209.419 15.648 208.827 15.072C208.235 14.496 207.419 14.208 206.379 14.208C205.339 14.208 204.499 14.496 203.859 15.072C203.219 15.648 202.835 16.416 202.707 17.376H209.763ZM227.498 14.352H224.186V19.968C224.186 20.336 224.194 20.68 224.21 21C224.226 21.304 224.29 21.576 224.402 21.816C224.514 22.04 224.682 22.224 224.906 22.368C225.13 22.496 225.45 22.56 225.866 22.56C226.138 22.56 226.418 22.528 226.706 22.464C226.994 22.4 227.266 22.304 227.522 22.176L227.594 23.88C227.274 24.024 226.914 24.128 226.514 24.192C226.13 24.256 225.762 24.288 225.41 24.288C224.738 24.288 224.202 24.2 223.802 24.024C223.402 23.848 223.09 23.6 222.866 23.28C222.642 22.96 222.49 22.568 222.41 22.104C222.346 21.624 222.314 21.096 222.314 20.52V14.352H219.866V12.768H222.314V9.576H224.186V12.768H227.498V14.352ZM229.144 18.384C229.144 17.504 229.296 16.704 229.6 15.984C229.904 15.264 230.32 14.648 230.848 14.136C231.376 13.608 232.008 13.2 232.744 12.912C233.48 12.624 234.28 12.48 235.144 12.48C236.008 12.48 236.808 12.624 237.544 12.912C238.28 13.2 238.912 13.608 239.44 14.136C239.968 14.648 240.384 15.264 240.688 15.984C240.992 16.704 241.144 17.504 241.144 18.384C241.144 19.264 240.992 20.064 240.688 20.784C240.384 21.504 239.968 22.128 239.44 22.656C238.912 23.168 238.28 23.568 237.544 23.856C236.808 24.144 236.008 24.288 235.144 24.288C234.28 24.288 233.48 24.144 232.744 23.856C232.008 23.568 231.376 23.168 230.848 22.656C230.32 22.128 229.904 21.504 229.6 20.784C229.296 20.064 229.144 19.264 229.144 18.384ZM231.16 18.384C231.16 18.976 231.248 19.528 231.424 20.04C231.616 20.536 231.888 20.976 232.24 21.36C232.592 21.728 233.008 22.024 233.488 22.248C233.984 22.456 234.536 22.56 235.144 22.56C235.752 22.56 236.296 22.456 236.776 22.248C237.272 22.024 237.696 21.728 238.048 21.36C238.4 20.976 238.664 20.536 238.84 20.04C239.032 19.528 239.128 18.976 239.128 18.384C239.128 17.792 239.032 17.248 238.84 16.752C238.664 16.24 238.4 15.8 238.048 15.432C237.696 15.048 237.272 14.752 236.776 14.544C236.296 14.32 235.752 14.208 235.144 14.208C234.536 14.208 233.984 14.32 233.488 14.544C233.008 14.752 232.592 15.048 232.24 15.432C231.888 15.8 231.616 16.24 231.424 16.752C231.248 17.248 231.16 17.792 231.16 18.384ZM250.961 21.048C251.329 21.512 251.729 21.88 252.161 22.152C252.609 22.424 253.169 22.56 253.841 22.56C254.129 22.56 254.417 22.528 254.705 22.464C255.009 22.4 255.281 22.296 255.521 22.152C255.761 22.008 255.953 21.832 256.097 21.624C256.241 21.4 256.313 21.136 256.313 20.832C256.313 20.528 256.241 20.28 256.097 20.088C255.969 19.896 255.793 19.736 255.569 19.608C255.345 19.464 255.089 19.352 254.801 19.272C254.513 19.192 254.217 19.12 253.913 19.056C253.385 18.944 252.881 18.816 252.401 18.672C251.921 18.528 251.497 18.344 251.129 18.12C250.777 17.88 250.489 17.576 250.265 17.208C250.057 16.84 249.953 16.368 249.953 15.792C249.953 15.248 250.073 14.768 250.313 14.352C250.553 13.936 250.873 13.592 251.273 13.32C251.673 13.048 252.121 12.84 252.617 12.696C253.113 12.552 253.625 12.48 254.153 12.48C254.953 12.48 255.689 12.64 256.361 12.96C257.049 13.28 257.585 13.8 257.969 14.52L256.409 15.552C256.169 15.152 255.849 14.832 255.449 14.592C255.065 14.336 254.593 14.208 254.033 14.208C253.777 14.208 253.513 14.24 253.241 14.304C252.985 14.368 252.753 14.464 252.545 14.592C252.337 14.72 252.161 14.888 252.017 15.096C251.889 15.288 251.825 15.512 251.825 15.768C251.825 16.008 251.897 16.216 252.041 16.392C252.201 16.552 252.409 16.696 252.665 16.824C252.937 16.952 253.241 17.064 253.577 17.16C253.929 17.256 254.289 17.336 254.657 17.4C255.153 17.496 255.625 17.624 256.073 17.784C256.521 17.928 256.913 18.128 257.249 18.384C257.585 18.64 257.849 18.96 258.041 19.344C258.233 19.728 258.329 20.2 258.329 20.76C258.329 21.4 258.201 21.944 257.945 22.392C257.689 22.84 257.345 23.208 256.913 23.496C256.497 23.768 256.017 23.968 255.473 24.096C254.945 24.224 254.401 24.288 253.841 24.288C252.881 24.288 252.049 24.144 251.345 23.856C250.657 23.552 250.033 23 249.473 22.2L250.961 21.048ZM270.972 21.96C270.3 22.824 269.564 23.432 268.764 23.784C267.964 24.12 267.036 24.288 265.98 24.288C265.1 24.288 264.308 24.136 263.604 23.832C262.9 23.512 262.3 23.088 261.804 22.56C261.324 22.032 260.948 21.408 260.676 20.688C260.42 19.968 260.292 19.2 260.292 18.384C260.292 17.52 260.436 16.728 260.724 16.008C261.012 15.272 261.412 14.648 261.924 14.136C262.436 13.608 263.044 13.2 263.748 12.912C264.452 12.624 265.22 12.48 266.052 12.48C266.836 12.48 267.556 12.616 268.212 12.888C268.868 13.144 269.428 13.528 269.892 14.04C270.372 14.536 270.74 15.152 270.996 15.888C271.252 16.608 271.38 17.432 271.38 18.36V18.96H262.308C262.34 19.44 262.452 19.904 262.644 20.352C262.852 20.784 263.116 21.168 263.436 21.504C263.756 21.824 264.132 22.08 264.564 22.272C264.996 22.464 265.468 22.56 265.98 22.56C266.796 22.56 267.484 22.416 268.044 22.128C268.604 21.84 269.108 21.416 269.556 20.856L270.972 21.96ZM269.364 17.376C269.332 16.416 269.02 15.648 268.428 15.072C267.836 14.496 267.02 14.208 265.98 14.208C264.94 14.208 264.1 14.496 263.46 15.072C262.82 15.648 262.436 16.416 262.308 17.376H269.364ZM274.444 5.856H276.316V24H274.444V5.856ZM290.074 21.96C289.402 22.824 288.666 23.432 287.866 23.784C287.066 24.12 286.138 24.288 285.082 24.288C284.202 24.288 283.41 24.136 282.706 23.832C282.002 23.512 281.402 23.088 280.906 22.56C280.426 22.032 280.05 21.408 279.778 20.688C279.522 19.968 279.394 19.2 279.394 18.384C279.394 17.52 279.538 16.728 279.826 16.008C280.114 15.272 280.514 14.648 281.026 14.136C281.538 13.608 282.146 13.2 282.85 12.912C283.554 12.624 284.322 12.48 285.154 12.48C285.938 12.48 286.658 12.616 287.314 12.888C287.97 13.144 288.53 13.528 288.994 14.04C289.474 14.536 289.842 15.152 290.098 15.888C290.354 16.608 290.482 17.432 290.482 18.36V18.96H281.41C281.442 19.44 281.554 19.904 281.746 20.352C281.954 20.784 282.218 21.168 282.538 21.504C282.858 21.824 283.234 22.08 283.666 22.272C284.098 22.464 284.57 22.56 285.082 22.56C285.898 22.56 286.586 22.416 287.146 22.128C287.706 21.84 288.21 21.416 288.658 20.856L290.074 21.96ZM288.466 17.376C288.434 16.416 288.122 15.648 287.53 15.072C286.938 14.496 286.122 14.208 285.082 14.208C284.042 14.208 283.202 14.496 282.562 15.072C281.922 15.648 281.538 16.416 281.41 17.376H288.466ZM301.37 15.576C300.97 15.096 300.538 14.752 300.074 14.544C299.61 14.32 299.098 14.208 298.538 14.208C297.914 14.208 297.362 14.32 296.882 14.544C296.402 14.752 296.002 15.048 295.682 15.432C295.378 15.816 295.146 16.264 294.986 16.776C294.826 17.272 294.746 17.808 294.746 18.384C294.746 18.96 294.834 19.504 295.01 20.016C295.202 20.512 295.458 20.952 295.778 21.336C296.114 21.72 296.514 22.024 296.978 22.248C297.442 22.456 297.962 22.56 298.538 22.56C299.77 22.56 300.722 22.096 301.394 21.168L302.786 22.488C302.242 23.112 301.602 23.568 300.866 23.856C300.13 24.144 299.354 24.288 298.538 24.288C297.674 24.288 296.882 24.144 296.162 23.856C295.442 23.568 294.826 23.16 294.314 22.632C293.818 22.104 293.426 21.48 293.138 20.76C292.866 20.04 292.73 19.248 292.73 18.384C292.73 17.536 292.866 16.752 293.138 16.032C293.426 15.312 293.826 14.688 294.338 14.16C294.85 13.632 295.458 13.224 296.162 12.936C296.882 12.632 297.674 12.48 298.538 12.48C299.37 12.48 300.154 12.624 300.89 12.912C301.642 13.2 302.298 13.648 302.858 14.256L301.37 15.576ZM311.1 14.352H307.788V19.968C307.788 20.336 307.796 20.68 307.812 21C307.828 21.304 307.892 21.576 308.004 21.816C308.116 22.04 308.284 22.224 308.508 22.368C308.732 22.496 309.052 22.56 309.468 22.56C309.74 22.56 310.02 22.528 310.308 22.464C310.596 22.4 310.868 22.304 311.124 22.176L311.196 23.88C310.876 24.024 310.516 24.128 310.116 24.192C309.732 24.256 309.364 24.288 309.012 24.288C308.34 24.288 307.804 24.2 307.404 24.024C307.004 23.848 306.692 23.6 306.468 23.28C306.244 22.96 306.092 22.568 306.012 22.104C305.948 21.624 305.916 21.096 305.916 20.52V14.352H303.468V12.768H305.916V9.576H307.788V12.768H311.1V14.352ZM320.313 21.048C320.681 21.512 321.081 21.88 321.513 22.152C321.961 22.424 322.521 22.56 323.193 22.56C323.481 22.56 323.769 22.528 324.057 22.464C324.361 22.4 324.633 22.296 324.873 22.152C325.113 22.008 325.305 21.832 325.449 21.624C325.593 21.4 325.665 21.136 325.665 20.832C325.665 20.528 325.593 20.28 325.449 20.088C325.321 19.896 325.145 19.736 324.921 19.608C324.697 19.464 324.441 19.352 324.153 19.272C323.865 19.192 323.569 19.12 323.265 19.056C322.737 18.944 322.233 18.816 321.753 18.672C321.273 18.528 320.849 18.344 320.481 18.12C320.129 17.88 319.841 17.576 319.617 17.208C319.409 16.84 319.305 16.368 319.305 15.792C319.305 15.248 319.425 14.768 319.665 14.352C319.905 13.936 320.225 13.592 320.625 13.32C321.025 13.048 321.473 12.84 321.969 12.696C322.465 12.552 322.977 12.48 323.505 12.48C324.305 12.48 325.041 12.64 325.713 12.96C326.401 13.28 326.937 13.8 327.321 14.52L325.761 15.552C325.521 15.152 325.201 14.832 324.801 14.592C324.417 14.336 323.945 14.208 323.385 14.208C323.129 14.208 322.865 14.24 322.593 14.304C322.337 14.368 322.105 14.464 321.897 14.592C321.689 14.72 321.513 14.888 321.369 15.096C321.241 15.288 321.177 15.512 321.177 15.768C321.177 16.008 321.249 16.216 321.393 16.392C321.553 16.552 321.761 16.696 322.017 16.824C322.289 16.952 322.593 17.064 322.929 17.16C323.281 17.256 323.641 17.336 324.009 17.4C324.505 17.496 324.977 17.624 325.425 17.784C325.873 17.928 326.265 18.128 326.601 18.384C326.937 18.64 327.201 18.96 327.393 19.344C327.585 19.728 327.681 20.2 327.681 20.76C327.681 21.4 327.553 21.944 327.297 22.392C327.041 22.84 326.697 23.208 326.265 23.496C325.849 23.768 325.369 23.968 324.825 24.096C324.297 24.224 323.753 24.288 323.193 24.288C322.233 24.288 321.401 24.144 320.697 23.856C320.009 23.552 319.385 23 318.825 22.2L320.313 21.048ZM330.46 12.768H332.332V24H330.46V12.768ZM330.028 8.376C330.028 8.008 330.156 7.688 330.412 7.416C330.684 7.144 331.012 7.008 331.396 7.008C331.78 7.008 332.1 7.144 332.356 7.416C332.628 7.688 332.764 8.008 332.764 8.376C332.764 8.776 332.636 9.104 332.38 9.36C332.124 9.616 331.796 9.744 331.396 9.744C330.996 9.744 330.668 9.616 330.412 9.36C330.156 9.104 330.028 8.776 330.028 8.376ZM335.001 22.536L341.601 14.352H335.289V12.768H344.049V14.208L337.449 22.416H344.217V24H335.001V22.536ZM356.753 21.96C356.081 22.824 355.345 23.432 354.545 23.784C353.745 24.12 352.817 24.288 351.761 24.288C350.881 24.288 350.089 24.136 349.385 23.832C348.681 23.512 348.081 23.088 347.585 22.56C347.105 22.032 346.729 21.408 346.457 20.688C346.201 19.968 346.073 19.2 346.073 18.384C346.073 17.52 346.217 16.728 346.505 16.008C346.793 15.272 347.193 14.648 347.705 14.136C348.217 13.608 348.825 13.2 349.529 12.912C350.233 12.624 351.001 12.48 351.833 12.48C352.617 12.48 353.337 12.616 353.993 12.888C354.649 13.144 355.209 13.528 355.673 14.04C356.153 14.536 356.521 15.152 356.777 15.888C357.033 16.608 357.161 17.432 357.161 18.36V18.96H348.089C348.121 19.44 348.233 19.904 348.425 20.352C348.633 20.784 348.897 21.168 349.217 21.504C349.537 21.824 349.913 22.08 350.345 22.272C350.777 22.464 351.249 22.56 351.761 22.56C352.577 22.56 353.265 22.416 353.825 22.128C354.385 21.84 354.889 21.416 355.337 20.856L356.753 21.96ZM355.145 17.376C355.113 16.416 354.801 15.648 354.209 15.072C353.617 14.496 352.801 14.208 351.761 14.208C350.721 14.208 349.881 14.496 349.241 15.072C348.601 15.648 348.217 16.416 348.089 17.376H355.145Z" fill="white"/>
<path d="M115 8L124 17L115 26" stroke="white" stroke-width="1.65789" stroke-miterlimit="10" stroke-linecap="round" stroke-linejoin="round"/>
<path d="M1 17L122 17" stroke="white" stroke-width="1.65789" stroke-miterlimit="10" stroke-linecap="round" stroke-linejoin="round"/>
</svg>
