<svg width="78" height="78" viewBox="0 0 78 78" fill="none" xmlns="http://www.w3.org/2000/svg">
<circle cx="39" cy="39" r="39" fill="white"/>
<path d="M52 31.7525C51.0445 32.1772 50.0153 32.4632 48.9363 32.5932C50.0392 31.9323 50.882 30.888 51.2828 29.6422C50.2515 30.2532 49.1097 30.6973 47.8942 30.9357C46.9235 29.8978 45.5347 29.25 44.0028 29.25C40.5578 29.25 38.0272 32.4632 38.805 35.7998C34.3742 35.5767 30.4417 33.4533 27.8113 30.2272C26.4138 32.6235 27.0877 35.7608 29.4623 37.349C28.5892 37.3208 27.768 37.0803 27.0487 36.6817C26.9902 39.1517 28.7625 41.4635 31.3278 41.9792C30.5782 42.1828 29.7548 42.2305 28.9185 42.0702C29.5967 44.1892 31.5705 45.7297 33.9018 45.773C31.655 47.5323 28.8318 48.3188 26 47.9852C28.3617 49.4997 31.1632 50.3815 34.1748 50.3815C44.0808 50.3815 49.6752 42.016 49.3372 34.5128C50.3815 33.7632 51.285 32.8228 52 31.7525Z" fill="#222222"/>
</svg>
