<svg width="25" height="19" viewBox="0 0 25 19" fill="none" xmlns="http://www.w3.org/2000/svg">
<path d="M4.85871 4.59506C4.85871 3.77409 5.19214 2.98674 5.78565 2.40622C6.37915 1.8257 7.18412 1.49957 8.02347 1.49957C8.86281 1.49957 9.66778 1.8257 10.2613 2.40622C10.8548 2.98674 11.1882 3.77409 11.1882 4.59506C11.1882 5.41604 10.8548 6.20339 10.2613 6.78391C9.66778 7.36443 8.86281 7.69056 8.02347 7.69056C7.18412 7.69056 6.37915 7.36443 5.78565 6.78391C5.19214 6.20339 4.85871 5.41604 4.85871 4.59506ZM8.02347 0.0925293C6.8026 0.0925293 5.63174 0.566902 4.76846 1.41129C3.90517 2.25568 3.42019 3.40092 3.42019 4.59506C3.42019 5.78921 3.90517 6.93445 4.76846 7.77884C5.63174 8.62323 6.8026 9.0976 8.02347 9.0976C9.24433 9.0976 10.4152 8.62323 11.2785 7.77884C12.1418 6.93445 12.6267 5.78921 12.6267 4.59506C12.6267 3.40092 12.1418 2.25568 11.2785 1.41129C10.4152 0.566902 9.24433 0.0925293 8.02347 0.0925293ZM16.3669 5.7207C16.3669 5.19826 16.5791 4.69722 16.9568 4.3278C17.3345 3.95838 17.8467 3.75084 18.3808 3.75084C18.915 3.75084 19.4272 3.95838 19.8049 4.3278C20.1826 4.69722 20.3948 5.19826 20.3948 5.7207C20.3948 6.24314 20.1826 6.74418 19.8049 7.1136C19.4272 7.48302 18.915 7.69056 18.3808 7.69056C17.8467 7.69056 17.3345 7.48302 16.9568 7.1136C16.5791 6.74418 16.3669 6.24314 16.3669 5.7207ZM18.3808 2.3438C17.4652 2.3438 16.587 2.69958 15.9396 3.33287C15.2921 3.96616 14.9284 4.82509 14.9284 5.7207C14.9284 6.61631 15.2921 7.47524 15.9396 8.10853C16.587 8.74182 17.4652 9.0976 18.3808 9.0976C19.2965 9.0976 20.1746 8.74182 20.8221 8.10853C21.4696 7.47524 21.8333 6.61631 21.8333 5.7207C21.8333 4.82509 21.4696 3.96616 20.8221 3.33287C20.1746 2.69958 19.2965 2.3438 18.3808 2.3438ZM18.3808 17.5399C17.1288 17.5399 16.1241 17.3417 15.322 17.0209L15.429 16.8859C15.7132 16.5195 15.9313 16.1525 16.0982 15.8047C16.6851 16.0045 17.4308 16.1328 18.3803 16.1328C20.8407 16.1328 21.9323 15.27 22.4444 14.5395C22.736 14.1197 22.9187 13.6368 22.9766 13.1324C22.9799 13.0995 22.9822 13.0665 22.9836 13.0334V12.8966C22.9836 12.5083 22.6613 12.1931 22.2643 12.1931H16.5758C16.4576 11.6729 16.2095 11.1895 15.8536 10.786H22.2649C22.8371 10.786 23.386 11.0084 23.7906 11.4042C24.1953 11.8 24.4227 12.3369 24.4227 12.8966V13.0638L24.4209 13.1122C24.4186 13.1516 24.4152 13.2045 24.4094 13.2692C24.3278 14.0097 24.0608 14.7192 23.632 15.3347C22.8121 16.5026 21.2424 17.5399 18.3797 17.5399H18.3808ZM2.70092 10.786C2.12864 10.786 1.5798 11.0084 1.17514 11.4042C0.770474 11.8 0.543137 12.3369 0.543137 12.8966V13.63L0.545438 13.6846C0.54774 13.7296 0.552343 13.7892 0.560399 13.8635C0.577086 14.011 0.608733 14.2136 0.670878 14.4545C0.835784 15.089 1.12929 15.6846 1.53399 16.206C2.54499 17.5095 4.47089 18.6655 8.02347 18.6655C11.5766 18.6655 13.5025 17.5095 14.5124 16.206C14.9173 15.6844 15.211 15.0886 15.3761 14.4539C15.4382 14.2136 15.4698 14.011 15.4865 13.863C15.4952 13.7855 15.501 13.7078 15.5038 13.63V12.8966C15.5038 12.6194 15.448 12.345 15.3395 12.0889C15.2311 11.8329 15.0722 11.6002 14.8718 11.4042C14.6714 11.2082 14.4336 11.0528 14.1718 10.9467C13.91 10.8406 13.6294 10.786 13.346 10.786H2.70092ZM1.98224 13.6136L1.98166 13.5956V12.8966C1.98166 12.5083 2.30389 12.1931 2.70092 12.1931H13.346C13.743 12.1931 14.0653 12.5083 14.0653 12.8966V13.5956L14.0647 13.6136C14.0517 13.7808 14.0239 13.9465 13.9818 14.1089C13.8641 14.5608 13.6547 14.9849 13.3661 15.3561C12.686 16.2341 11.2314 17.2584 8.02347 17.2584C4.81556 17.2584 3.36092 16.2341 2.68078 15.3561C2.3923 14.9851 2.18293 14.5612 2.0651 14.1095C2.023 13.9468 1.99527 13.7809 1.98224 13.6136Z" fill="white"/>
</svg>
