<svg width="66" height="24" viewBox="0 0 66 24" fill="none" xmlns="http://www.w3.org/2000/svg">
<path d="M11.6667 2C9.04483 2.08747 6.56235 3.20196 4.75435 5.10324C2.94636 7.00451 1.95766 9.5403 2.00139 12.164C2.04512 14.7876 3.11777 17.289 4.98812 19.129C6.85846 20.9689 9.37671 22 12 22C14.6233 22 17.1415 20.9689 19.0119 19.129C20.8822 17.289 21.9549 14.7876 21.9986 12.164C22.0423 9.5403 21.0536 7.00451 19.2456 5.10324C17.4377 3.20196 14.9552 2.08747 12.3333 2H11.6667ZM25.6667 2C23.0448 2.08747 20.5623 3.20196 18.7544 5.10324C16.9464 7.00451 15.9577 9.5403 16.0014 12.164C16.0451 14.7876 17.1178 17.289 18.9881 19.129C20.8585 20.9689 23.3767 22 26 22C28.6233 22 31.1415 20.9689 33.0119 19.129C34.8822 17.289 35.9549 14.7876 35.9986 12.164C36.0423 9.5403 35.0536 7.00451 33.2456 5.10324C31.4377 3.20196 28.9552 2.08747 26.3333 2H25.6667ZM39.6667 2C37.0448 2.08747 34.5623 3.20196 32.7543 5.10324C30.9464 7.00451 29.9577 9.5403 30.0014 12.164C30.0451 14.7876 31.1178 17.289 32.9881 19.129C34.8585 20.9689 37.3767 22 40 22C42.6233 22 45.1415 20.9689 47.0119 19.129C48.8822 17.289 49.9549 14.7876 49.9986 12.164C50.0423 9.5403 49.0536 7.00451 47.2456 5.10324C45.4377 3.20196 42.9552 2.08747 40.3333 2H39.6667ZM53.6667 2C51.0448 2.08747 48.5623 3.20196 46.7544 5.10324C44.9464 7.00451 43.9577 9.5403 44.0014 12.164C44.0451 14.7876 45.1178 17.289 46.9881 19.129C48.8585 20.9689 51.3767 22 54 22C56.6233 22 59.1415 20.9689 61.0119 19.129C62.8822 17.289 63.9549 14.7876 63.9986 12.164C64.0423 9.5403 63.0536 7.00451 61.2456 5.10324C59.4377 3.20196 56.9552 2.08747 54.3333 2H53.6667Z" stroke="white" stroke-width="2.62258"/>
</svg>
