<svg width="68" height="22" viewBox="0 0 68 22" fill="none" xmlns="http://www.w3.org/2000/svg">
<path d="M42.7296 18.01C40.1983 20.0496 37.0358 21.1439 33.7853 21.105C30.536 21.1433 27.3748 20.049 24.8447 18.01C22.5429 16.095 21.123 13.445 21.123 10.5203C21.123 7.59552 22.5429 4.97255 24.8447 3.06916C27.38 1.04247 30.5398 -0.0418088 33.7853 0.00128797C37.032 -0.0427075 40.1933 1.04162 42.7296 3.06916C45.0508 4.97255 46.4513 7.611 46.4513 10.5203C46.4513 13.4295 45.0315 16.095 42.7296 18.01Z" fill="black"/>
<path d="M33.7849 20.7302C36.9496 20.772 40.0301 19.7105 42.4971 17.7281C44.7178 15.8827 46.0873 13.3333 46.0873 10.5207C46.0873 7.70818 44.7178 5.1858 42.4971 3.34817C40.0254 1.37638 36.9465 0.322299 33.7849 0.365407C30.6234 0.323258 27.5449 1.37723 25.0726 3.34817C22.8558 5.1858 21.4824 7.73913 21.4824 10.5207C21.4824 13.3023 22.8558 15.8827 25.0764 17.7281C27.5424 19.71 30.6215 20.7714 33.7849 20.7302Z" fill="white"/>
<path d="M33.7858 20.0493C36.7757 20.0897 39.6882 19.0992 42.0338 17.2445C44.1345 15.5229 45.4344 13.1437 45.4344 10.5207C45.4344 7.89771 44.1306 5.55329 42.0299 3.83946C39.6824 1.99282 36.7724 1.00694 33.7858 1.04626C30.7969 1.00375 27.884 1.98838 25.5338 3.83559C23.4293 5.54942 22.1333 7.91706 22.1333 10.5207C22.1333 13.1243 23.437 15.5268 25.5338 17.2483C27.8815 19.1014 30.7952 20.0904 33.7858 20.0493ZM42.2659 17.523C39.8546 19.4309 36.8604 20.4513 33.7858 20.4129C30.7113 20.4543 27.7165 19.4351 25.3056 17.5269C23.1236 15.7395 21.7773 13.2713 21.7773 10.5207C21.7773 7.77005 23.1275 5.33664 25.3133 3.55704C27.726 1.65914 30.7164 0.645937 33.7858 0.686473C36.8552 0.64923 39.8449 1.66357 42.2582 3.56091C44.444 5.34438 45.798 7.81647 45.798 10.5246C45.798 13.2326 44.4479 15.7357 42.2659 17.5269V17.523Z" fill="black"/>
<path d="M28.5968 20.5057C28.4677 20.443 28.3548 20.3514 28.2669 20.238C28.179 20.1246 28.1185 19.9925 28.09 19.8518C28.0524 19.5451 28.1222 19.2348 28.2873 18.9737L29.7884 16.4784C29.8297 16.4096 29.8859 16.351 29.9529 16.3069C30.0198 16.2627 30.0958 16.234 30.1752 16.223C30.3531 16.1899 30.5368 16.2073 30.7052 16.2733C30.8545 16.3589 30.9766 16.485 31.0573 16.637C31.1073 16.6023 31.162 16.5749 31.2198 16.5557C31.3908 16.4931 31.5765 16.4823 31.7537 16.5248C31.9078 16.5918 32.0413 16.6986 32.1405 16.8343L32.1947 16.7956C32.3521 16.7014 32.53 16.647 32.7131 16.637H32.744C32.9227 16.683 33.0849 16.7781 33.2122 16.9116L33.2741 16.8536C33.4184 16.7381 33.593 16.6668 33.777 16.6486C33.9611 16.6662 34.136 16.7375 34.2799 16.8536L34.3418 16.9116C34.4712 16.7769 34.6362 16.6816 34.8177 16.637H34.8486C35.0248 16.6456 35.1962 16.6974 35.3477 16.7878L35.4134 16.8304C35.5124 16.6936 35.6459 16.5855 35.8003 16.517C35.9761 16.4744 36.1607 16.4852 36.3303 16.548C36.3896 16.5664 36.4457 16.5938 36.4967 16.6292C36.5774 16.4773 36.6994 16.3512 36.8487 16.2656C37.0143 16.199 37.1957 16.1815 37.371 16.2153C37.4502 16.2271 37.5259 16.2561 37.5927 16.3002C37.6595 16.3443 37.7159 16.4024 37.7579 16.4706L39.2473 18.9775C39.4052 19.2442 39.4694 19.5561 39.4292 19.8635C39.4071 19.9983 39.3545 20.1263 39.2756 20.2376C39.1963 20.3489 39.0926 20.4406 38.9727 20.5057C38.8419 20.5737 38.6976 20.6115 38.5502 20.6162C38.4028 20.6209 38.2563 20.5924 38.1215 20.5327C38.0494 20.4975 37.983 20.4519 37.9242 20.3973L37.8894 20.494C37.8417 20.6006 37.7728 20.6963 37.6871 20.7754C37.6013 20.8545 37.5003 20.9154 37.3903 20.9544L37.3091 20.9815C37.2653 20.9976 37.2199 21.0093 37.1737 21.0163C36.9514 21.0759 36.7147 21.0482 36.5121 20.9389C36.4259 20.8906 36.3487 20.8278 36.2839 20.7533L36.2375 20.8616C36.1678 20.9869 36.0701 21.0943 35.952 21.1756C35.8338 21.2568 35.6985 21.3095 35.5566 21.3297C35.4118 21.3528 35.2638 21.3433 35.1232 21.3018C34.9826 21.2603 34.8531 21.1879 34.7442 21.0898C34.7018 21.0505 34.6641 21.0063 34.632 20.9583C34.6026 21.0143 34.5662 21.0663 34.5236 21.113C34.3772 21.2747 34.1728 21.372 33.9549 21.3838H33.7344C33.4905 21.3757 33.2596 21.2714 33.0922 21.0937C33.0531 21.0506 33.0182 21.004 32.9878 20.9544C32.8915 21.1055 32.7514 21.2236 32.5861 21.2927C32.4208 21.3619 32.2383 21.3788 32.0631 21.3413C31.9145 21.3315 31.7705 21.2855 31.6437 21.2073C31.517 21.1291 31.4113 21.021 31.3358 20.8925C31.3151 20.8543 31.2983 20.8141 31.2855 20.7726C31.2195 20.8521 31.1395 20.9189 31.0496 20.9699C30.9441 21.0275 30.8281 21.0634 30.7085 21.0754C30.5888 21.0874 30.468 21.0752 30.3532 21.0395L30.2681 21.0125L30.1752 20.9776C30.0675 20.9355 29.9695 20.8719 29.887 20.7908C29.8045 20.7097 29.7394 20.6127 29.6955 20.5057C29.6805 20.4761 29.6689 20.445 29.6607 20.4128C29.6008 20.465 29.5345 20.5091 29.4634 20.5443C29.3313 20.6026 29.1882 20.6313 29.0439 20.6287C28.8996 20.626 28.7576 20.5919 28.6278 20.5289L28.5968 20.5057Z" fill="black"/>
<path d="M29.6876 19.7319C29.6876 19.6777 29.7224 19.6197 29.7418 19.5655L29.912 19.1554L30.7592 17.0044C30.7665 16.9764 30.7679 16.9471 30.7632 16.9184C30.7586 16.8898 30.748 16.8624 30.7321 16.8381C30.6882 16.7454 30.6183 16.6674 30.531 16.6137C30.4339 16.5843 30.3302 16.5843 30.2331 16.6137C30.1673 16.6137 30.1093 16.6485 30.0938 16.6833L28.6044 19.1903C28.4806 19.3789 28.4247 19.604 28.4457 19.8286C28.4661 19.9117 28.5043 19.9894 28.5578 20.0562C28.6113 20.123 28.6786 20.1774 28.7552 20.2155C28.8389 20.2607 28.9315 20.287 29.0265 20.2923C29.1215 20.2977 29.2164 20.282 29.3046 20.2464C29.4918 20.1364 29.6301 19.9594 29.6915 19.7512L29.6876 19.7319ZM30.2524 19.2792L30.028 19.8479C29.9685 20.0156 29.9685 20.1987 30.028 20.3663C30.0566 20.4278 30.0974 20.4829 30.148 20.5282C30.1985 20.5734 30.2578 20.6079 30.3221 20.6294H30.384L30.4536 20.6487C30.5941 20.694 30.7467 20.6829 30.8792 20.6178C31.0341 20.5097 31.1442 20.3488 31.1886 20.1652C31.2032 20.1288 31.2149 20.0912 31.2235 20.053L31.9044 17.2017C31.9086 17.1486 31.892 17.0958 31.8579 17.0547C31.8009 16.9673 31.7205 16.8976 31.6258 16.8536C31.5272 16.8356 31.4255 16.8449 31.3318 16.8806C31.266 16.9039 31.2157 16.9348 31.2041 16.9735L30.2524 19.2792ZM37.6571 19.1477L37.8273 19.5578C37.8495 19.6122 37.8689 19.6677 37.8853 19.7241C37.9468 19.9323 38.0851 20.1093 38.2722 20.2193C38.3597 20.2551 38.4541 20.2709 38.5485 20.2656C38.6428 20.2602 38.7349 20.2338 38.8177 20.1884C38.8935 20.151 38.9601 20.0966 39.0115 20.0296C39.0634 19.9625 39.099 19.8845 39.1156 19.8015C39.1396 19.5746 39.0881 19.346 38.9686 19.1516L37.4791 16.6485C37.4791 16.6137 37.4018 16.5944 37.3321 16.5789C37.2413 16.5513 37.1444 16.5513 37.0536 16.5789C36.9659 16.6334 36.895 16.711 36.8485 16.8033C36.8186 16.8532 36.809 16.9128 36.8215 16.9696L37.6726 19.1206L37.6571 19.1477ZM34.7169 19.7589L34.7517 20.1884C34.7536 20.2232 34.7536 20.258 34.7517 20.2928C34.7566 20.4981 34.8332 20.6952 34.9684 20.8499C35.0382 20.909 35.12 20.9521 35.2083 20.9761C35.2965 21.0002 35.3889 21.0046 35.479 20.9892C35.5654 20.9794 35.6482 20.9495 35.7207 20.9018C35.7934 20.854 35.8537 20.7899 35.8968 20.7145C35.9853 20.5048 35.9977 20.2708 35.9317 20.053L35.2817 17.2327C35.2732 17.2057 35.2592 17.1808 35.2405 17.1595C35.2219 17.1381 35.199 17.1209 35.1734 17.1089C35.082 17.0536 34.9783 17.0217 34.8716 17.016C34.777 17.0491 34.692 17.1049 34.624 17.1785C34.5738 17.2327 34.5351 17.2869 34.5428 17.3372L34.7169 19.7589ZM32.8135 20.2967C32.8135 20.258 32.8135 20.2271 32.8135 20.1922L32.8483 19.7628L33.0224 17.341C33.02 17.3105 33.0116 17.2808 32.9976 17.2536C32.9837 17.2264 32.9645 17.2022 32.9412 17.1824C32.8726 17.1077 32.786 17.0518 32.6897 17.0199C32.5794 17.0254 32.4719 17.0573 32.3763 17.1128C32.3541 17.1232 32.3343 17.1383 32.3183 17.157C32.3023 17.1756 32.2904 17.1975 32.2835 17.2211V17.2443L31.6297 20.0646C31.566 20.2827 31.5782 20.5159 31.6645 20.7261C31.7081 20.802 31.769 20.8664 31.8423 20.9142C31.9156 20.9619 31.9992 20.9916 32.0862 21.0008C32.1763 21.016 32.2687 21.0114 32.3568 20.9873C32.445 20.9633 32.5269 20.9204 32.5969 20.8615C32.7284 20.705 32.8034 20.5088 32.8096 20.3044L32.8135 20.2967ZM37.4907 19.7048L36.365 16.9967C36.365 16.958 36.2992 16.9271 36.2373 16.9039C36.1423 16.868 36.0393 16.8587 35.9394 16.8768C35.8453 16.9201 35.766 16.99 35.7111 17.0779C35.6927 17.0973 35.6788 17.1205 35.6708 17.146C35.6627 17.1715 35.6607 17.1985 35.6647 17.225L36.365 20.0839C36.3756 20.1351 36.3898 20.1856 36.4075 20.2348C36.4523 20.3956 36.5559 20.5337 36.6977 20.6217C36.8172 20.6822 36.9547 20.6974 37.0845 20.6642L37.1851 20.6371L37.4869 19.6777L37.4907 19.7048ZM37.189 20.6642H37.2509C37.315 20.6422 37.3741 20.6077 37.4245 20.5625C37.4751 20.5173 37.516 20.4624 37.5449 20.4012C37.6053 20.2244 37.6053 20.0325 37.5449 19.8557C37.5323 19.8109 37.5168 19.7669 37.4985 19.7241L37.1967 20.6836L37.189 20.6642ZM34.3919 20.4321C34.3976 20.3639 34.3976 20.2953 34.3919 20.2271L34.1559 17.3217C34.1511 17.2932 34.1404 17.2661 34.1244 17.2421C34.1084 17.2181 34.0875 17.1978 34.0631 17.1824C33.9853 17.1156 33.89 17.0726 33.7884 17.0586C33.6871 17.0735 33.592 17.1163 33.5137 17.1824C33.4898 17.1983 33.4693 17.2188 33.4533 17.2427C33.4374 17.2666 33.4264 17.2935 33.4209 17.3217L33.1849 20.2271C33.1849 20.2735 33.1849 20.3122 33.1849 20.347C33.1707 20.5372 33.2271 20.7259 33.3435 20.877C33.4467 20.98 33.5847 21.0408 33.7304 21.0472H33.8155L34.3842 20.4282L34.3919 20.4321ZM33.8232 21.0511H33.9083C34.0311 21.0449 34.1464 20.9907 34.2294 20.9002C34.3335 20.7662 34.3906 20.6017 34.3919 20.4321L33.8232 21.0511Z" fill="white"/>
<path fill-rule="evenodd" clip-rule="evenodd" d="M25.9628 13.3485C25.4367 13.6348 23.9472 14.0526 23.5294 13.0854C22.9259 13.3988 21.6956 13.6348 21.0921 12.8494C20.1172 13.0854 18.9566 13.5845 18.5697 12.4316C17.6799 12.6676 15.4748 13.2054 15.2465 11.7778C13.9389 11.9596 12.0549 12.0912 11.7918 10.7023C10.666 10.7023 8.73167 10.5205 8.73167 9.23996C7.60588 9.23996 5.63672 8.46622 5.87658 7.56482C4.83977 7.46036 3.48187 6.38487 3.48187 5.68077C2.48761 5.36353 1.36182 4.60527 1.59781 3.58394C0.994299 3.22028 4.72017e-05 2.79859 4.72017e-05 2.19895C-0.00251202 1.92711 0.0990829 1.66461 0.283978 1.46533C0.468873 1.26605 0.723039 1.1451 0.994299 1.12732C1.54365 1.12732 3.55924 1.44068 4.2672 1.44068C4.97517 1.44068 13.5521 1.25499 15.5715 1.35944C17.5047 1.47865 19.4438 1.46184 21.3745 1.30915C22.6319 1.20469 27.9513 0.922279 28.6748 2.38077C29.197 3.45627 28.8063 3.81993 28.3343 4.24161C27.8623 4.6633 26.2414 5.40222 26.2414 7.92847C26.2414 10.4547 26.5547 11.7237 25.9551 13.3446L25.9628 13.3485Z" fill="black"/>
<path fill-rule="evenodd" clip-rule="evenodd" d="M1.88367 1.72671C3.71743 1.72671 7.98071 1.85825 8.82022 1.85825C9.65972 1.85825 15.5208 2.51206 16.4338 2.79834C16.8555 2.92988 16.9599 3.35156 16.4338 3.37478C15.9077 3.39799 9.89184 3.4831 9.00205 3.4831C8.11225 3.4831 2.0152 3.58369 1.20278 2.51206C0.603131 1.73832 1.36139 1.73832 1.88367 1.73832V1.72671ZM25.177 8.32283C24.8869 8.11392 24.3375 8.7097 24.1286 9.05401C23.9197 9.39832 24.0783 9.63045 24.2872 9.7349C24.4149 9.7525 24.545 9.73215 24.6612 9.67644C24.7775 9.62073 24.8748 9.5321 24.941 9.42154C25.0184 9.21263 25.4633 8.60911 25.177 8.32283ZM25.0184 11.147C24.6315 11.646 24.2447 12.0136 23.9971 12.3269C23.7495 12.6403 24.0512 12.9266 24.2872 13.0078C24.5232 13.0891 24.9913 13.3483 25.5175 12.2728L25.0184 11.147ZM23.3704 8.21837C23.1073 8.50466 22.4806 8.94956 22.9525 9.29C23.4245 9.63045 23.6063 9.29 23.8153 9.08109C24.0242 8.87218 24.7051 8.16421 24.442 7.85085C24.1789 7.53749 23.6063 8.08684 23.3704 8.21837ZM22.0086 7.98238C21.1459 8.53174 22.113 9.00372 22.6624 8.53174C22.9525 8.29575 23.5522 7.82377 23.293 7.48332C23.0338 7.14288 22.2716 7.85085 22.0086 7.98238ZM22.113 6.93397C21.6952 7.11967 20.3876 7.56457 20.8054 8.13713C21.0414 8.4002 21.4592 8.16421 21.6178 8.05976C21.7765 7.9553 22.7165 7.32858 22.4806 6.96105C22.4032 6.82951 22.1904 6.88368 22.0937 6.93397H22.113ZM19.8382 6.72506C19.4514 6.96105 19.6525 7.88567 20.4921 7.46011C21.3316 7.03456 21.9583 6.62061 21.8267 6.2995C21.6952 5.9784 20.728 6.24534 19.8382 6.71732V6.72506ZM20.2019 5.41744C19.8378 5.54654 19.4878 5.71243 19.1574 5.91264C18.8672 6.09833 18.6351 6.77922 19.757 6.48907C20.8789 6.19892 20.964 5.78497 20.8054 5.5219C20.6468 5.25883 20.2831 5.39036 20.2019 5.41744ZM18.7898 4.94546C18.5035 4.97254 18.2405 5.20853 18.3179 5.46774C18.3952 5.72694 19.0916 5.88942 19.8382 5.5219C20.5849 5.15437 20.5423 5.04992 20.465 4.84101C20.3876 4.6321 19.6023 4.79072 18.7898 4.94546ZM18.0586 4.00537C17.6137 4.08275 17.6137 4.26457 17.6718 4.42319C17.7298 4.58181 17.9619 4.86809 18.7202 4.73655C19.4785 4.60502 19.9234 4.31874 19.9234 4.05566C19.9234 3.79259 18.5345 3.95121 18.0664 4.00537H18.0586ZM17.9542 3.09623C17.1805 3.09623 17.1418 3.93187 18.0316 3.86997C18.7395 3.84289 19.579 3.66106 19.579 3.39799C19.579 3.13492 18.5268 3.09623 17.9542 3.09623ZM20.5037 3.27032C21.1304 3.27032 23.409 3.22003 24.0629 3.35156C24.7167 3.4831 25.533 3.63785 25.8579 4.25684C26.1713 4.75203 25.6722 5.56445 25.4362 5.9049C25.0557 6.32601 24.6542 6.72758 24.2331 7.10806C23.9971 7.28989 23.5522 7.00361 23.9468 6.55871C23.4477 6.84499 22.821 6.7947 23.1073 6.08673C22.6624 6.4736 21.9467 6.4736 22.3761 5.56445C22.086 5.80044 21.2503 5.77336 21.7726 5.06539C21.3277 5.19693 20.8325 4.93386 21.1459 4.48896C20.5965 4.5702 20.2561 4.14851 20.8557 3.83515C20.3064 3.99377 20.1516 3.33996 20.4921 3.2858L20.5037 3.27032ZM13.5052 1.62226C14.2789 1.62226 16.8787 1.78088 17.8497 1.78088C18.8208 1.78088 20.9872 1.72671 21.7726 1.67642C23.0196 1.59712 24.2704 1.59712 25.5175 1.67642C26.3531 1.7538 28.1869 1.88533 28.5002 2.74805C28.8136 3.61077 28.1134 4.08275 27.6878 4.42319C27.1199 4.74832 26.6472 5.21658 26.3166 5.78133C25.986 6.34608 25.8092 6.98759 25.8038 7.64194C25.4633 7.48332 24.941 7.40595 25.3086 6.64769C25.5175 6.22987 26.5117 4.86809 26.2757 4.24136C26.0397 3.61463 25.2815 3.11557 23.529 3.03433C21.7765 2.95309 19.3121 3.03433 18.4494 2.90666C17.5867 2.779 14.2905 1.90854 13.6097 1.83117C13.2924 1.78088 13.2924 1.64934 13.5052 1.62226ZM23.8153 10.4158C23.3433 10.8878 22.6546 11.6731 22.1401 12.0909C21.7997 12.4043 22.0357 13.0078 22.6121 12.7447C23.4516 12.2666 24.1057 11.5198 24.4691 10.6247C24.2474 10.5674 24.0291 10.4977 23.8153 10.4158ZM22.4806 9.97089C21.7068 10.4932 19.993 11.646 19.7067 11.8549C19.3198 12.118 19.1032 12.5629 19.8885 12.5087C20.6739 12.4546 22.086 11.882 23.2117 10.234C23.057 10.1798 22.6624 10.0483 22.4806 9.97089ZM21.1188 9.19715C20.6739 9.4873 17.7685 11.0038 16.4338 11.3946C15.9889 11.5532 16.1978 11.971 16.6427 12.0252C17.6671 12.1239 18.6939 11.8641 19.5481 11.2901C20.369 10.7933 21.156 10.2428 21.9041 9.64205C21.6381 9.50819 21.3798 9.35968 21.1304 9.19715H21.1188ZM19.8885 8.16421C19.2076 8.50466 15.0488 10.234 13.451 10.5976C13.0061 10.7021 12.7701 11.0425 13.2924 11.2282C14.1396 11.3617 15.0053 11.3169 15.8342 11.0967C16.5653 10.8878 19.5752 9.91673 20.728 8.79481C20.4111 8.63925 20.1263 8.42531 19.8885 8.16421ZM10.0582 9.42154C10.7932 9.26292 16.8129 7.90501 18.5384 7.24733C19.0374 7.09259 19.2193 7.24733 19.3121 7.43303C19.3487 7.48352 19.3726 7.54213 19.3817 7.60383C19.3908 7.66554 19.3848 7.72852 19.3643 7.7874C19.3437 7.84632 19.3093 7.89936 19.2638 7.94207C19.2184 7.98478 19.1633 8.01585 19.1032 8.03268C18.7898 8.16421 14.159 10.0753 11.9577 10.2069C11.3325 10.1844 10.7188 10.0329 10.1549 9.76198C9.91893 9.63044 10.0234 9.63045 10.0737 9.42154H10.0582ZM7.26114 7.87406C8.30568 7.74253 15.2152 6.64382 17.0721 6.14476C17.8459 5.96293 18.1747 6.0403 18.2792 6.24921C18.3836 6.45812 18.3565 6.82565 17.8343 7.02295C17.312 7.22025 11.2188 8.60911 10.0582 8.69035C8.89759 8.7716 7.60158 8.47758 7.23406 8.19129C6.86653 7.90501 7.26114 7.87793 7.26114 7.87793V7.87406ZM5.03664 6.01322C5.81038 6.01322 14.5343 5.35941 16.368 4.96868C16.9948 4.91451 17.4126 4.8913 17.4667 5.1505C17.5209 5.40971 17.4938 5.53737 16.9677 5.69986C16.4415 5.86234 9.94601 7.06551 6.6731 7.11967C5.57439 7.09259 4.28998 6.04417 5.05212 6.01709L5.03664 6.01322ZM2.98237 4.05566C4.05786 4.08275 9.39665 4.10983 10.0234 4.08275C10.6501 4.05567 15.4744 3.79646 16.016 3.76938C16.5576 3.7423 17.1147 3.87384 17.1147 4.05566C17.1147 4.23749 17.0102 4.39611 16.3409 4.52764C12.6243 5.05119 8.87511 5.30974 5.12175 5.30138C4.25903 5.32846 3.10617 4.88356 2.80055 4.46575C2.49492 4.04793 2.82763 4.07888 2.98237 4.07888V4.05566ZM27.0804 2.47337C27.0496 2.46396 27.0212 2.44792 26.9973 2.42637C26.9734 2.40481 26.9544 2.37828 26.9419 2.34863C26.9293 2.31898 26.9233 2.28692 26.9244 2.25473C26.9256 2.22254 26.9338 2.19098 26.9484 2.16229C26.963 2.13359 26.9838 2.10845 27.0092 2.08863C27.0346 2.06881 27.064 2.05479 27.0954 2.04757C27.1268 2.04035 27.1594 2.04009 27.1909 2.04682C27.2224 2.05354 27.252 2.06709 27.2777 2.0865C27.5032 2.19548 27.7182 2.32498 27.9199 2.47337C28.1223 2.60119 28.2699 2.79978 28.3339 3.03046V3.04981C28.3629 3.24818 28.3305 3.45068 28.241 3.63011C28.1031 3.85948 27.917 4.05613 27.6955 4.20654C27.6749 4.23254 27.6486 4.25351 27.6187 4.26794C27.5888 4.28233 27.556 4.2898 27.5228 4.2898C27.4896 4.28976 27.4569 4.28225 27.4269 4.26779C27.3971 4.25332 27.3709 4.23231 27.3502 4.20631C27.3296 4.18028 27.3151 4.14995 27.3078 4.11756C27.3006 4.08514 27.3007 4.05153 27.3082 4.01922C27.3158 3.98688 27.3305 3.95667 27.3514 3.93082C27.3722 3.90498 27.3986 3.88417 27.4286 3.86997C27.6012 3.75437 27.7464 3.60256 27.8542 3.42507C27.906 3.32369 27.9275 3.20951 27.9161 3.09623C27.8594 2.98534 27.7739 2.89179 27.6685 2.82542C27.4839 2.68988 27.2871 2.57201 27.0804 2.47337Z" fill="white"/>
<path fill-rule="evenodd" clip-rule="evenodd" d="M42.0295 13.3485C42.5556 13.6348 44.0451 14.0526 44.4629 13.0854C45.0393 13.3988 46.2966 13.6348 46.8963 12.8494C47.8905 13.0854 49.0163 13.5845 49.438 12.4316C50.3278 12.6676 52.533 13.2054 52.7612 11.7778C54.0688 11.9596 55.9529 12.0912 56.1889 10.7023C57.3147 10.7023 59.2838 10.5205 59.2838 9.23996C60.4096 9.23996 62.3788 8.46622 62.1389 7.56482C63.1332 7.46036 64.4911 6.38487 64.4911 5.68077C65.5124 5.36353 66.6382 4.60527 66.4022 3.58394C67.0057 3.22028 68 2.8102 68 2.19895C68.0027 1.92711 67.9009 1.66461 67.716 1.46533C67.5311 1.26605 67.2769 1.1451 67.0057 1.12732C66.4564 1.12732 64.4408 1.44068 63.7328 1.44068C63.0249 1.44068 54.417 1.25499 52.4014 1.35944C50.4683 1.47846 48.5293 1.46165 46.5984 1.30915C45.3682 1.20469 40.0565 0.922279 39.3253 2.38077C38.7759 3.45627 39.1937 3.81993 39.6657 4.24161C40.1377 4.6633 41.7316 5.40222 41.7316 7.92847C41.7316 10.4547 41.4453 11.7237 42.045 13.3446L42.0295 13.3485Z" fill="black"/>
<path fill-rule="evenodd" clip-rule="evenodd" d="M66.1085 1.72642C64.2477 1.72642 59.9844 1.85796 59.1719 1.85796C58.3595 1.85796 52.4714 2.51177 51.5313 2.79805C51.1444 2.92959 51.0322 3.35127 51.5313 3.37448C52.0303 3.3977 58.108 3.47894 58.9901 3.47894C59.8722 3.47894 65.9537 3.58339 66.7894 2.51177C67.3619 1.73803 66.6308 1.73803 66.1085 1.73803V1.72642ZM42.8151 8.32254C43.0782 8.11363 43.6546 8.70941 43.8365 9.05372C44.0183 9.39803 43.8867 9.63015 43.6778 9.73461C43.554 9.74919 43.4291 9.7273 43.3177 9.67163C43.2062 9.61592 43.1134 9.52891 43.0511 9.42125C42.9737 9.21234 42.5288 8.60882 42.8151 8.32254ZM42.9737 11.1467C43.3606 11.6457 43.7475 12.0133 43.9951 12.3266C44.2427 12.64 43.9138 12.9263 43.6778 13.0075C43.4418 13.0888 43.0008 13.348 42.4747 12.2725L42.9737 11.1467ZM44.6218 8.21808C44.8849 8.50437 45.5116 8.94927 45.0087 9.28971C44.6218 9.57599 44.3549 9.28971 44.173 9.0808C43.9912 8.87189 43.2832 8.16392 43.5463 7.85056C43.8094 7.53719 44.3819 8.08655 44.6179 8.21808H44.6218ZM45.9836 7.98209C46.8192 8.53145 45.852 9.00343 45.3298 8.53145C45.0125 8.29546 44.4129 7.82348 44.6992 7.48303C44.9855 7.14259 45.7205 7.85056 45.9836 7.98209ZM45.8791 6.93368C46.2969 7.11938 47.6046 7.56428 47.1867 8.13684C46.9507 8.39991 46.5329 8.16392 46.3743 8.05947C46.2157 7.95501 45.264 7.32828 45.4845 6.96463C45.589 6.83309 45.7979 6.88725 45.8714 6.93755L45.8791 6.93368ZM48.1268 6.72477C48.5137 6.96076 48.3357 7.88538 47.473 7.45982C46.6103 7.03426 46.0339 6.62031 46.1654 6.29921C46.2969 5.97811 47.2641 6.24505 48.1268 6.71703V6.72477ZM47.7864 5.41715C48.1497 5.55085 48.5005 5.71659 48.8348 5.91234C49.1211 6.09804 49.3571 6.77893 48.2081 6.48878C47.0591 6.19863 47.0475 5.78468 47.1867 5.52161C47.326 5.25854 47.6819 5.39007 47.7864 5.41715ZM49.1752 4.94517C49.4886 4.97225 49.7517 5.20824 49.6743 5.46745C49.5969 5.72665 48.9006 5.88913 48.1539 5.52161C47.4073 5.15408 47.4459 5.04963 47.5272 4.84072C47.6084 4.63181 48.3628 4.79042 49.1752 4.94517ZM49.949 4.00508C50.3939 4.08245 50.3939 4.26428 50.3359 4.4229C50.2778 4.58152 50.0186 4.8678 49.2604 4.73626C48.5021 4.60473 48.0997 4.31844 48.0997 4.05537C48.0997 3.7923 49.4847 3.95092 49.9567 4.00508H49.949ZM50.038 3.09594C50.8117 3.09594 50.8117 3.93158 49.9335 3.86968C49.2526 3.8426 48.417 3.66077 48.417 3.3977C48.417 3.13463 49.4615 3.08433 50.038 3.08433V3.09594ZM47.473 3.27777C46.8463 3.27777 44.5676 3.22747 43.9138 3.35901C43.26 3.49055 42.4476 3.64529 42.1071 4.24881C41.8209 4.744 42.3199 5.55643 42.5559 5.89687C42.9223 6.33105 43.325 6.73355 43.7591 7.10003C43.9951 7.28186 44.44 6.99558 44.0454 6.55068C44.5444 6.83696 45.1711 6.78667 44.8849 6.0787C45.3298 6.46557 46.0455 6.46557 45.6161 5.55643C45.9023 5.79242 46.7418 5.76533 46.2196 5.05736C46.6645 5.1889 47.1597 4.92583 46.8192 4.48093C47.3956 4.56217 47.709 4.14049 47.1326 3.82712C47.6819 3.98574 47.8405 3.33193 47.473 3.27777ZM54.487 1.62971C53.7132 1.62971 51.0864 1.78832 50.1424 1.78832C49.1985 1.78832 47.0049 1.73416 46.2196 1.68387C44.9723 1.60456 43.7216 1.60456 42.4747 1.68387C41.639 1.76124 39.8053 1.89278 39.4648 2.75549C39.1244 3.61821 39.8517 4.09019 40.3043 4.43064C40.8676 4.75859 41.3353 5.22821 41.6611 5.79284C41.9868 6.35748 42.1594 6.99751 42.1613 7.64939C42.5482 7.49077 43.024 7.4134 42.6836 6.65513C42.4747 6.23731 41.4533 4.87554 41.6893 4.24881C41.9253 3.62208 42.7107 3.12302 44.4632 3.04178C46.2157 2.96054 48.6762 3.04178 49.5157 2.91411C50.3552 2.78644 53.7016 1.91599 54.3825 1.83862C54.6727 1.78832 54.6726 1.65679 54.487 1.62971ZM44.1498 10.4155C44.6218 10.8875 45.353 11.6728 45.852 12.0906C46.1654 12.404 45.9294 13.0075 45.3801 12.7444C44.5278 12.2823 43.869 11.5302 43.5231 10.6244C43.737 10.5711 43.9467 10.5013 44.1498 10.4155ZM45.4845 9.9706C46.2583 10.4929 47.9992 11.6457 48.2854 11.8547C48.6723 12.1177 48.8619 12.5626 48.1036 12.5085C47.3454 12.4543 45.9023 11.8817 44.7765 10.2337C44.9352 10.1795 45.3298 10.048 45.4845 9.9706ZM46.8463 9.19686C47.2912 9.48701 50.1966 11.0035 51.5313 11.3943C51.9762 11.5529 51.7673 11.9707 51.3224 12.0249C50.2979 12.1216 49.272 11.862 48.417 11.2898C47.6107 10.7879 46.8355 10.2375 46.0958 9.64176C46.365 9.5146 46.6238 9.36581 46.8695 9.19686H46.8463ZM48.1036 8.17553C48.7806 8.51597 52.9433 10.2453 54.5411 10.6089C54.986 10.7134 55.222 11.0538 54.6727 11.2395C53.8343 11.3724 52.9778 11.3276 52.158 11.108C51.4268 10.8991 48.417 9.92804 47.2641 8.80612C47.581 8.65056 47.8657 8.43663 48.1036 8.17553ZM57.9146 9.43285C57.1834 9.27423 51.1638 7.91633 49.4383 7.25865C48.9393 7.1039 48.7574 7.25865 48.6646 7.44434C48.6274 7.49328 48.6027 7.55031 48.5922 7.6107C48.5818 7.67109 48.5857 7.73314 48.6038 7.79171C48.622 7.85029 48.6537 7.90368 48.6967 7.94755C48.7396 7.99142 48.7922 8.02446 48.8503 8.04399C49.1907 8.17553 53.8215 10.0867 55.9957 10.2182C56.6298 10.1982 57.2531 10.0467 57.8256 9.7733C58.0616 9.64176 57.9572 9.64176 57.903 9.43285H57.9146ZM60.6885 7.88538C59.671 7.75384 52.7615 6.65513 50.9007 6.15607C50.1269 5.97424 49.802 6.05162 49.6975 6.26053C49.5931 6.46944 49.6201 6.83696 50.1424 7.03426C50.6647 7.23157 56.7927 8.62816 57.9146 8.70941C59.0365 8.79065 60.3751 8.49663 60.7426 8.21035C61.1101 7.92406 60.6885 7.89698 60.6885 7.89698V7.88538ZM62.913 6.02454C62.1818 6.02454 53.4424 5.37073 51.6086 4.97999C50.9819 4.92583 50.5641 4.90262 50.5099 5.16182C50.4558 5.42102 50.4829 5.54869 51.0051 5.71117C51.5274 5.87366 58.0307 7.06521 61.3191 7.11938C62.4178 7.09229 63.6983 6.04388 62.913 6.0168V6.02454ZM64.9943 4.05537C63.9188 4.08245 58.58 4.10954 57.9533 4.08245C57.3266 4.05537 52.5101 3.79617 51.9336 3.76909C51.3572 3.74201 50.8349 3.87355 50.8349 4.05537C50.8349 4.2372 50.9664 4.39582 51.6086 4.52735C55.3253 5.0509 59.0744 5.30945 62.8278 5.30109C63.6906 5.32817 64.8434 4.88327 65.1297 4.46545C65.416 4.04764 65.1026 4.07859 64.975 4.07859L64.9943 4.05537ZM40.6603 2.08234C40.6858 2.06293 40.7156 2.04938 40.7469 2.04266C40.7786 2.03593 40.8111 2.03619 40.8425 2.04341C40.8738 2.05063 40.9032 2.06465 40.9287 2.08447C40.9543 2.10429 40.9748 2.12943 40.9895 2.15813C41.0042 2.18682 41.0123 2.21838 41.0135 2.25057C41.0146 2.28276 41.0088 2.31482 40.9961 2.34447C40.9837 2.37412 40.9647 2.40066 40.9407 2.42221C40.9168 2.44376 40.8885 2.45981 40.8576 2.46921C40.6564 2.56321 40.4649 2.6759 40.285 2.80579C40.1573 2.90637 40.0684 3.00309 40.0606 3.0766C40.0471 3.19455 40.0672 3.31396 40.1186 3.42091C40.2246 3.59465 40.3705 3.74054 40.5442 3.84646C40.5709 3.86155 40.5945 3.8821 40.6127 3.90674C40.6312 3.93142 40.644 3.95962 40.651 3.98964C40.6579 4.01963 40.6583 4.05073 40.6525 4.08091C40.6463 4.11108 40.6343 4.13971 40.6165 4.16494C40.5991 4.19012 40.5763 4.2114 40.55 4.2273C40.5237 4.2432 40.4943 4.25345 40.4637 4.25736C40.4332 4.26123 40.4022 4.25871 40.3728 4.24989C40.3434 4.24111 40.3159 4.22625 40.2927 4.20625C40.061 4.05986 39.8687 3.85939 39.7318 3.62208C39.6389 3.44224 39.6014 3.23905 39.6235 3.03791C39.6455 2.92112 39.6912 2.81007 39.7577 2.71159C39.8242 2.61312 39.9101 2.52932 40.0103 2.46534C40.2099 2.31569 40.4235 2.1861 40.6487 2.07847L40.6603 2.08234Z" fill="white"/>
<path fill-rule="evenodd" clip-rule="evenodd" d="M33.7852 17.271C38.7835 17.271 42.8418 14.2612 42.8418 10.5201C42.8418 6.77913 38.7835 3.81958 33.7852 3.81958C28.7868 3.81958 24.7324 6.82942 24.7324 10.5201C24.7324 14.2109 28.7868 17.271 33.7852 17.271Z" fill="white"/>
<path d="M33.7848 16.5281C35.8425 16.5633 37.8577 15.9413 39.5376 14.7524C40.9883 13.6653 41.8897 12.1681 41.8897 10.5201C41.8897 8.872 40.9883 7.42511 39.5298 6.33028C37.8354 5.17818 35.8338 4.56209 33.7848 4.56209C31.7358 4.56209 29.7341 5.17818 28.0398 6.33028C26.5851 7.40964 25.6837 8.89522 25.6837 10.5201C25.6837 12.1449 26.5813 13.6653 28.0359 14.7524C29.7139 15.942 31.7282 16.5642 33.7848 16.5281ZM39.7697 15.0619C38.008 16.269 35.9223 16.915 33.7867 16.915C31.6511 16.915 29.5655 16.269 27.8038 15.0619C26.2563 13.9013 25.2969 12.2997 25.2969 10.5201C25.2969 8.74047 26.2563 7.16978 27.8115 6.02078C29.5722 4.81855 31.6547 4.17542 33.7867 4.17542C35.9187 4.17542 38.0012 4.81855 39.7619 6.02078C41.3094 7.18139 42.2766 8.76368 42.2766 10.5201C42.2766 12.2765 41.3172 13.9052 39.7697 15.0619Z" fill="black"/>
<path fill-rule="evenodd" clip-rule="evenodd" d="M37.7659 8.0873C37.7659 7.09304 36.7175 5.59973 33.7076 5.59973C31.928 5.59973 30.4347 6.04463 29.5449 6.88414C29.6702 6.97374 29.7747 7.08918 29.8514 7.22268C29.9282 7.35615 29.9754 7.50456 29.9898 7.65787V13.074C29.951 13.4082 29.8043 13.7205 29.572 13.9638C30.4115 14.6447 31.8236 15.2482 34.021 15.1941C36.2184 15.1399 38.2766 14.4203 38.2766 12.3931C38.2766 11.5304 37.4641 10.6677 36.5743 10.3776C36.3422 10.3002 36.3925 10.0642 36.5743 9.99069C36.7562 9.91719 37.7814 9.12798 37.7814 8.10664L37.7659 8.0873ZM33.9939 14.0064C34.3238 14.018 34.6496 13.9307 34.9295 13.7557C35.2094 13.5808 35.4307 13.3262 35.5648 13.0246C35.699 12.723 35.7399 12.3882 35.6824 12.0632C35.6249 11.7381 35.4716 11.4377 35.2421 11.2005C35.0127 10.9632 34.7175 10.7999 34.3946 10.7317C34.0716 10.6633 33.7356 10.6931 33.4297 10.8172C33.1238 10.9412 32.862 11.1538 32.6779 11.4278C32.4937 11.7017 32.3956 12.0244 32.3961 12.3545C32.391 12.5682 32.4284 12.7809 32.5062 12.9801C32.584 13.1793 32.7006 13.3611 32.8493 13.5148C32.998 13.6685 33.1758 13.7911 33.3723 13.8755C33.5687 13.9599 33.7801 14.0044 33.9939 14.0064ZM33.8121 9.78952C34.1976 9.77045 34.5601 9.60011 34.8208 9.31549C35.0816 9.03083 35.2196 8.65487 35.2048 8.26913C35.2225 8.07635 35.1997 7.88199 35.1381 7.69846C35.0764 7.51493 34.9771 7.34629 34.8466 7.2033C34.7161 7.06028 34.5572 6.94607 34.3801 6.86793C34.203 6.78974 34.0115 6.74939 33.8179 6.74939C33.6243 6.74939 33.4328 6.78974 33.2557 6.86793C33.0785 6.94607 32.9197 7.06028 32.7892 7.2033C32.6587 7.34629 32.5594 7.51493 32.4977 7.69846C32.436 7.88199 32.4133 8.07635 32.431 8.26913C32.4151 8.65321 32.5512 9.02809 32.8097 9.31263C33.0681 9.59717 33.4283 9.76848 33.8121 9.78952Z" fill="black"/>
</svg>
