<svg width="58" height="30" viewBox="0 0 58 30" fill="none" xmlns="http://www.w3.org/2000/svg">
<path d="M28.999 29.0669C12.8583 29.0669 0.333984 22.5033 0.333984 14.7345C0.333984 6.89837 12.8581 0.334961 28.999 0.334961C45.073 0.334961 57.6643 6.89857 57.6643 14.7345C57.6643 22.5035 45.073 29.0669 28.999 29.0669Z" fill="#BE0030"/>
<path d="M0 14.7344C0 6.5636 12.9261 0 28.9999 0C45.0737 0 57.9997 6.5636 57.9997 14.7344C57.9997 22.8384 45.0737 29.4018 28.9999 29.4018C12.9261 29.4018 0 22.8382 0 14.7344ZM28.9999 2.6789C12.591 2.6789 2.67871 9.37636 2.67871 14.7344C2.67871 20.0254 12.591 26.7229 28.9999 26.7229C45.4085 26.7229 55.3208 20.0254 55.3208 14.7344C55.3208 9.37655 45.4087 2.6789 28.9999 2.6789ZM27.4594 1.33945C27.4594 0.937521 27.1246 0.669822 26.7896 0.669822C26.3877 0.669822 26.12 1.00445 26.12 1.40638C26.12 1.74138 26.4548 2.00927 26.7896 2.00927C27.1916 2.00927 27.4594 1.67427 27.4594 1.33945ZM25.2492 1.40638C25.1823 1.07175 24.9146 0.803671 24.5127 0.803671C24.1776 0.870596 23.9098 1.13849 23.9098 1.54042C23.9098 1.87523 24.2446 2.21024 24.6463 2.14312C24.9813 2.14312 25.2492 1.80812 25.2492 1.40638ZM23.0392 1.60734C22.972 1.27253 22.6372 1.00464 22.3024 1.07156C21.9005 1.07156 21.6326 1.40638 21.6997 1.80831C21.7666 2.14312 22.1016 2.41101 22.4363 2.34409C22.8382 2.34409 23.1061 2.00927 23.0392 1.60754V1.60734ZM20.8289 1.87523C20.762 1.54042 20.427 1.27253 20.0924 1.33945C19.6904 1.40638 19.4895 1.74138 19.4895 2.14332C19.5564 2.47794 19.8914 2.74602 20.2933 2.6789C20.628 2.61198 20.896 2.27697 20.8289 1.87523ZM18.6858 2.27717C18.6189 1.94235 18.2169 1.67427 17.8819 1.74138C17.4802 1.87523 17.2792 2.21024 17.3463 2.54506C17.4133 2.94699 17.815 3.14776 18.15 3.08084C18.4848 3.01391 18.7527 2.61217 18.6858 2.27717ZM16.4754 2.74602C16.4084 2.41101 16.0734 2.21024 15.6717 2.27717C15.3369 2.41101 15.1359 2.74602 15.2028 3.08084C15.3369 3.48277 15.6717 3.68354 16.0067 3.54969C16.4084 3.48258 16.6094 3.14776 16.4754 2.74583V2.74602ZM14.3992 3.34873C14.2653 3.01391 13.8634 2.81295 13.5286 2.9468C13.1938 3.01391 12.9928 3.41565 13.1266 3.75066C13.1938 4.15259 13.5955 4.28644 13.9305 4.21932C14.3324 4.08547 14.4663 3.68354 14.3992 3.34873ZM12.256 4.08528C12.122 3.75066 11.7872 3.54969 11.4522 3.68354C11.0504 3.81758 10.9166 4.21932 11.0504 4.55433C11.1845 4.88915 11.5862 5.09011 11.9212 4.95626C12.2558 4.82222 12.3899 4.42029 12.2558 4.08547L12.256 4.08528ZM10.2468 4.88915C10.0458 4.55433 9.64406 4.42029 9.37617 4.62126C9.04135 4.7553 8.90731 5.15704 9.04135 5.49185C9.1752 5.82686 9.57713 5.96071 9.91195 5.82686C10.2468 5.62589 10.3808 5.22396 10.2468 4.88915ZM8.23749 5.89378C8.10364 5.55897 7.63478 5.49185 7.36689 5.69282C7.03208 5.89378 6.89804 6.29552 7.099 6.56341C7.29997 6.89842 7.70171 7.03227 8.03671 6.8313C8.37134 6.63053 8.43865 6.2286 8.23749 5.89378ZM6.36225 7.09939C6.16129 6.76438 5.75955 6.69745 5.42454 6.89842C5.15665 7.16631 5.08992 7.56805 5.29069 7.83594C5.55858 8.17095 5.96052 8.23787 6.22841 8.03691C6.56303 7.76902 6.63034 7.36728 6.36225 7.09939ZM4.62087 8.43884C4.35298 8.17095 3.95124 8.17095 3.68335 8.43884C3.41546 8.70673 3.41546 9.10847 3.68335 9.37636C3.95124 9.64425 4.35298 9.64425 4.62087 9.37636C4.88876 9.10847 4.88876 8.70673 4.62087 8.43884ZM3.14757 10.0462C2.81256 9.84522 2.41082 9.91214 2.20986 10.1802C2.00889 10.5148 2.07581 10.9168 2.3439 11.1177C2.67852 11.3187 3.08045 11.2518 3.28142 10.9839C3.48238 10.6489 3.41546 10.2471 3.14757 10.0462ZM1.94177 11.9214C1.60715 11.7876 1.20522 11.9885 1.07137 12.3233C0.937328 12.6582 1.13829 13.0599 1.4733 13.1939C1.87504 13.2609 2.20986 13.127 2.3439 12.7251C2.47775 12.3903 2.27659 12.0555 1.94177 11.9214ZM29.6693 28.0622C29.6693 27.7275 29.3347 27.3925 28.9997 27.3925C28.5977 27.3925 28.3298 27.7275 28.3298 28.0623C28.3298 28.4643 28.5977 28.732 28.9997 28.732C29.3345 28.732 29.6695 28.4641 29.6695 28.0623L29.6693 28.0622ZM27.4593 28.0622C27.4593 27.7275 27.1914 27.3925 26.7894 27.3925C26.4548 27.3925 26.1198 27.6604 26.1198 27.9954C26.1198 28.3974 26.3877 28.732 26.7894 28.732C27.1244 28.732 27.4593 28.4641 27.4593 28.0623V28.0622ZM25.249 27.9954C25.249 27.5935 24.9811 27.2587 24.6463 27.2587C24.2444 27.2587 23.9098 27.5266 23.9098 27.8614C23.9098 28.2633 24.1775 28.5312 24.5125 28.5981C24.9144 28.5981 25.1821 28.3302 25.249 27.9954ZM23.039 27.7945C23.1059 27.3925 22.838 27.0577 22.4363 27.0577C22.1013 26.9908 21.7664 27.2587 21.6995 27.5935C21.6326 27.9954 21.9005 28.3302 22.3022 28.3974C22.637 28.3974 22.9722 28.1293 23.039 27.7945ZM20.8287 27.5266C20.8958 27.1246 20.628 26.7898 20.2929 26.7227C19.891 26.6558 19.5564 26.9237 19.5564 27.2587C19.4893 27.6606 19.6902 27.9952 20.092 28.0623C20.427 28.1293 20.7618 27.8614 20.8287 27.5266ZM18.6856 27.1246C18.7525 26.7898 18.4846 26.3881 18.1498 26.321C17.815 26.254 17.4133 26.455 17.346 26.8567C17.2792 27.1916 17.48 27.5935 17.8819 27.6606C18.2167 27.7275 18.6185 27.4596 18.6856 27.1246ZM16.4754 26.6558C16.6094 26.3212 16.4084 25.9192 16.0067 25.8521C15.6717 25.7183 15.3369 25.919 15.2028 26.321C15.1359 26.6558 15.3369 26.9908 15.6717 27.1248C16.0736 27.1916 16.4082 26.9908 16.4754 26.6558ZM14.3992 26.0531C14.4663 25.7183 14.3322 25.3165 13.9303 25.1825C13.5957 25.1154 13.1938 25.3163 13.1266 25.6511C12.9928 25.9861 13.1938 26.3879 13.5286 26.455C13.8634 26.5889 14.2651 26.3879 14.3992 26.0531ZM12.256 25.3165C12.3901 24.9815 12.256 24.5796 11.9212 24.4457C11.5862 24.3117 11.1845 24.5127 11.0504 24.8477C10.9166 25.1823 11.0504 25.5842 11.4524 25.7183C11.7872 25.8521 12.1222 25.6511 12.256 25.3163V25.3165ZM10.2468 24.5127C10.3808 24.1778 10.2468 23.7761 9.91214 23.5749C9.57713 23.4411 9.1752 23.5749 9.04135 23.9099C8.90731 24.2448 9.04135 24.6465 9.37597 24.7805C9.64406 24.9815 10.046 24.8475 10.2468 24.5127ZM8.23749 23.508C8.43845 23.1732 8.37153 22.7715 8.03671 22.5705C7.70171 22.3695 7.29997 22.5034 7.099 22.8384C6.89804 23.1063 7.03208 23.5749 7.36689 23.709C7.63478 23.9099 8.10345 23.8428 8.23749 23.508ZM6.36245 22.3026C6.63014 22.0347 6.56322 21.6328 6.22841 21.3649C5.96052 21.1639 5.55858 21.2308 5.29069 21.5659C5.08973 21.8337 5.15684 22.2355 5.42473 22.5034C5.75955 22.7043 6.16148 22.6374 6.36245 22.3026ZM4.62106 20.963C4.88895 20.6951 4.88895 20.2933 4.62106 20.0254C4.35317 19.7575 3.95124 19.7575 3.68335 20.0254C3.41546 20.2933 3.41546 20.6951 3.68335 20.963C3.95124 21.2308 4.35317 21.2308 4.62106 20.963ZM3.14757 19.3556C3.41546 19.1547 3.48238 18.7529 3.28142 18.4179C3.08045 18.15 2.67871 18.0833 2.3439 18.2841C2.07601 18.485 2.00889 18.8868 2.20986 19.2218C2.41082 19.4897 2.81256 19.5564 3.14757 19.3556ZM1.94197 17.4804C2.27678 17.4135 2.47775 17.0115 2.3439 16.6765C2.20986 16.2748 1.87504 16.1409 1.47311 16.2079C1.13829 16.3417 0.937328 16.7436 1.07118 17.0785C1.20522 17.4135 1.60715 17.6142 1.94197 17.4804ZM1.33945 15.4042C1.74138 15.3371 2.00908 15.0692 2.00908 14.6674C2.00908 14.3326 1.67427 13.9976 1.27253 14.0645C0.937521 14.0645 0.66963 14.3324 0.66963 14.7344C0.66963 15.0692 1.00445 15.4042 1.33945 15.4042ZM56.6603 14.0647C56.3255 13.9976 55.9906 14.3326 55.9906 14.6674C55.9906 15.0694 56.2585 15.3371 56.6603 15.404C56.9953 15.404 57.3301 15.0694 57.3301 14.7344C57.3301 14.3324 57.0622 14.0647 56.6603 14.0647ZM56.4595 16.2079C56.1245 16.1409 55.7228 16.2748 55.6556 16.6767C55.5218 17.0115 55.7228 17.4133 56.0576 17.4804C56.3924 17.6142 56.7941 17.4135 56.9282 17.0785C56.9953 16.7436 56.8612 16.3419 56.4595 16.2079ZM55.6556 18.2841C55.321 18.0831 54.9191 18.15 54.7181 18.4179C54.4502 18.7529 54.5841 19.1547 54.852 19.3556C55.187 19.5566 55.5887 19.4897 55.7897 19.2218C55.9906 18.8868 55.9235 18.485 55.6556 18.2841ZM54.3162 20.0254C54.0483 19.7575 53.5796 19.7575 53.3115 20.0254C53.1106 20.2933 53.1106 20.6951 53.3115 20.963C53.5794 21.2308 54.0483 21.2308 54.3162 20.963C54.5172 20.6951 54.5172 20.2933 54.3162 20.0254ZM52.6419 21.5659C52.441 21.2308 52.039 21.1639 51.7711 21.3649C51.4363 21.6328 51.3692 22.0347 51.5704 22.3026C51.8382 22.6372 52.24 22.7045 52.5079 22.5034C52.8427 22.2355 52.9098 21.8337 52.6419 21.5659ZM50.8336 22.8384C50.6996 22.5034 50.2307 22.3695 49.9628 22.5705C49.6282 22.7713 49.4942 23.1732 49.6949 23.508C49.8959 23.8428 50.2978 23.9099 50.6326 23.709C50.9675 23.5749 51.0346 23.1063 50.8336 22.8384ZM48.9582 23.9099C48.7574 23.5749 48.3555 23.4411 48.0207 23.5749C47.6857 23.7759 47.5518 24.1778 47.7528 24.5127C47.8866 24.8475 48.2886 24.9815 48.6234 24.7805C48.9582 24.6467 49.0922 24.2448 48.9582 23.9099ZM46.9491 24.8475C46.8151 24.5127 46.4133 24.3117 46.0783 24.4455C45.7435 24.5796 45.5425 24.9815 45.6764 25.3163C45.8104 25.6511 46.2124 25.8521 46.5472 25.7183C46.882 25.5842 47.083 25.1825 46.9491 24.8475ZM44.8729 25.6513C44.7389 25.3163 44.404 25.1154 44.0021 25.1825C43.6673 25.3163 43.4663 25.7183 43.6002 26.0531C43.7342 26.3879 44.0692 26.5889 44.471 26.455C44.8058 26.3879 45.0068 25.9861 44.8729 25.6511V25.6513ZM42.7965 26.321C42.6627 25.919 42.3278 25.7183 41.9259 25.8521C41.5911 25.919 41.3901 26.321 41.4571 26.656C41.5911 26.9906 41.9259 27.1916 42.2609 27.1246C42.6627 26.9908 42.8636 26.6558 42.7965 26.321ZM40.6534 26.8567C40.5195 26.4548 40.1845 26.254 39.8497 26.321C39.4478 26.3879 39.247 26.7898 39.3139 27.1248C39.3809 27.4594 39.7159 27.7275 40.1178 27.6604C40.4524 27.5935 40.7203 27.1916 40.6534 26.8567ZM38.4433 27.2587C38.3762 26.9237 38.0414 26.6558 37.7066 26.7229C37.3047 26.7898 37.1037 27.1248 37.1037 27.5266C37.1708 27.8614 37.5056 28.1293 37.9076 28.0623C38.2422 27.9954 38.5103 27.6604 38.4433 27.2585V27.2587ZM36.3 27.5935C36.2331 27.2587 35.8981 26.9908 35.4964 27.0577C35.1615 27.0577 34.8936 27.3925 34.9606 27.7943C34.9606 28.1293 35.2954 28.3972 35.6973 28.3972C36.0321 28.3302 36.3 27.9952 36.3 27.5935ZM34.09 27.8614C34.0231 27.5266 33.755 27.2587 33.3532 27.2587C33.0184 27.2587 32.6834 27.5935 32.7505 27.9952C32.7505 28.3302 33.0851 28.5981 33.4871 28.5981C33.8221 28.5312 34.09 28.2631 34.09 27.8614ZM31.8797 27.9954C31.8797 27.6604 31.5449 27.3925 31.2101 27.3925C30.8082 27.3925 30.5403 27.7275 30.5403 28.0623C30.5403 28.4643 30.8751 28.7322 31.2101 28.7322C31.612 28.7322 31.8797 28.3972 31.8797 27.9954ZM28.33 1.33964C28.33 1.67446 28.5979 2.00927 28.9999 2.00927C29.3347 2.00927 29.6697 1.67465 29.6697 1.33964C29.6697 0.937713 29.3347 0.669822 28.9999 0.669822C28.5979 0.669822 28.33 0.937713 28.33 1.33964ZM30.5403 1.33964C30.5403 1.67446 30.8082 2.00927 31.2101 2.00927C31.5447 2.00927 31.8797 1.74138 31.8797 1.40657C31.8797 1.00464 31.6118 0.670015 31.2101 0.670015C30.8751 0.670015 30.5403 0.937713 30.5403 1.33964ZM32.7505 1.40657C32.6834 1.8085 33.0184 2.14332 33.3532 2.14332C33.7552 2.21024 34.0229 1.87543 34.0898 1.54061C34.0898 1.13868 33.8221 0.870788 33.4871 0.803864C33.0851 0.803864 32.7505 1.07175 32.7505 1.40657ZM34.9604 1.60773C34.8935 2.00966 35.1613 2.34428 35.4962 2.34428C35.8981 2.4114 36.2327 2.14351 36.3 1.80869C36.3 1.40676 36.0319 1.07195 35.6971 1.07195C35.2952 1.00502 34.9604 1.27291 34.9604 1.60773ZM37.1035 1.87562C37.1035 2.27755 37.3045 2.61217 37.7064 2.67929C38.0412 2.74621 38.376 2.47832 38.443 2.14351C38.5101 1.74158 38.2422 1.40695 37.9074 1.33964C37.5054 1.27291 37.1706 1.5408 37.1035 1.87562ZM39.3137 2.27755C39.2468 2.61217 39.4478 3.0141 39.8495 3.08122C40.1843 3.14815 40.5193 2.94718 40.6534 2.54525C40.7201 2.21063 40.4522 1.87562 40.1174 1.74158C39.7155 1.67465 39.3809 1.94254 39.3137 2.27736V2.27755ZM41.4569 2.74621C41.3899 3.14815 41.5909 3.48296 41.9257 3.55008C42.3277 3.68393 42.6623 3.48296 42.7963 3.08122C42.8634 2.74621 42.6625 2.4114 42.2605 2.27736C41.9259 2.21043 41.5909 2.4114 41.4569 2.74621ZM43.6002 3.34911C43.4661 3.68373 43.6671 4.08567 44.0021 4.21971C44.4039 4.28663 44.7387 4.15278 44.8727 3.75085C45.0066 3.41604 44.8056 3.0143 44.4708 2.94718C44.0688 2.81314 43.7342 3.0141 43.6002 3.34911ZM45.6764 4.08567C45.5423 4.42067 45.7433 4.82241 46.0783 4.95645C46.4129 5.0903 46.8149 4.88953 46.9489 4.55452C47.0828 4.21971 46.8818 3.81797 46.547 3.68393C46.2122 3.54989 45.8104 3.75066 45.6764 4.08567ZM47.7526 4.88953C47.5516 5.22415 47.6855 5.62608 48.0205 5.82705C48.3553 5.96109 48.757 5.82705 48.958 5.49224C49.092 5.15742 48.958 4.75568 48.6234 4.62145C48.2884 4.42067 47.8864 4.55452 47.7526 4.88953ZM49.6949 5.89417C49.494 6.22879 49.6278 6.63072 49.9626 6.83169C50.2305 7.03265 50.6994 6.89861 50.8334 6.5638C51.0342 6.29591 50.9673 5.89417 50.6325 5.6932C50.2976 5.49224 49.8959 5.55916 49.6949 5.89417ZM51.57 7.09958C51.3692 7.36747 51.4361 7.7694 51.7709 8.03729C52.0388 8.23826 52.4408 8.17114 52.6417 7.83633C52.9096 7.56843 52.8425 7.1665 52.5077 6.89861C52.2398 6.69784 51.8379 6.76476 51.57 7.09958ZM53.3114 8.43903C53.1104 8.70692 53.1104 9.10885 53.3114 9.37674C53.5793 9.64463 54.0481 9.64463 54.316 9.37674C54.517 9.10885 54.517 8.70692 54.316 8.43903C54.0481 8.17114 53.5794 8.17114 53.3114 8.43903ZM54.8518 10.0464C54.5839 10.2473 54.4498 10.6493 54.7179 10.9841C54.9189 11.252 55.3206 11.3191 55.6554 11.1181C55.9233 10.9172 55.9905 10.5152 55.7895 10.1804C55.5885 9.91252 55.1868 9.8456 54.8518 10.0464ZM56.0574 11.9218C55.7226 12.0556 55.5216 12.3907 55.6554 12.7255C55.7226 13.1274 56.1243 13.2613 56.4593 13.1943C56.8611 13.0603 56.9951 12.6585 56.928 12.3235C56.7941 11.9889 56.3922 11.788 56.0574 11.9218Z" fill="#AAAAAA"/>
<path d="M31.8129 13.8635L31.1431 16.6095H30.2725L31.1431 12.524C31.2102 12.39 31.4781 12.39 31.545 12.591L31.8129 13.8635ZM32.7504 18.5517H30.7414L30.4063 20.0921H28.5311L27.9284 19.4892L28.1963 19.3553H29.6027L30.0046 17.748H32.5497L32.7504 18.5517ZM33.3533 20.0921L32.7504 19.4892L32.9514 19.3553H34.358L32.4156 11.0505L32.5497 10.9165L33.1524 11.5194L35.2286 20.0921H33.3533ZM36.903 13.0596H35.5636L34.9609 12.4569L35.0947 12.3231H36.903V13.0596ZM37.305 20.159L36.7023 19.5563L36.903 19.3553H38.3096V12.3231H40.051V11.0505L40.2518 10.9165L40.8546 11.5194V13.0598H39.0463V20.159H37.305ZM43.3326 13.0596H41.9931L41.3904 12.4569L41.5912 12.3231H43.3326V13.0596ZM43.7345 20.159L43.1316 19.5563L43.3326 19.3553H44.7392V12.3231H46.4803V11.0505L46.6813 10.9165L47.284 11.5194V13.0598H45.5428V20.159H43.7345ZM48.2217 19.3553H49.6281V11.0505L49.7621 10.9165L50.3649 11.5194V20.0921H48.6235L48.0208 19.4894L48.2217 19.3553ZM11.185 11.1175C11.4115 11.2084 11.6167 11.3452 11.7877 11.5194C11.9215 11.6533 12.1223 11.7873 12.3234 11.9883C12.4573 12.189 12.5242 12.3229 12.6583 12.524C12.9262 12.926 13.0602 13.3946 13.0602 13.7294C13.0602 14.3322 12.7252 15.136 12.2563 15.5378L12.5913 15.8728C12.9933 16.2747 13.261 16.8103 13.261 17.614C13.261 18.7524 12.3904 20.0921 11.0509 20.0921H7.97009L7.36719 19.4894L7.56815 19.3553H10.448C11.6538 19.3553 12.4573 18.0828 12.4573 17.0113C12.4573 16.0066 11.9884 15.4039 11.4527 15.136L11.1848 15.002L11.4527 14.801C11.9215 14.5331 12.2565 13.7295 12.2565 13.1937C12.2565 12.524 11.9215 11.6533 11.1178 11.2513L11.185 11.1175ZM9.71147 12.8589V14.4662H8.97472V12.0552H9.77839C10.3142 12.0552 10.7161 12.39 10.85 12.9927C10.7161 12.8589 10.5821 12.8589 10.3811 12.8589H9.71147ZM9.71147 16.2745V18.3507H8.97472V15.4708H10.0463C10.4482 15.4708 10.85 15.8728 10.984 16.4085C10.9169 16.2745 10.783 16.2745 10.649 16.2745H9.71147ZM15.8731 11.0505L16.0739 10.9165L16.6768 11.5194V17.6811C16.6768 17.8149 16.6768 18.0159 16.7437 18.083C16.208 18.0159 15.8731 17.614 15.8731 17.0782V11.0505ZM17.5474 20.2931C16.8778 20.2931 16.3418 20.0921 15.7391 19.6232C15.3372 19.2884 14.9352 18.7526 14.8685 18.6186C14.8014 18.6186 14.7345 18.4176 14.6675 18.2838L14.7345 18.2169C15.1364 19.0205 16.007 19.5563 16.9447 19.5563C18.2842 19.5563 19.4226 18.4178 19.4226 17.0782V11.0505L19.5567 10.9165L20.1594 11.5194V17.6811C20.1594 19.1544 18.9538 20.2931 17.5474 20.2931ZM26.5218 15.136L26.7228 15.002L27.3257 15.6049V17.6809C27.3257 19.2882 26.4549 20.2929 24.6468 20.2929C24.0439 20.2929 23.5081 20.0919 22.9054 19.623C22.5035 19.2882 22.0346 18.7524 21.9677 18.6184C21.9677 18.5515 21.9008 18.4174 21.7667 18.2165H21.9008C22.3027 18.9532 23.1733 19.5561 24.1108 19.5561C25.7853 19.5561 26.522 18.5515 26.522 17.078V15.1356L26.5218 15.136ZM25.3834 16.9443H24.9145L24.3118 16.3414L24.4458 16.1407H25.3834V16.9443ZM25.3164 13.0596C25.1824 12.9258 24.9145 12.8589 24.7137 12.9258C24.1779 12.9258 23.776 13.3946 23.776 13.9304V17.6811C23.776 17.8818 23.8429 18.083 23.977 18.2169C23.3741 18.0828 23.0393 17.614 23.0393 17.0784V13.3275C23.0393 12.7246 23.4412 12.189 24.1108 12.1219C24.7137 12.055 25.2493 12.4567 25.3164 13.0596ZM27.3257 14.0643H25.7853L25.1824 13.4616L25.3834 13.3277H26.5218C26.5218 12.3231 26.1872 11.5194 25.3834 11.1175L25.5174 10.9836C25.6512 11.0505 25.7853 11.1844 25.9193 11.2515C26.1201 11.4523 26.3211 11.5863 26.589 11.8542C26.7899 12.1221 26.9238 12.2561 27.0578 12.524C27.2586 12.9927 27.3257 13.3946 27.3257 13.9304V14.0643Z" fill="black"/>
<path d="M9.10838 15.6719V18.1498H10.0461C10.5819 18.1498 10.9167 17.5471 10.9167 16.8773C10.9167 16.2077 10.448 15.6719 10.0461 15.6719H9.10838ZM9.10838 12.256V14.2655H9.7782C10.3809 14.2655 10.6488 13.9307 10.6488 13.2609C10.6488 12.5912 10.2469 12.2562 9.7782 12.2562L9.10838 12.256ZM11.5865 15.0023C12.1892 15.27 12.6581 15.9398 12.6581 17.0113C12.6581 18.1498 11.7875 19.4893 10.448 19.4893H7.36719V10.9166H10.2471C11.7875 10.9166 12.4571 12.256 12.4571 13.1938C12.4571 13.7295 12.1223 14.6674 11.5865 15.0023ZM17.8151 17.0783V10.9166H19.5565V17.0783C19.5565 18.5518 18.3509 19.6902 16.9445 19.6902C15.471 19.6902 14.2656 18.5518 14.2656 17.0783V10.9166H16.0737V17.0783C16.0737 17.5471 16.4087 17.9491 16.9445 17.9491C17.4803 17.9491 17.8151 17.5471 17.8151 17.0783ZM25.1822 17.0783V16.3417H24.3116V15.0021H26.7226V17.0783C26.7226 18.6856 25.9189 19.6902 24.1106 19.6902C22.6371 19.6902 21.4317 18.5518 21.4317 17.0783V13.3278C21.4317 11.8543 22.6371 10.7158 24.1106 10.7158C25.9189 10.7158 26.7226 11.7205 26.7226 13.3278V13.4616H25.1822V13.3278C25.1822 12.7249 24.7133 12.2562 24.1106 12.3232C23.5748 12.3232 23.1729 12.792 23.1729 13.3278V17.0783C23.1729 17.5471 23.5748 18.016 24.1106 18.0829C24.7133 18.0829 25.1822 17.681 25.1822 17.0783ZM32.1475 16.4086L31.3439 12.5911L30.4733 16.4084L32.1475 16.4086ZM27.9282 19.4895L30.1385 10.9166H32.5495L34.5587 19.4895H32.7504L32.4154 17.9491H30.1385L29.8034 19.4895H27.9282ZM36.7021 12.457H34.9607V10.9166H40.2516V12.457H38.4432V19.5564H36.7021V12.457ZM43.1316 12.457H41.3902V10.9166H46.6811V12.457H44.9397V19.5564H43.1314L43.1316 12.457ZM49.762 19.4895H48.0206V10.9166H49.762V19.4895Z" fill="white"/>
<path d="M30.9411 8.50577C31.343 8.50577 31.6109 8.17095 31.6109 7.76902C31.6109 7.43421 31.343 7.09939 30.9411 7.09939H29.5347V8.50577H30.9411ZM30.9411 6.09475C31.0203 6.09508 31.0989 6.07972 31.1721 6.04953C31.2454 6.01935 31.312 5.97495 31.3681 5.9189C31.4241 5.86284 31.4685 5.79625 31.4986 5.72295C31.5288 5.64966 31.5441 5.57111 31.5438 5.49186C31.5441 5.41261 31.5287 5.33409 31.4986 5.26082C31.4684 5.18755 31.424 5.12097 31.368 5.06494C31.312 5.00891 31.2454 4.96453 31.1721 4.93436C31.0988 4.90418 31.0203 4.88882 30.9411 4.88915H29.5347V6.09475H30.9411ZM27.5254 7.09939V7.43401H26.6546V5.75975H27.5254V6.09475H28.396V4.88915H26.3198V5.29108H25.4492V4.01855H30.9411C31.7449 4.01855 32.4815 4.68818 32.4815 5.55897C32.4815 5.9609 32.3476 6.29553 32.0796 6.56342C32.3476 6.89843 32.5484 7.30016 32.5484 7.7019C32.5484 8.63962 31.8119 9.37636 30.9411 9.37636H25.4492V8.03691H26.3198V8.50577H28.396V7.0992L27.5254 7.09939Z" fill="white"/>
</svg>
