<svg width="64" height="26" viewBox="0 0 64 26" fill="none" xmlns="http://www.w3.org/2000/svg">
<path d="M11.6912 0H16.7709V13.8829C16.7709 16.274 15.7876 21.2748 8.74994 21.2748C1.71394 21.2747 0.951172 16.6136 0.951172 13.9891V11.4312H5.86166V13.9388C5.86166 15.473 6.83022 16.8975 8.69689 16.8975C10.5517 16.8975 11.6911 15.8144 11.6911 13.9892V0H11.6912ZM24.6248 5.80225C28.6034 5.80225 32.1067 7.39834 32.1067 14.7272H22.6618C22.6618 17.066 23.5914 18.0316 25.2279 18.0316C26.8573 18.0316 27.4065 16.6724 27.4065 16.6724H32.0486C32.0486 18.7749 29.267 21.6132 25.0606 21.5686C20.2617 21.5686 17.9085 17.8617 17.9085 14.0574C17.9085 10.246 19.9934 5.80225 24.6248 5.80225ZM27.4669 11.7756C27.4669 10.3541 26.7035 8.98604 24.9558 8.98604C23.2589 8.98604 22.6619 10.246 22.6619 11.7756H27.4669ZM39.7956 5.80225C43.7792 5.80225 47.2759 7.39834 47.2759 14.7272H37.8341C37.8341 17.066 38.7604 18.0316 40.3976 18.0316C42.0394 18.0316 42.5789 16.6724 42.5789 16.6724H47.2155C47.2155 18.7749 44.4399 21.6132 40.2358 21.5686C35.4291 21.5686 33.0764 17.8617 33.0764 14.0574C33.0764 10.246 35.1522 5.80225 39.7956 5.80225ZM42.6381 11.7756C42.6381 10.3541 41.8702 8.98604 40.1259 8.98604C38.4301 8.98604 37.8341 10.246 37.8341 11.7756H42.6381ZM48.4699 25.9998V6.37235H53.1628V8.60261C53.3262 8.23142 53.448 7.97262 53.811 7.50711C54.1256 7.1098 55.0086 5.97207 57.3595 5.97207C59.7037 5.97207 63.3581 7.678 63.3581 13.7137C63.3581 18.3772 61.1808 21.7902 57.4142 21.7902C55.3367 21.7902 54.4098 21.036 53.8652 20.5997C53.5168 20.3123 53.4085 20.1775 53.2174 19.9091V26H48.4699V25.9998ZM53.103 13.8829C53.05 16.7851 53.6505 18.3124 55.9422 18.3124C58.2295 18.3124 58.5655 15.704 58.5655 13.7136C58.5655 11.7197 58.1223 9.78996 55.7224 9.78996C54.2548 9.78996 53.1628 10.9787 53.103 13.8829Z" fill="white"/>
<path d="M11.6912 0H16.7709V13.8829C16.7709 16.274 15.7876 21.2748 8.74994 21.2748C1.71394 21.2747 0.951172 16.6136 0.951172 13.9891V11.4312H5.86166V13.9388C5.86166 15.473 6.83022 16.8975 8.69689 16.8975C10.5517 16.8975 11.6911 15.8144 11.6911 13.9892V0H11.6912ZM24.6248 5.80225C28.6034 5.80225 32.1067 7.39834 32.1067 14.7272H22.6618C22.6618 17.066 23.5914 18.0316 25.2279 18.0316C26.8573 18.0316 27.4065 16.6724 27.4065 16.6724H32.0486C32.0486 18.7749 29.267 21.6132 25.0606 21.5686C20.2617 21.5686 17.9085 17.8617 17.9085 14.0574C17.9085 10.246 19.9934 5.80225 24.6248 5.80225ZM27.4669 11.7756C27.4669 10.3541 26.7035 8.98604 24.9558 8.98604C23.2589 8.98604 22.6619 10.246 22.6619 11.7756H27.4669ZM39.7956 5.80225C43.7792 5.80225 47.2759 7.39834 47.2759 14.7272H37.8341C37.8341 17.066 38.7604 18.0316 40.3976 18.0316C42.0394 18.0316 42.5789 16.6724 42.5789 16.6724H47.2155C47.2155 18.7749 44.4399 21.6132 40.2358 21.5686C35.4291 21.5686 33.0764 17.8617 33.0764 14.0574C33.0764 10.246 35.1522 5.80225 39.7956 5.80225ZM42.6381 11.7756C42.6381 10.3541 41.8702 8.98604 40.1259 8.98604C38.4301 8.98604 37.8341 10.246 37.8341 11.7756H42.6381ZM48.4699 25.9998V6.37235H53.1628V8.60261C53.3262 8.23142 53.448 7.97262 53.811 7.50711C54.1256 7.1098 55.0086 5.97207 57.3595 5.97207C59.7037 5.97207 63.3581 7.678 63.3581 13.7137C63.3581 18.3772 61.1808 21.7902 57.4142 21.7902C55.3367 21.7902 54.4098 21.036 53.8652 20.5997C53.5168 20.3123 53.4085 20.1775 53.2174 19.9091V26H48.4699V25.9998ZM53.103 13.8829C53.05 16.7851 53.6505 18.3124 55.9422 18.3124C58.2295 18.3124 58.5655 15.704 58.5655 13.7136C58.5655 11.7197 58.1223 9.78996 55.7224 9.78996C54.2548 9.78996 53.1628 10.9787 53.103 13.8829Z" fill="white"/>
</svg>
