<svg width="58" height="8" viewBox="0 0 58 8" fill="none" xmlns="http://www.w3.org/2000/svg">
<path d="M51 8V5.60417C51 4.11111 50.3108 3.69444 48.3243 3.69444H44.4162V8H46.8811V5.08333H47.5378C48.2676 5.08333 48.527 5.5434 48.527 6.03819V8H51ZM43.9459 5.11806V4.94444C43.9459 4.23264 43.5649 3.69444 41.8459 3.69444H39.3162C37.7189 3.69444 37.0541 4.27604 37.0541 5.55208V6.30729C37.0541 7.38368 37.7189 8 39.1297 8H43.6378V6.73264H39.9973C39.6405 6.73264 39.5108 6.61111 39.5108 6.32465V6.28125H42.3405C43.3459 6.28993 43.9459 5.92535 43.9459 5.11806ZM41.6108 5.22222C41.6108 5.41319 41.5378 5.52604 41.2541 5.52604H39.5189V5.36111C39.5189 5.11806 39.6081 4.95313 39.8919 4.95313H41.2378C41.4568 4.94444 41.6108 5.03125 41.6108 5.22222ZM35.2541 4.98785H36.7946V3.68576H33.6324C33.1216 3.68576 32.8054 3.9809 32.8054 4.44965V7.99132H35.2622V4.98785H35.2541ZM32.2703 6.32465V5.38715C32.2703 4.31076 31.6135 3.69444 30.1946 3.69444H25.7838V4.94444H29.327C29.6838 4.94444 29.8135 5.06597 29.8135 5.36111V5.40451H26.9838C25.7919 5.40451 25.3946 5.95139 25.3946 6.64583V6.78472C25.3946 7.09722 25.4838 7.36632 25.6541 7.53993C25.9946 7.89583 26.6676 8 27.5676 8H30.0162C31.6054 7.99132 32.2703 7.59201 32.2703 6.32465ZM29.8054 6.32465C29.8054 6.56771 29.7162 6.73264 29.4324 6.73264H28.1027C27.8757 6.73264 27.7378 6.66319 27.7378 6.47222C27.7378 6.28125 27.8189 6.15972 28.1027 6.15972H29.8054V6.32465ZM25.0297 8V6.69792H23.1324V3H20.6676V8H25.0297ZM16.1432 8H20.1162V6.69792H16.8649C16.5486 6.69792 16.2243 6.50694 16.2243 5.87326V5.78646C16.2243 5.22222 16.4919 4.99653 16.8405 4.99653H20.1162V3.69444H16.0622C14.4162 3.69444 13.7432 4.46701 13.7432 5.64757V6.04688C13.7432 7.43576 14.4649 8 16.1432 8ZM10.7757 8H13.2405V3H11.7973C11.2054 3 10.7838 3.2691 10.3784 3.64236C9.92432 4.06771 8.29459 5.57812 8.29459 5.57812V3H6.84324C6.02432 3 5.61081 3.30382 5.14865 3.68576C4.84054 3.95486 0 8 0 8H2.93514L5.82973 5.44792V8H8.18108L10.7757 5.46528V8Z" fill="white"/>
<path d="M56.0848 0C54.7995 0 52.9869 0.353383 51.0177 1.00752C49.3781 1.55639 47.755 2.24812 46 3.26316C47.0299 2.8797 49.0485 2.45113 50.7211 2.45113C52.9786 2.45113 54.5853 3.2406 52.2124 6C59.2075 1.81955 59.0097 0 56.0848 0Z" fill="white"/>
</svg>
