<svg width="58" height="16" viewBox="0 0 58 16" fill="none" xmlns="http://www.w3.org/2000/svg">
<path d="M0.0341627 0.065264C0.0145061 0.0978908 -0.00515049 1.50084 0.00140171 3.17786C0.00140171 5.99029 0.0145061 6.23825 0.112789 6.31656C0.197967 6.37528 0.460055 6.39486 1.04975 6.38181L1.86878 6.36223L1.88843 5.38996C1.89499 4.80267 1.9343 4.37852 1.98016 4.32632C2.03258 4.26107 2.43882 4.24149 3.84754 4.24149C5.62973 4.24149 5.64284 4.24149 5.78699 4.39157C5.98355 4.59386 6.7305 5.43563 7.07777 5.84021C7.55608 6.40791 7.51677 6.39486 8.60443 6.39486C9.38414 6.39486 9.5676 6.37528 9.5676 6.30351C9.5676 6.2513 9.23999 5.80758 8.84686 5.31165C8.44718 4.8092 8.13267 4.36547 8.13922 4.32632C8.15233 4.28064 8.33579 4.10446 8.55201 3.92828C8.76823 3.75862 8.97135 3.55633 9.01067 3.47802C9.04998 3.40625 9.10895 3.30184 9.14826 3.25616C9.18758 3.20396 9.27275 2.99515 9.33172 2.78634C9.44311 2.42092 9.44311 2.38829 9.33172 1.93804C9.1155 1.0767 8.72892 0.52204 8.19819 0.306703C7.40538 -0.00651415 7.51021 1.04369e-05 3.68373 1.04369e-05C1.43633 1.04369e-05 0.0603714 0.0261119 0.0341627 0.065264ZM7.23502 1.76838C7.46435 2.03592 7.4578 2.30999 7.21536 2.55143L7.0188 2.74066L4.50931 2.72761L1.99982 2.70803L1.98016 2.1338L1.96051 1.5661H7.06466L7.23502 1.76838ZM15.6415 0.150093C15.5629 0.234922 15.2484 0.665597 14.9404 1.10932C14.1541 2.23821 13.8462 2.68193 13.3417 3.3932C13.001 3.87607 11.9985 5.2986 11.4415 6.10122C11.3957 6.15995 11.4088 6.2252 11.4677 6.29045C11.5398 6.38181 11.6971 6.39486 12.5751 6.38181L13.5972 6.36223L14.0231 5.72275L14.449 5.08979L16.8733 5.10284L19.2976 5.12242L19.6056 5.54656C19.7759 5.78148 19.9987 6.06859 20.1035 6.17952L20.2935 6.39486H21.2567C22.0299 6.39486 22.2133 6.37528 22.2133 6.30351C22.2133 6.2513 22.0299 5.95766 21.8071 5.65097C21.2895 4.93971 20.7194 4.13709 20.1232 3.29532C19.8676 2.93642 19.6252 2.59058 19.5794 2.53185C19.5335 2.46659 19.3631 2.22516 19.1993 1.99024C19.0355 1.75533 18.7079 1.29856 18.4655 0.965763C18.2165 0.639495 18.0199 0.35238 18.0199 0.326278C18.0199 0.306702 17.961 0.221873 17.8889 0.143569C17.7578 0.0065366 17.6989 1.04369e-05 16.7685 1.04369e-05C15.8249 1.04369e-05 15.7791 0.006535 15.6415 0.150093ZM17.3451 2.29694C17.5285 2.55795 17.8037 2.96905 17.9741 3.21049C18.1379 3.4454 18.2558 3.66074 18.2362 3.68031C18.1837 3.73251 15.6284 3.73251 15.576 3.68031C15.5563 3.66074 15.6742 3.4454 15.838 3.21049C16.0084 2.96905 16.2836 2.55795 16.4671 2.29694C16.6636 2.00982 16.834 1.82711 16.9061 1.82711C16.9781 1.82711 17.1485 2.00982 17.3451 2.29694ZM23.9628 0.0456887C23.9366 0.0652648 23.9169 1.47474 23.9169 3.17133C23.9169 5.91198 23.93 6.26435 24.0217 6.36223C24.1069 6.44706 24.2642 6.46011 24.9259 6.44706L25.7188 6.42749L25.7515 4.20887C25.7843 2.14033 25.8039 1.82711 25.9415 1.82711C25.9939 1.82711 26.2888 2.04897 26.7671 2.44702C26.9113 2.571 27.1602 2.77329 27.324 2.90379C27.4878 3.02778 27.8482 3.31489 28.13 3.54328C28.4117 3.76514 28.831 4.09141 29.0538 4.27412C29.8466 4.90055 30.4363 5.3769 30.4691 5.41606C30.4888 5.43563 30.7836 5.67707 31.1309 5.95766L31.7599 6.46011H32.7689C33.47 6.46011 33.8107 6.43401 33.8631 6.38181C33.9221 6.32308 33.9418 5.54656 33.9418 3.29532V0.2806L33.7911 0.143569C33.6535 0.0130619 33.5683 1.04369e-05 32.8803 1.04369e-05C32.461 1.04369e-05 32.0744 0.0195869 32.0154 0.039163C31.9237 0.0717898 31.9106 0.313228 31.9106 2.06202C31.9106 3.77167 31.8975 4.05226 31.8123 4.08488C31.7533 4.11099 31.5305 3.98048 31.2423 3.74557C30.9802 3.53023 30.5019 3.14523 30.1742 2.87769C29.8532 2.61668 29.4404 2.28388 29.2569 2.14033C29.08 1.99677 28.8114 1.78143 28.6672 1.66398C28.3789 1.41601 28.0579 1.16152 27.324 0.593818C27.0488 0.385007 26.7933 0.163145 26.7409 0.104417C26.6623 0.0130616 26.4723 1.04369e-05 25.3256 1.04369e-05C24.5983 1.04369e-05 23.9824 0.0195873 23.9628 0.0456887ZM37.5782 0.137043C37.1785 0.274076 36.8771 0.554667 36.6937 0.959239C36.5626 1.25288 36.5561 1.37686 36.5561 3.12566V4.98538L36.7592 5.38996C36.9099 5.69665 37.0344 5.84673 37.303 6.02944C37.493 6.15995 37.6962 6.26435 37.7551 6.26435C37.8141 6.26435 37.8862 6.29045 37.9058 6.32961C37.932 6.36876 39.0852 6.39486 41.1426 6.39486C44.7267 6.39486 44.5367 6.42096 45.0477 5.90546C45.4605 5.49436 45.5391 5.19419 45.5391 3.98048C45.5391 3.06693 45.526 2.94295 45.4212 2.84507C45.3098 2.74719 45.0543 2.74066 42.8134 2.75371L40.3301 2.77329L40.3105 3.33447C40.2974 3.78472 40.317 3.92175 40.3957 4.00658C40.4874 4.09793 40.7233 4.11099 42.1385 4.11099C43.4949 4.11099 43.7831 4.12404 43.8094 4.20234C43.8487 4.31327 43.7438 4.54166 43.5538 4.74395L43.4228 4.89403H40.9461C38.7314 4.89403 38.4693 4.88098 38.3907 4.7831C38.3186 4.70479 38.299 4.39158 38.299 3.43235C38.299 2.22516 38.3055 2.17948 38.4497 1.99024C38.7773 1.57262 38.7904 1.57262 41.2868 1.5661C43.7831 1.5661 43.698 1.55304 43.8028 1.97719C43.8683 2.23821 44.0125 2.28389 44.7332 2.28389C45.4474 2.28389 45.5391 2.24473 45.5391 1.93152C45.5391 1.26593 44.9298 0.326278 44.4253 0.221872C44.3335 0.202296 44.1566 0.156619 44.0321 0.123992C43.8945 0.0848397 42.5907 0.0522141 40.8543 0.0456887C38.2728 0.032638 37.8665 0.0456883 37.5782 0.137043ZM50.0601 0.065264L48.3893 0.0978908L48.3697 3.16481C48.3566 5.99029 48.3631 6.23825 48.468 6.31003C48.5531 6.37529 49.4967 6.39486 52.6548 6.39486C56.3109 6.39486 56.7303 6.38181 56.7696 6.29045C56.8548 6.06859 56.8089 5.18767 56.7041 5.03759L56.6058 4.89403H53.5C50.4926 4.89403 50.3878 4.8875 50.3222 4.77005C50.2305 4.59386 50.2371 4.22192 50.3419 4.09141C50.414 3.99353 50.6761 3.98048 53.1069 3.96743L55.7933 3.94785L55.813 3.33447C55.8261 2.94295 55.8064 2.69498 55.754 2.63625C55.695 2.55795 55.2167 2.5449 53.0086 2.5449C50.047 2.5449 50.2567 2.57753 50.2567 2.11423C50.2567 1.98372 50.2895 1.82711 50.3222 1.75533C50.3878 1.63787 50.4926 1.63135 53.559 1.63135C56.3896 1.63135 56.7368 1.6183 56.7696 1.52694C56.7893 1.46822 56.8089 1.18763 56.8089 0.893985C56.8089 0.411109 56.7893 0.33933 56.6451 0.176196L56.4747 1.04369e-05L54.1029 0.0130619C52.799 0.0195873 50.9775 0.0456879 50.0601 0.065264ZM0.00140171 9.40958V12.5287C-0.00515049 15.2889 0.00795388 15.5043 0.112789 15.5826C0.197967 15.6413 0.460055 15.6609 1.04975 15.6478L1.86878 15.6282L1.90154 14.5842C1.92119 14.01 1.96051 13.501 1.98672 13.4553C2.02603 13.3966 2.47158 13.377 3.83443 13.377H5.62973L6.23909 14.0752C6.57325 14.4602 7.03846 14.9757 7.27433 15.2171L7.70678 15.6609H8.6634C9.19413 15.6609 9.63968 15.6348 9.65933 15.6021C9.67899 15.5695 9.59381 15.4194 9.46932 15.2628C9.34483 15.1062 9.01722 14.6886 8.74858 14.3427C8.47994 13.9969 8.23095 13.6967 8.19164 13.6706C8.0737 13.5989 8.11957 13.3835 8.27027 13.3052C8.35545 13.2595 8.46028 13.1878 8.50615 13.1421C8.55201 13.0899 8.64374 13.0181 8.70271 12.9724C8.93204 12.8093 9.17447 12.4112 9.30551 12.0001C9.43656 11.5956 9.44311 11.5695 9.33172 11.0931C9.16137 10.3558 8.89273 9.91203 8.43407 9.60534C7.92955 9.26602 7.89679 9.26602 3.80823 9.26602H0.00140171V9.40958ZM7.26778 10.9365C7.46435 11.1845 7.44469 11.4585 7.21536 11.6869L7.0188 11.8762L4.50931 11.8631L1.99982 11.8435L1.98016 11.3019L1.96051 10.7668H7.13674L7.26778 10.9365ZM13.0665 9.38347C12.752 9.51398 12.4375 9.76194 12.313 9.99033C12.0836 10.408 12.0574 10.5972 12.0574 12.3134C12.0574 14.1992 12.1099 14.5777 12.4309 15.0018C12.6471 15.2889 12.7389 15.3607 13.0796 15.5304C13.3417 15.6609 13.4399 15.6609 16.9126 15.6413C20.7325 15.6217 20.6605 15.6282 21.1453 15.2824C21.2567 15.2041 21.4205 15.0279 21.5057 14.8909C21.6564 14.6494 21.6564 14.6299 21.6564 12.5939C21.6564 10.6624 21.6498 10.5254 21.5254 10.3101C21.3484 9.99686 21.0405 9.66406 20.8112 9.54661C20.2935 9.27907 20.1494 9.26602 16.6767 9.27254C13.6889 9.27254 13.3089 9.28559 13.0665 9.38347ZM19.7104 10.9626C19.848 11.0931 19.8545 11.1453 19.8545 12.359C19.8545 13.5075 19.8414 13.638 19.7301 13.775L19.6056 13.9316L16.9454 13.9512C15.1501 13.9643 14.2393 13.9447 14.1541 13.899C14.0296 13.8338 14.0231 13.762 14.0231 12.4634C14.0231 11.1779 14.0296 11.0866 14.1541 10.9626C14.2786 10.8386 14.3704 10.8321 16.9257 10.8321C19.4942 10.8321 19.5728 10.8386 19.7104 10.9626ZM23.5238 9.35737C23.5238 9.4422 23.7465 9.78805 24.31 10.5646C25.1618 11.7391 25.6139 12.3786 25.8826 12.7636C26.0464 12.9985 26.2102 13.2269 26.2429 13.2661C26.2822 13.3117 26.4002 13.4749 26.5116 13.638C26.9702 14.3101 27.5534 15.1258 27.763 15.3803L27.9858 15.6609H29.9842L30.5215 14.9235C31.0916 14.1339 31.3536 13.775 32.212 12.5613C33.0572 11.3802 33.6076 10.6102 34.0269 10.036C34.5839 9.27254 34.5773 9.26602 33.2931 9.26602C32.1596 9.26602 32.1596 9.26602 31.8909 9.69017C31.7992 9.83372 31.5502 10.1926 31.3405 10.4863C31.1309 10.7799 30.6132 11.5173 30.1939 12.1176C29.198 13.5336 28.9424 13.8664 28.8442 13.8664C28.7655 13.8664 28.5362 13.5597 27.4485 11.974C27.1471 11.5434 26.7802 11.0148 26.623 10.7995C26.4723 10.5841 26.2036 10.2057 26.0333 9.96423C25.5091 9.22034 25.6074 9.26602 24.4935 9.26602C23.7203 9.26602 23.5238 9.28559 23.5238 9.35737ZM36.7985 9.40958C36.733 9.65754 36.7526 15.1193 36.8247 15.2954C36.9623 15.6674 36.9165 15.6609 41.2278 15.6478L45.1788 15.6282L45.1984 14.9105C45.2115 14.2905 45.1984 14.1861 45.1001 14.1144C45.015 14.0491 44.3008 14.0295 41.9682 14.0295C39.616 14.0295 38.9214 14.01 38.8297 13.9447C38.7445 13.8794 38.7183 13.7881 38.738 13.5075L38.7576 13.1486L41.5423 13.116L44.327 13.0834L44.3466 12.5287C44.3728 11.6412 44.6415 11.713 41.503 11.6935C39.4915 11.6804 38.8166 11.6543 38.7773 11.5956C38.7511 11.5499 38.7249 11.3802 38.7249 11.2106C38.7249 10.9691 38.7511 10.8843 38.8494 10.8321C38.9345 10.793 40.0746 10.7668 42.0927 10.7668H45.2115V10.0947C45.2115 9.65754 45.1853 9.39652 45.1329 9.34432C45.0739 9.28559 44.0518 9.26602 40.9461 9.26602H36.8378L36.7985 9.40958ZM48.4024 9.3117C48.3762 9.33127 48.3566 10.7212 48.3566 12.3982C48.3566 15.2889 48.3631 15.4521 48.4811 15.5565C48.5794 15.6478 48.7235 15.6609 49.3787 15.6478L50.1584 15.6282L50.1781 14.6233C50.1846 14.0165 50.224 13.5793 50.2633 13.5271C50.3222 13.4618 50.7285 13.4422 52.1569 13.4422H53.9718L54.7188 14.3036C55.1315 14.7799 55.5836 15.2759 55.7212 15.4129L55.9768 15.6609H56.9465C57.5296 15.6609 57.9293 15.6348 57.9555 15.5956C57.9949 15.5369 57.6869 15.0801 57.4969 14.9105C57.4576 14.8713 57.2479 14.6103 57.0251 14.3232C56.8089 14.0361 56.5796 13.762 56.5206 13.7098C56.3568 13.5728 56.3961 13.39 56.6189 13.2726C56.881 13.1421 57.2086 12.8158 57.4445 12.4569C57.6148 12.1829 57.6279 12.1306 57.6214 11.4846C57.6148 10.6559 57.4903 10.3231 56.9793 9.81415C56.4158 9.25297 56.5141 9.26602 52.1765 9.26602C50.1257 9.26602 48.4221 9.28559 48.4024 9.3117ZM55.564 10.943C55.6754 11.0866 55.7016 11.1779 55.6623 11.3868C55.5902 11.8827 55.6557 11.8762 52.8448 11.8762C50.9906 11.8762 50.3288 11.8566 50.2698 11.7979C50.1846 11.713 50.1584 10.8843 50.2371 10.8125C50.2567 10.7864 51.4361 10.7668 52.8514 10.7668H55.4264L55.564 10.943Z" fill="white"/>
</svg>
