<svg width="81" height="70" viewBox="0 0 81 70" fill="none" xmlns="http://www.w3.org/2000/svg">
<path d="M58.3468 27.9788C58.1725 27.4895 57.9688 27.0162 57.775 26.5777C57.4763 25.9071 57.1721 25.2391 56.8622 24.5736L56.838 24.5216C54.1004 18.5982 51.2339 12.7354 48.2404 6.93717L48.1123 6.68938C47.8011 6.0812 47.4844 5.47581 47.1623 4.8733C46.7759 4.10737 46.307 3.38587 45.7641 2.72159C45.1527 1.99234 44.3888 1.40604 43.5263 1.004C42.6633 0.60179 41.7226 0.393429 40.7705 0.393555C39.8184 0.39368 38.8778 0.602289 38.0149 1.00472C37.1525 1.40696 36.3887 1.99342 35.7775 2.7228C35.2354 3.38722 34.767 4.10852 34.3805 4.87403C34.0555 5.4821 33.7359 6.09305 33.4218 6.70681L33.3032 6.93669C30.3098 12.7352 27.4431 18.5983 24.7053 24.5218L24.6661 24.6065C24.3616 25.261 24.0624 25.918 23.7686 26.5775C23.575 27.0157 23.3715 27.4888 23.1971 27.9793C22.6973 29.3152 22.5379 30.7546 22.7334 32.1675C22.941 33.5958 23.5186 34.945 24.4089 36.0811C25.2998 37.2181 26.4722 38.1028 27.81 38.6476C28.821 39.0565 29.9017 39.2656 30.9923 39.2632C31.3349 39.2632 31.6774 39.2431 32.0178 39.2034C33.397 39.0277 34.7274 38.5788 35.9312 37.8831C37.5096 36.9963 39.0687 35.6966 40.7718 33.8394C42.4749 35.6966 44.0337 36.9963 45.6124 37.8829C46.8161 38.5788 48.1465 39.0277 49.5258 39.2034C49.8662 39.2431 50.2086 39.2631 50.5513 39.2632C51.6419 39.2656 52.7226 39.0565 53.7334 38.6476C55.0712 38.1028 56.2437 37.2181 57.1347 36.0811C58.0249 34.945 58.6026 33.5958 58.8102 32.1675C59.0055 30.7544 58.8462 29.315 58.3468 27.9788ZM40.7718 30.0035C38.6634 27.331 37.3107 24.8492 36.8359 22.7689C36.6414 21.9894 36.5954 21.1802 36.7004 20.3837C36.7835 19.7996 36.998 19.242 37.3279 18.753C37.7341 18.2263 38.2558 17.7999 38.8529 17.5067C39.4502 17.2136 40.1067 17.0612 40.7721 17.0613C41.4375 17.0614 42.094 17.2139 42.6912 17.5072C43.2881 17.8004 43.8098 18.2268 44.2159 18.7534C44.5458 19.2426 44.7603 19.8003 44.8434 20.3844C44.9483 21.1812 44.9021 21.9906 44.7074 22.7703C44.2321 24.8507 42.8797 27.3317 40.7718 30.0035ZM56.3477 31.8157C56.2025 32.8142 55.7987 33.7575 55.1763 34.5518C54.5533 35.3468 53.7336 35.9654 52.7981 36.3463C51.8517 36.7254 50.825 36.8598 49.813 36.7369C48.7611 36.6014 47.7474 36.2552 46.8325 35.7188C45.4273 34.9295 44.0049 33.7177 42.4042 31.9398C44.9523 28.7981 46.5436 25.9023 47.1326 23.3228C47.3976 22.2383 47.4551 21.1135 47.3019 20.0076C47.163 19.0547 46.8093 18.1457 46.2677 17.3495C45.6327 16.4899 44.8048 15.7914 43.8505 15.3103C42.8957 14.8288 41.8413 14.578 40.772 14.578C39.7027 14.578 38.6483 14.8288 37.6935 15.3103C36.7392 15.7912 35.9112 16.4895 35.2761 17.349C34.7346 18.145 34.381 19.0536 34.2419 20.0062C34.0886 21.1117 34.1458 22.2361 34.4103 23.3204C34.999 25.9006 36.5903 28.7974 39.1391 31.94C37.5387 33.7177 36.1163 34.9295 34.7111 35.7191C33.7961 36.2553 32.7824 36.6015 31.7306 36.7369C30.7185 36.8598 29.6917 36.7254 28.7452 36.3463C27.8099 35.9654 26.9902 35.3469 26.3673 34.552C25.7449 33.7576 25.3412 32.8143 25.1961 31.8157C25.0567 30.8008 25.1753 29.7671 25.5411 28.8102C25.68 28.4192 25.8429 28.0359 26.0445 27.58C26.3328 26.9331 26.6263 26.2885 26.925 25.6463L26.9643 25.5611C29.687 19.6706 32.5379 13.8402 35.515 8.07401L35.634 7.84292C35.9389 7.25175 36.254 6.64026 36.5719 6.04958C36.8762 5.44059 37.2444 4.86571 37.6703 4.33465C38.0483 3.8788 38.5222 3.51188 39.0582 3.26003C39.5942 3.00818 40.1791 2.87759 40.7713 2.87754C41.3635 2.87749 41.9485 3.008 42.4845 3.25977C43.0205 3.51153 43.4945 3.87837 43.8726 4.33417C44.2988 4.86478 44.6671 5.43945 44.9712 6.04837C45.286 6.63397 45.5984 7.23989 45.9006 7.82573L46.0289 8.07425C49.006 13.8404 51.8568 19.671 54.5793 25.5616L54.6035 25.6139C54.9012 26.2583 55.2092 26.9242 55.4991 27.5802C55.7009 28.0366 55.864 28.4204 56.0027 28.81C56.3683 29.7669 56.487 30.8005 56.3477 31.8154V31.8157Z" fill="white"/>
<path d="M7.62848 69.4401C6.65813 69.4401 5.76521 69.2457 4.94973 68.8566C4.13425 68.4675 3.43564 67.9226 2.81447 67.2225C2.1933 66.5222 1.72749 65.7053 1.37782 64.8102C1.0284 63.8764 0.873047 62.8647 0.873047 61.7755C0.873047 60.6861 1.06736 59.6354 1.41678 58.7016C1.76621 57.768 2.27098 56.9508 2.89215 56.2116C3.51332 55.5113 4.25088 54.9276 5.10508 54.5385C5.95928 54.1494 6.8522 53.9549 7.86175 53.9549C8.8321 53.9549 9.6863 54.1494 10.4631 54.5775C11.2396 54.9666 11.8608 55.5502 12.3653 56.2893L12.4819 54.3829H16.0536V69.0512H12.4819L12.3653 66.9113C11.8608 67.6893 11.2006 68.3119 10.3464 68.7787C9.56991 69.207 8.63803 69.4403 7.62872 69.4403L7.62848 69.4401ZM8.5606 65.9386C9.25945 65.9386 9.88062 65.744 10.4631 65.3939C11.0066 65.0048 11.4334 64.499 11.7831 63.8766C12.0935 63.254 12.2489 62.5148 12.2489 61.6976C12.2489 60.8804 12.0935 60.1411 11.7831 59.5188C11.4724 58.8961 11.0063 58.3904 10.4631 58.0015C9.91933 57.6122 9.25945 57.4566 8.5606 57.4566C7.86175 57.4566 7.24058 57.6511 6.65813 58.0013C6.11464 58.3904 5.68754 58.8961 5.33811 59.5185C5.02741 60.1411 4.87206 60.8804 4.87206 61.6976C4.87206 62.5148 5.02741 63.254 5.33811 63.8764C5.64858 64.499 6.11464 65.0048 6.65813 65.3936C7.24058 65.744 7.86175 65.9386 8.5606 65.9386ZM22.1494 50.4142C22.1494 50.8422 22.0717 51.2313 21.8774 51.5425C21.6763 51.8671 21.3957 52.1349 21.0622 52.3207C20.7127 52.5153 20.3246 52.593 19.9365 52.593C19.5481 52.593 19.1597 52.5153 18.8103 52.3207C18.4767 52.1349 18.1961 51.8671 17.995 51.5425C17.801 51.1924 17.7233 50.8422 17.7233 50.4142C17.7233 49.9863 17.8007 49.5972 17.995 49.2858C18.1891 48.9356 18.4608 48.7024 18.8105 48.5078C19.1597 48.3133 19.5481 48.2354 19.9365 48.2354C20.3246 48.2354 20.7127 48.3133 21.0622 48.5078C21.3958 48.6935 21.6764 48.9613 21.8776 49.2858C22.0328 49.5972 22.1494 49.9474 22.1494 50.4142ZM17.995 69.0122V54.344H21.8774V69.0122H17.995ZM32.2439 58.1956V58.2348C32.0499 58.1569 31.8168 58.1179 31.6225 58.0792C31.3897 58.0403 31.1954 58.0403 30.9626 58.0403C29.8754 58.0403 29.0602 58.3514 28.5167 59.013C27.9342 59.6744 27.6625 60.6082 27.6625 61.8142V69.0122H23.7801V54.344H27.3518L27.4684 56.5617C27.8566 55.7835 28.3226 55.1999 28.9825 54.772C29.6037 54.3437 30.3412 54.1494 31.1954 54.1494C31.4674 54.1494 31.7392 54.1881 31.9722 54.2271C32.0884 54.266 32.166 54.266 32.2439 54.305V58.1956ZM33.7967 69.0122V48.313H37.6794V56.2113C38.2229 55.5113 38.844 54.9663 39.6205 54.5385C40.3973 54.1494 41.2515 53.9159 42.2219 53.9159C43.1922 53.9159 44.0854 54.1105 44.9006 54.4996C45.7161 54.8887 46.4149 55.4334 47.0361 56.1337C47.6575 56.834 48.1233 57.6511 48.4728 58.5462C48.8222 59.4798 48.9773 60.4913 48.9773 61.5807C48.9773 62.6704 48.7832 63.7208 48.434 64.6546C48.0844 65.5884 47.5798 66.4054 46.9584 67.1446C46.3373 67.8452 45.5997 68.4286 44.7455 68.8177C43.8913 69.2068 42.9984 69.4013 41.9891 69.4013C41.0182 69.4013 40.1643 69.2068 39.3878 68.7787C38.611 68.3896 37.9898 67.806 37.4853 67.0669L37.3687 68.9733L33.7967 69.0122ZM41.29 65.9386C41.9891 65.9386 42.6102 65.744 43.1925 65.3939C43.736 65.0048 44.1631 64.499 44.5125 63.8766C44.8232 63.254 44.9785 62.5148 44.9785 61.6976C44.9785 60.8804 44.8232 60.1411 44.5125 59.5188C44.1631 58.8961 43.736 58.3904 43.1925 58.0015C42.649 57.6122 41.9891 57.4566 41.29 57.4566C40.5911 57.4566 39.97 57.6511 39.3878 58.0013C38.844 58.3904 38.4169 58.8961 38.0675 59.5185C37.757 60.1411 37.6017 60.8804 37.6017 61.6976C37.6017 62.5148 37.757 63.254 38.0675 63.8764C38.3782 64.499 38.8443 65.0048 39.3878 65.3936C39.97 65.744 40.5911 65.9386 41.29 65.9386ZM50.4529 69.0122V54.344H54.0246L54.1412 56.2505C54.5683 55.55 55.1505 55.0053 55.8883 54.5775C56.6259 54.1494 57.4801 53.9549 58.4509 53.9549C59.5379 53.9549 60.4696 54.2271 61.2461 54.7331C62.0616 55.2388 62.6827 55.9781 63.1098 56.9119C63.5369 57.8457 63.7697 58.9738 63.7697 60.258V69.0512H59.8873V60.7638C59.8873 59.7523 59.6543 58.9351 59.1885 58.3512C58.7227 57.768 58.1013 57.4566 57.286 57.4566C56.7036 57.4566 56.1988 57.5732 55.733 57.8457C55.3059 58.1179 54.9565 58.4681 54.6847 58.9741C54.413 59.4408 54.2966 60.0243 54.2966 60.6082V69.0122H50.4529ZM65.7109 69.0122V48.313H69.5935V56.2113C70.137 55.5113 70.7582 54.9663 71.5347 54.5385C72.3115 54.1494 73.1657 53.9159 74.136 53.9159C75.1068 53.9159 75.9998 54.1105 76.815 54.4996C77.6305 54.8887 78.3291 55.4334 78.9503 56.1337C79.5722 56.834 80.0372 57.6511 80.3872 58.5462C80.7371 59.4798 80.8912 60.4913 80.8912 61.5807C80.8912 62.6704 80.6981 63.7208 80.3482 64.6546C79.9985 65.5884 79.4942 66.4054 78.8723 67.1446C78.2514 67.8452 77.5138 68.4286 76.6597 68.8177C75.8055 69.2068 74.9125 69.4013 73.9032 69.4013C72.9326 69.4013 72.0784 69.2068 71.3019 68.7787C70.5251 68.3896 69.9042 67.806 69.3994 67.0669L69.283 68.9733L65.7109 69.0122ZM73.2431 65.9386C73.9419 65.9386 74.5631 65.744 75.1456 65.3939C75.6891 65.0048 76.1159 64.499 76.4656 63.8766C76.7763 63.254 76.9316 62.5148 76.9316 61.6976C76.9316 60.8804 76.7763 60.1411 76.4656 59.5188C76.1551 58.8961 75.6891 58.3904 75.1456 58.0015C74.6018 57.6122 73.9419 57.4566 73.2431 57.4566C72.5443 57.4566 71.9231 57.6511 71.3406 58.0013C70.7971 58.3904 70.3703 58.8961 70.0206 59.5185C69.6712 60.1411 69.5546 60.8804 69.5546 61.6976C69.5546 62.5148 69.7101 63.254 70.0206 63.8764C70.3313 64.499 70.7974 65.0048 71.3406 65.3936C71.9231 65.744 72.5055 65.9386 73.2431 65.9386Z" fill="white"/>
</svg>
